STARTFONT 2.1
FONT -misc-spleen-medium-r-normal--24-240-72-72-C-120-ISO10646-1
SIZE 24 72 72
FONTBOUNDINGBOX 12 24 0 -5
COMMENT "Generated by fontforge, http://fontforge.sourceforge.net"
COMMENT "/*"
COMMENT "* Spleen 12x24 2.1.0"
COMMENT "* Copyright (c) 2018-2024, Frederic Cambus"
COMMENT "* https://www.cambus.net/"
COMMENT "*"
COMMENT "* Created:      2018-08-15"
COMMENT "* Last Updated: 2024-03-22"
COMMENT "*"
COMMENT "* Spleen is released under the BSD 2-Clause license."
COMMENT "* See LICENSE file for details."
COMMENT "*"
COMMENT "* SPDX-License-Identifier: BSD-2-Clause"
COMMENT "*/"
STARTPROPERTIES 20
FAMILY_NAME "Spleen"
WEIGHT_NAME "Medium"
FONT_VERSION "2.1.0"
FOUNDRY "misc"
SLANT "R"
SETWIDTH_NAME "Normal"
PIXEL_SIZE 24
POINT_SIZE 240
RESOLUTION_X 72
RESOLUTION_Y 72
SPACING "C"
AVERAGE_WIDTH 120
CHARSET_REGISTRY "ISO10646"
CHARSET_ENCODING "1"
MIN_SPACE 12
FONT_ASCENT 19
FONT_DESCENT 5
COPYRIGHT "Copyright (c) 2018-2024, Frederic Cambus"
DEFAULT_CHAR 32
_GBDFED_INFO "Edited with gbdfed 1.6."
ENDPROPERTIES
CHARS 916
STARTCHAR SPACE
ENCODING 32
SWIDTH 500 0
DWIDTH 12 0
BBX 1 1 11 -5
BITMAP
00
ENDCHAR
STARTCHAR EXCLAMATION
ENCODING 33
SWIDTH 500 0
DWIDTH 12 0
BBX 2 15 5 0
BITMAP
C0
C0
C0
C0
C0
C0
C0
C0
C0
C0
C0
00
00
C0
C0
ENDCHAR
STARTCHAR QUOTATION
ENCODING 34
SWIDTH 500 0
DWIDTH 12 0
BBX 8 7 2 10
BITMAP
C3
C3
C3
C3
C3
C3
C3
ENDCHAR
STARTCHAR NUMBER
ENCODING 35
SWIDTH 500 0
DWIDTH 12 0
BBX 10 15 1 0
BITMAP
6180
6180
6180
FFC0
6180
6180
6180
6180
6180
6180
6180
FFC0
6180
6180
6180
ENDCHAR
STARTCHAR DOLLAR
ENCODING 36
SWIDTH 500 0
DWIDTH 12 0
BBX 10 19 1 -2
BITMAP
0C00
0C00
3FC0
6C00
CC00
CC00
CC00
CC00
6C00
3F00
0D80
0CC0
0CC0
0CC0
0CC0
0D80
FF00
0C00
0C00
ENDCHAR
STARTCHAR PERCENT
ENCODING 37
SWIDTH 500 0
DWIDTH 12 0
BBX 10 14 1 0
BITMAP
0180
7180
DB00
DB00
7600
0600
0C00
0C00
1800
1B80
36C0
36C0
6380
6000
ENDCHAR
STARTCHAR AMPERSAND
ENCODING 38
SWIDTH 500 0
DWIDTH 12 0
BBX 11 15 1 0
BITMAP
1E00
3300
6180
6180
6180
6180
3300
1E00
6600
C340
C1C0
C180
C180
63C0
3E60
ENDCHAR
STARTCHAR APOSTROPHE
ENCODING 39
SWIDTH 500 0
DWIDTH 12 0
BBX 2 7 5 10
BITMAP
C0
C0
C0
C0
C0
C0
C0
ENDCHAR
STARTCHAR LEFT
ENCODING 40
SWIDTH 500 0
DWIDTH 12 0
BBX 8 20 3 -3
BITMAP
07
0C
18
30
60
60
C0
C0
C0
C0
C0
C0
C0
C0
60
60
30
18
0C
07
ENDCHAR
STARTCHAR RIGHT
ENCODING 41
SWIDTH 500 0
DWIDTH 12 0
BBX 8 20 1 -3
BITMAP
E0
30
18
0C
06
06
03
03
03
03
03
03
03
03
06
06
0C
18
30
E0
ENDCHAR
STARTCHAR ASTERISK
ENCODING 42
SWIDTH 500 0
DWIDTH 12 0
BBX 10 9 1 2
BITMAP
6180
3300
1E00
0C00
FFC0
0C00
1E00
3300
6180
ENDCHAR
STARTCHAR PLUS
ENCODING 43
SWIDTH 500 0
DWIDTH 12 0
BBX 8 7 2 3
BITMAP
18
18
18
FF
18
18
18
ENDCHAR
STARTCHAR COMMA
ENCODING 44
SWIDTH 500 0
DWIDTH 12 0
BBX 4 5 3 -2
BITMAP
30
30
30
60
C0
ENDCHAR
STARTCHAR HYPHEN-MINUS
ENCODING 45
SWIDTH 500 0
DWIDTH 12 0
BBX 8 1 2 6
BITMAP
FF
ENDCHAR
STARTCHAR FULL
ENCODING 46
SWIDTH 500 0
DWIDTH 12 0
BBX 2 2 5 0
BITMAP
C0
C0
ENDCHAR
STARTCHAR SOLIDUS
ENCODING 47
SWIDTH 500 0
DWIDTH 12 0
BBX 11 20 1 -3
BITMAP
0060
0060
00C0
00C0
0180
0180
0300
0300
0600
0600
0C00
0C00
1800
1800
3000
3000
6000
6000
C000
C000
ENDCHAR
STARTCHAR DIGIT
ENCODING 48
SWIDTH 500 0
DWIDTH 12 0
BBX 10 15 1 0
BITMAP
3F00
6180
C0C0
C0C0
C1C0
C3C0
C6C0
CCC0
D8C0
F0C0
E0C0
C0C0
C0C0
6180
3F00
ENDCHAR
STARTCHAR DIGIT
ENCODING 49
SWIDTH 500 0
DWIDTH 12 0
BBX 8 15 2 0
BITMAP
38
78
D8
98
18
18
18
18
18
18
18
18
18
18
FF
ENDCHAR
STARTCHAR DIGIT
ENCODING 50
SWIDTH 500 0
DWIDTH 12 0
BBX 10 15 1 0
BITMAP
3F00
6180
C0C0
00C0
00C0
00C0
0180
0300
0600
0C00
1800
3000
6000
C0C0
FFC0
ENDCHAR
STARTCHAR DIGIT
ENCODING 51
SWIDTH 500 0
DWIDTH 12 0
BBX 10 15 1 0
BITMAP
3F00
6180
C0C0
00C0
00C0
0180
1F00
0180
00C0
00C0
00C0
00C0
C0C0
6180
3F00
ENDCHAR
STARTCHAR DIGIT
ENCODING 52
SWIDTH 500 0
DWIDTH 12 0
BBX 10 15 1 0
BITMAP
C000
C000
C000
C300
C300
C300
C300
C300
C300
C300
FFC0
0300
0300
0300
0300
ENDCHAR
STARTCHAR DIGIT
ENCODING 53
SWIDTH 500 0
DWIDTH 12 0
BBX 10 15 1 0
BITMAP
FFC0
C0C0
C000
C000
C000
C000
FF00
0180
00C0
00C0
00C0
00C0
C0C0
6180
3F00
ENDCHAR
STARTCHAR DIGIT
ENCODING 54
SWIDTH 500 0
DWIDTH 12 0
BBX 10 15 1 0
BITMAP
3F80
60C0
C000
C000
C000
C000
FF00
C180
C0C0
C0C0
C0C0
C0C0
C0C0
6180
3F00
ENDCHAR
STARTCHAR DIGIT
ENCODING 55
SWIDTH 500 0
DWIDTH 12 0
BBX 10 15 1 0
BITMAP
FFC0
C0C0
00C0
00C0
00C0
0180
0300
0600
0C00
1800
1800
1800
1800
1800
1800
ENDCHAR
STARTCHAR DIGIT
ENCODING 56
SWIDTH 500 0
DWIDTH 12 0
BBX 10 15 1 0
BITMAP
3F00
6180
C0C0
C0C0
C0C0
6180
3F00
6180
C0C0
C0C0
C0C0
C0C0
C0C0
6180
3F00
ENDCHAR
STARTCHAR DIGIT
ENCODING 57
SWIDTH 500 0
DWIDTH 12 0
BBX 10 15 1 0
BITMAP
3F00
6180
C0C0
C0C0
C0C0
C0C0
C0C0
60C0
3FC0
00C0
00C0
00C0
00C0
C180
7F00
ENDCHAR
STARTCHAR COLON
ENCODING 58
SWIDTH 500 0
DWIDTH 12 0
BBX 2 9 5 0
BITMAP
C0
C0
00
00
00
00
00
C0
C0
ENDCHAR
STARTCHAR SEMICOLON
ENCODING 59
SWIDTH 500 0
DWIDTH 12 0
BBX 4 11 3 -2
BITMAP
30
30
00
00
00
00
30
30
30
60
C0
ENDCHAR
STARTCHAR LESS-THAN
ENCODING 60
SWIDTH 500 0
DWIDTH 12 0
BBX 9 15 2 0
BITMAP
0180
0300
0600
0C00
1800
3000
6000
C000
6000
3000
1800
0C00
0600
0300
0180
ENDCHAR
STARTCHAR EQUALS
ENCODING 61
SWIDTH 500 0
DWIDTH 12 0
BBX 10 6 1 4
BITMAP
FFC0
0000
0000
0000
0000
FFC0
ENDCHAR
STARTCHAR GREATER-THAN
ENCODING 62
SWIDTH 500 0
DWIDTH 12 0
BBX 9 15 2 0
BITMAP
C000
6000
3000
1800
0C00
0600
0300
0180
0300
0600
0C00
1800
3000
6000
C000
ENDCHAR
STARTCHAR QUESTION
ENCODING 63
SWIDTH 500 0
DWIDTH 12 0
BBX 10 15 1 0
BITMAP
3F00
6180
C0C0
00C0
00C0
0180
0300
0600
0C00
0C00
0C00
0000
0000
0C00
0C00
ENDCHAR
STARTCHAR COMMERCIAL
ENCODING 64
SWIDTH 500 0
DWIDTH 12 0
BBX 10 14 1 0
BITMAP
3F00
6180
C0C0
C0C0
CEC0
CEC0
CEC0
CEC0
CEC0
CEC0
CFC0
C000
6000
3F80
ENDCHAR
STARTCHAR LATIN
ENCODING 65
SWIDTH 500 0
DWIDTH 12 0
BBX 10 15 1 0
BITMAP
3F00
6180
C0C0
C0C0
C0C0
C0C0
C0C0
FFC0
C0C0
C0C0
C0C0
C0C0
C0C0
C0C0
C0C0
ENDCHAR
STARTCHAR LATIN
ENCODING 66
SWIDTH 500 0
DWIDTH 12 0
BBX 10 15 1 0
BITMAP
FF00
C180
C0C0
C0C0
C0C0
C0C0
C180
FF00
C180
C0C0
C0C0
C0C0
C0C0
C180
FF00
ENDCHAR
STARTCHAR LATIN
ENCODING 67
SWIDTH 500 0
DWIDTH 12 0
BBX 10 15 1 0
BITMAP
3FC0
6000
C000
C000
C000
C000
C000
C000
C000
C000
C000
C000
C000
6000
3FC0
ENDCHAR
STARTCHAR LATIN
ENCODING 68
SWIDTH 500 0
DWIDTH 12 0
BBX 10 15 1 0
BITMAP
FF00
C180
C0C0
C0C0
C0C0
C0C0
C0C0
C0C0
C0C0
C0C0
C0C0
C0C0
C0C0
C180
FF00
ENDCHAR
STARTCHAR LATIN
ENCODING 69
SWIDTH 500 0
DWIDTH 12 0
BBX 10 15 1 0
BITMAP
3FC0
6000
C000
C000
C000
C000
C000
FF00
C000
C000
C000
C000
C000
6000
3FC0
ENDCHAR
STARTCHAR LATIN
ENCODING 70
SWIDTH 500 0
DWIDTH 12 0
BBX 10 15 1 0
BITMAP
3FC0
6000
C000
C000
C000
C000
C000
FF00
C000
C000
C000
C000
C000
C000
C000
ENDCHAR
STARTCHAR LATIN
ENCODING 71
SWIDTH 500 0
DWIDTH 12 0
BBX 10 15 1 0
BITMAP
3FC0
6000
C000
C000
C000
C000
C000
C7C0
C0C0
C0C0
C0C0
C0C0
C0C0
60C0
3FC0
ENDCHAR
STARTCHAR LATIN
ENCODING 72
SWIDTH 500 0
DWIDTH 12 0
BBX 10 15 1 0
BITMAP
C0C0
C0C0
C0C0
C0C0
C0C0
C0C0
C0C0
FFC0
C0C0
C0C0
C0C0
C0C0
C0C0
C0C0
C0C0
ENDCHAR
STARTCHAR LATIN
ENCODING 73
SWIDTH 500 0
DWIDTH 12 0
BBX 8 15 2 0
BITMAP
FF
18
18
18
18
18
18
18
18
18
18
18
18
18
FF
ENDCHAR
STARTCHAR LATIN
ENCODING 74
SWIDTH 500 0
DWIDTH 12 0
BBX 9 15 1 0
BITMAP
7F80
0C00
0C00
0C00
0C00
0C00
0C00
0C00
0C00
0C00
0C00
0C00
0C00
1C00
F800
ENDCHAR
STARTCHAR LATIN
ENCODING 75
SWIDTH 500 0
DWIDTH 12 0
BBX 10 15 1 0
BITMAP
C0C0
C0C0
C0C0
C0C0
C0C0
C180
C300
FE00
C300
C180
C0C0
C0C0
C0C0
C0C0
C0C0
ENDCHAR
STARTCHAR LATIN
ENCODING 76
SWIDTH 500 0
DWIDTH 12 0
BBX 10 15 1 0
BITMAP
C000
C000
C000
C000
C000
C000
C000
C000
C000
C000
C000
C000
C000
6000
3FC0
ENDCHAR
STARTCHAR LATIN
ENCODING 77
SWIDTH 500 0
DWIDTH 12 0
BBX 10 15 1 0
BITMAP
C0C0
E1C0
F3C0
DEC0
CCC0
C0C0
C0C0
C0C0
C0C0
C0C0
C0C0
C0C0
C0C0
C0C0
C0C0
ENDCHAR
STARTCHAR LATIN
ENCODING 78
SWIDTH 500 0
DWIDTH 12 0
BBX 10 15 1 0
BITMAP
C0C0
E0C0
E0C0
F0C0
F0C0
D8C0
D8C0
CCC0
CCC0
C6C0
C6C0
C3C0
C3C0
C1C0
C1C0
ENDCHAR
STARTCHAR LATIN
ENCODING 79
SWIDTH 500 0
DWIDTH 12 0
BBX 10 15 1 0
BITMAP
3F00
6180
C0C0
C0C0
C0C0
C0C0
C0C0
C0C0
C0C0
C0C0
C0C0
C0C0
C0C0
6180
3F00
ENDCHAR
STARTCHAR LATIN
ENCODING 80
SWIDTH 500 0
DWIDTH 12 0
BBX 10 15 1 0
BITMAP
FF00
C180
C0C0
C0C0
C0C0
C0C0
C180
FF00
C000
C000
C000
C000
C000
C000
C000
ENDCHAR
STARTCHAR LATIN
ENCODING 81
SWIDTH 500 0
DWIDTH 12 0
BBX 10 18 1 -3
BITMAP
3F00
6180
C0C0
C0C0
C0C0
C0C0
C0C0
C0C0
C0C0
C0C0
CCC0
CCC0
C6C0
6780
3F00
0300
0180
0180
ENDCHAR
STARTCHAR LATIN
ENCODING 82
SWIDTH 500 0
DWIDTH 12 0
BBX 10 15 1 0
BITMAP
FF00
C180
C0C0
C0C0
C0C0
C0C0
C180
FF00
C180
C0C0
C0C0
C0C0
C0C0
C0C0
C0C0
ENDCHAR
STARTCHAR LATIN
ENCODING 83
SWIDTH 500 0
DWIDTH 12 0
BBX 10 15 1 0
BITMAP
3FC0
6000
C000
C000
C000
C000
6000
3F00
0180
00C0
00C0
00C0
00C0
0180
FF00
ENDCHAR
STARTCHAR LATIN
ENCODING 84
SWIDTH 500 0
DWIDTH 12 0
BBX 10 15 1 0
BITMAP
FFC0
0C00
0C00
0C00
0C00
0C00
0C00
0C00
0C00
0C00
0C00
0C00
0C00
0C00
0C00
ENDCHAR
STARTCHAR LATIN
ENCODING 85
SWIDTH 500 0
DWIDTH 12 0
BBX 10 15 1 0
BITMAP
C0C0
C0C0
C0C0
C0C0
C0C0
C0C0
C0C0
C0C0
C0C0
C0C0
C0C0
C0C0
C0C0
60C0
3FC0
ENDCHAR
STARTCHAR LATIN
ENCODING 86
SWIDTH 500 0
DWIDTH 12 0
BBX 10 15 1 0
BITMAP
C0C0
C0C0
C0C0
C0C0
C0C0
C0C0
C0C0
C0C0
C0C0
C0C0
6180
6180
3300
1E00
0C00
ENDCHAR
STARTCHAR LATIN
ENCODING 87
SWIDTH 500 0
DWIDTH 12 0
BBX 10 15 1 0
BITMAP
C0C0
C0C0
C0C0
C0C0
C0C0
C0C0
C0C0
C0C0
C0C0
C0C0
CCC0
DEC0
F3C0
E1C0
C0C0
ENDCHAR
STARTCHAR LATIN
ENCODING 88
SWIDTH 500 0
DWIDTH 12 0
BBX 10 15 1 0
BITMAP
C0C0
C0C0
C0C0
C0C0
C0C0
C0C0
6180
3F00
6180
C0C0
C0C0
C0C0
C0C0
C0C0
C0C0
ENDCHAR
STARTCHAR LATIN
ENCODING 89
SWIDTH 500 0
DWIDTH 12 0
BBX 10 15 1 0
BITMAP
C0C0
C0C0
C0C0
C0C0
C0C0
C0C0
60C0
3FC0
00C0
00C0
00C0
00C0
00C0
01C0
FF80
ENDCHAR
STARTCHAR LATIN
ENCODING 90
SWIDTH 500 0
DWIDTH 12 0
BBX 10 15 1 0
BITMAP
FFC0
00C0
00C0
00C0
0180
0300
0600
0C00
1800
3000
6000
C000
C000
C000
FFC0
ENDCHAR
STARTCHAR LEFT
ENCODING 91
SWIDTH 500 0
DWIDTH 12 0
BBX 8 22 3 -4
BITMAP
FF
C0
C0
C0
C0
C0
C0
C0
C0
C0
C0
C0
C0
C0
C0
C0
C0
C0
C0
C0
C0
FF
ENDCHAR
STARTCHAR REVERSE
ENCODING 92
SWIDTH 500 0
DWIDTH 12 0
BBX 11 20 0 -3
BITMAP
C000
C000
6000
6000
3000
3000
1800
1800
0C00
0C00
0600
0600
0300
0300
0180
0180
00C0
00C0
0060
0060
ENDCHAR
STARTCHAR RIGHT
ENCODING 93
SWIDTH 500 0
DWIDTH 12 0
BBX 8 22 1 -4
BITMAP
FF
03
03
03
03
03
03
03
03
03
03
03
03
03
03
03
03
03
03
03
03
FF
ENDCHAR
STARTCHAR CIRCUMFLEX
ENCODING 94
SWIDTH 500 0
DWIDTH 12 0
BBX 11 6 0 11
BITMAP
0400
0E00
1B00
3180
60C0
C060
ENDCHAR
STARTCHAR LOW
ENCODING 95
SWIDTH 500 0
DWIDTH 12 0
BBX 10 1 1 -4
BITMAP
FFC0
ENDCHAR
STARTCHAR GRAVE
ENCODING 96
SWIDTH 500 0
DWIDTH 12 0
BBX 5 4 3 13
BITMAP
C0
60
30
18
ENDCHAR
STARTCHAR LATIN
ENCODING 97
SWIDTH 500 0
DWIDTH 12 0
BBX 10 11 1 0
BITMAP
7F00
0180
00C0
00C0
3FC0
60C0
C0C0
C0C0
C0C0
60C0
3FC0
ENDCHAR
STARTCHAR LATIN
ENCODING 98
SWIDTH 500 0
DWIDTH 12 0
BBX 10 15 1 0
BITMAP
C000
C000
C000
C000
FF00
C180
C0C0
C0C0
C0C0
C0C0
C0C0
C0C0
C0C0
C180
FF00
ENDCHAR
STARTCHAR LATIN
ENCODING 99
SWIDTH 500 0
DWIDTH 12 0
BBX 10 11 1 0
BITMAP
3FC0
6000
C000
C000
C000
C000
C000
C000
C000
6000
3FC0
ENDCHAR
STARTCHAR LATIN
ENCODING 100
SWIDTH 500 0
DWIDTH 12 0
BBX 10 15 1 0
BITMAP
00C0
00C0
00C0
00C0
3FC0
60C0
C0C0
C0C0
C0C0
C0C0
C0C0
C0C0
C0C0
60C0
3FC0
ENDCHAR
STARTCHAR LATIN
ENCODING 101
SWIDTH 500 0
DWIDTH 12 0
BBX 10 11 1 0
BITMAP
3FC0
60C0
C0C0
C0C0
C0C0
FFC0
C000
C000
C000
6000
3FC0
ENDCHAR
STARTCHAR LATIN
ENCODING 102
SWIDTH 500 0
DWIDTH 12 0
BBX 8 15 2 0
BITMAP
1F
38
30
30
30
30
FE
30
30
30
30
30
30
30
30
ENDCHAR
STARTCHAR LATIN
ENCODING 103
SWIDTH 500 0
DWIDTH 12 0
BBX 10 16 1 -5
BITMAP
3FC0
60C0
C0C0
C0C0
C0C0
C0C0
C0C0
C0C0
C0C0
60C0
3F80
0180
00C0
00C0
0180
7F00
ENDCHAR
STARTCHAR LATIN
ENCODING 104
SWIDTH 500 0
DWIDTH 12 0
BBX 10 15 1 0
BITMAP
C000
C000
C000
C000
FF00
C180
C0C0
C0C0
C0C0
C0C0
C0C0
C0C0
C0C0
C0C0
C0C0
ENDCHAR
STARTCHAR LATIN
ENCODING 105
SWIDTH 500 0
DWIDTH 12 0
BBX 6 15 3 0
BITMAP
30
30
00
00
F0
30
30
30
30
30
30
30
30
30
3C
ENDCHAR
STARTCHAR LATIN
ENCODING 106
SWIDTH 500 0
DWIDTH 12 0
BBX 6 20 1 -5
BITMAP
0C
0C
00
00
0C
0C
0C
0C
0C
0C
0C
0C
0C
0C
0C
0C
0C
0C
18
F0
ENDCHAR
STARTCHAR LATIN
ENCODING 107
SWIDTH 500 0
DWIDTH 12 0
BBX 9 15 2 0
BITMAP
C000
C000
C000
C000
C300
C300
C600
CC00
F800
D800
CC00
C600
C300
C180
C180
ENDCHAR
STARTCHAR LATIN
ENCODING 108
SWIDTH 500 0
DWIDTH 12 0
BBX 6 15 4 0
BITMAP
C0
C0
C0
C0
C0
C0
C0
C0
C0
C0
C0
C0
C0
E0
7C
ENDCHAR
STARTCHAR LATIN
ENCODING 109
SWIDTH 500 0
DWIDTH 12 0
BBX 10 11 1 0
BITMAP
F300
CD80
CCC0
CCC0
CCC0
CCC0
CCC0
CCC0
C0C0
C0C0
C0C0
ENDCHAR
STARTCHAR LATIN
ENCODING 110
SWIDTH 500 0
DWIDTH 12 0
BBX 10 11 1 0
BITMAP
FF00
C180
C0C0
C0C0
C0C0
C0C0
C0C0
C0C0
C0C0
C0C0
C0C0
ENDCHAR
STARTCHAR LATIN
ENCODING 111
SWIDTH 500 0
DWIDTH 12 0
BBX 10 11 1 0
BITMAP
3F00
6180
C0C0
C0C0
C0C0
C0C0
C0C0
C0C0
C0C0
6180
3F00
ENDCHAR
STARTCHAR LATIN
ENCODING 112
SWIDTH 500 0
DWIDTH 12 0
BBX 10 16 1 -5
BITMAP
FF00
C180
C0C0
C0C0
C0C0
C0C0
C0C0
C0C0
C0C0
C180
FF00
C000
C000
C000
C000
C000
ENDCHAR
STARTCHAR LATIN
ENCODING 113
SWIDTH 500 0
DWIDTH 12 0
BBX 10 16 1 -5
BITMAP
3FC0
60C0
C0C0
C0C0
C0C0
C0C0
C0C0
C0C0
C0C0
60C0
3FC0
00C0
00C0
00C0
00C0
00C0
ENDCHAR
STARTCHAR LATIN
ENCODING 114
SWIDTH 500 0
DWIDTH 12 0
BBX 10 11 1 0
BITMAP
3FC0
60C0
C000
C000
C000
C000
C000
C000
C000
C000
C000
ENDCHAR
STARTCHAR LATIN
ENCODING 115
SWIDTH 500 0
DWIDTH 12 0
BBX 10 11 1 0
BITMAP
7FC0
C000
C000
C000
C000
7F80
00C0
00C0
00C0
00C0
FF80
ENDCHAR
STARTCHAR LATIN
ENCODING 116
SWIDTH 500 0
DWIDTH 12 0
BBX 8 15 2 0
BITMAP
30
30
30
30
FE
30
30
30
30
30
30
30
30
38
1F
ENDCHAR
STARTCHAR LATIN
ENCODING 117
SWIDTH 500 0
DWIDTH 12 0
BBX 10 11 1 0
BITMAP
C0C0
C0C0
C0C0
C0C0
C0C0
C0C0
C0C0
C0C0
C0C0
60C0
3FC0
ENDCHAR
STARTCHAR LATIN
ENCODING 118
SWIDTH 500 0
DWIDTH 12 0
BBX 10 11 1 0
BITMAP
C0C0
C0C0
C0C0
C0C0
C0C0
C0C0
6180
6180
3300
1E00
0C00
ENDCHAR
STARTCHAR LATIN
ENCODING 119
SWIDTH 500 0
DWIDTH 12 0
BBX 10 11 1 0
BITMAP
C0C0
C0C0
C0C0
CCC0
CCC0
CCC0
CCC0
CCC0
CCC0
6CC0
33C0
ENDCHAR
STARTCHAR LATIN
ENCODING 120
SWIDTH 500 0
DWIDTH 12 0
BBX 10 11 1 0
BITMAP
C0C0
C0C0
6180
3300
1E00
1E00
3300
6180
6180
C0C0
C0C0
ENDCHAR
STARTCHAR LATIN
ENCODING 121
SWIDTH 500 0
DWIDTH 12 0
BBX 10 16 1 -5
BITMAP
C0C0
C0C0
C0C0
C0C0
C0C0
C0C0
C0C0
C0C0
C0C0
60C0
3FC0
00C0
00C0
00C0
0180
FF00
ENDCHAR
STARTCHAR LATIN
ENCODING 122
SWIDTH 500 0
DWIDTH 12 0
BBX 10 11 1 0
BITMAP
FFC0
00C0
0180
0300
0600
0C00
1800
3000
6000
C000
FFC0
ENDCHAR
STARTCHAR LEFT
ENCODING 123
SWIDTH 500 0
DWIDTH 12 0
BBX 9 22 2 -4
BITMAP
0780
0C00
1800
1800
1800
1800
1800
1800
1800
3000
E000
E000
3000
1800
1800
1800
1800
1800
1800
1800
0C00
0780
ENDCHAR
STARTCHAR VERTICAL
ENCODING 124
SWIDTH 500 0
DWIDTH 12 0
BBX 2 18 5 -2
BITMAP
C0
C0
C0
C0
C0
C0
C0
C0
C0
C0
C0
C0
C0
C0
C0
C0
C0
C0
ENDCHAR
STARTCHAR RIGHT
ENCODING 125
SWIDTH 500 0
DWIDTH 12 0
BBX 9 22 2 -4
BITMAP
F000
1800
0C00
0C00
0C00
0C00
0C00
0C00
0C00
0600
0380
0380
0600
0C00
0C00
0C00
0C00
0C00
0C00
0C00
1800
F000
ENDCHAR
STARTCHAR TILDE
ENCODING 126
SWIDTH 500 0
DWIDTH 12 0
BBX 11 4 0 5
BITMAP
3860
6C60
C6C0
C380
ENDCHAR
STARTCHAR control
ENCODING 127
SWIDTH 500 0
DWIDTH 12 0
BBX 1 1 11 -5
BITMAP
00
ENDCHAR
STARTCHAR NO-BREAK
ENCODING 160
SWIDTH 500 0
DWIDTH 12 0
BBX 1 1 11 -5
BITMAP
00
ENDCHAR
STARTCHAR INVERTED
ENCODING 161
SWIDTH 500 0
DWIDTH 12 0
BBX 2 15 5 0
BITMAP
C0
C0
00
00
C0
C0
C0
C0
C0
C0
C0
C0
C0
C0
C0
ENDCHAR
STARTCHAR CENT
ENCODING 162
SWIDTH 500 0
DWIDTH 12 0
BBX 10 15 1 -2
BITMAP
0600
0600
3FC0
6600
C600
C600
C600
C600
C600
C600
C600
6600
3FC0
0600
0600
ENDCHAR
STARTCHAR POUND
ENCODING 163
SWIDTH 500 0
DWIDTH 12 0
BBX 10 15 1 0
BITMAP
0E00
1B00
3180
3180
3000
3000
3000
FF00
3000
3000
3000
3000
6000
6000
FFC0
ENDCHAR
STARTCHAR CURRENCY
ENCODING 164
SWIDTH 500 0
DWIDTH 12 0
BBX 8 12 2 1
BITMAP
C3
66
3C
7E
C3
C3
C3
C3
7E
3C
66
C3
ENDCHAR
STARTCHAR YEN
ENCODING 165
SWIDTH 500 0
DWIDTH 12 0
BBX 10 15 1 0
BITMAP
C0C0
C0C0
6180
6180
3300
3300
1E00
1E00
0C00
7F80
0C00
0C00
7F80
0C00
0C00
ENDCHAR
STARTCHAR BROKEN
ENCODING 166
SWIDTH 500 0
DWIDTH 12 0
BBX 2 18 5 -2
BITMAP
C0
C0
C0
C0
C0
C0
C0
C0
00
00
C0
C0
C0
C0
C0
C0
C0
C0
ENDCHAR
STARTCHAR SECTION
ENCODING 167
SWIDTH 500 0
DWIDTH 12 0
BBX 8 18 2 -2
BITMAP
3E
66
C6
C0
60
38
7E
C3
C3
C3
C3
7E
1C
06
03
63
66
7C
ENDCHAR
STARTCHAR DIAERESIS
ENCODING 168
SWIDTH 500 0
DWIDTH 12 0
BBX 8 2 2 14
BITMAP
C3
C3
ENDCHAR
STARTCHAR COPYRIGHT
ENCODING 169
SWIDTH 500 0
DWIDTH 12 0
BBX 10 12 1 0
BITMAP
3F00
6180
C0C0
CEC0
D8C0
D8C0
D8C0
D8C0
CEC0
C0C0
6180
3F00
ENDCHAR
STARTCHAR FEMININE
ENCODING 170
SWIDTH 500 0
DWIDTH 12 0
BBX 6 9 3 8
BITMAP
78
0C
0C
7C
CC
CC
7C
00
FC
ENDCHAR
STARTCHAR LEFT-POINTING
ENCODING 171
SWIDTH 500 0
DWIDTH 12 0
BBX 10 9 1 1
BITMAP
0CC0
1980
3300
6600
CC00
6600
3300
1980
0CC0
ENDCHAR
STARTCHAR NOT
ENCODING 172
SWIDTH 500 0
DWIDTH 12 0
BBX 10 6 1 4
BITMAP
FFC0
00C0
00C0
00C0
00C0
00C0
ENDCHAR
STARTCHAR SOFT
ENCODING 173
SWIDTH 500 0
DWIDTH 12 0
BBX 6 1 3 6
BITMAP
FC
ENDCHAR
STARTCHAR REGISTERED
ENCODING 174
SWIDTH 500 0
DWIDTH 12 0
BBX 10 12 1 0
BITMAP
3F00
6180
C0C0
DCC0
DAC0
DAC0
DCC0
DAC0
DAC0
C0C0
6180
3F00
ENDCHAR
STARTCHAR MACRON
ENCODING 175
SWIDTH 500 0
DWIDTH 12 0
BBX 6 1 3 16
BITMAP
FC
ENDCHAR
STARTCHAR DEGREE
ENCODING 176
SWIDTH 500 0
DWIDTH 12 0
BBX 6 6 3 10
BITMAP
78
CC
CC
CC
CC
78
ENDCHAR
STARTCHAR PLUS-MINUS
ENCODING 177
SWIDTH 500 0
DWIDTH 12 0
BBX 8 10 2 2
BITMAP
18
18
18
FF
18
18
18
00
00
FF
ENDCHAR
STARTCHAR SUPERSCRIPT
ENCODING 178
SWIDTH 500 0
DWIDTH 12 0
BBX 6 8 3 8
BITMAP
78
CC
0C
18
30
60
CC
FC
ENDCHAR
STARTCHAR SUPERSCRIPT
ENCODING 179
SWIDTH 500 0
DWIDTH 12 0
BBX 6 8 3 8
BITMAP
78
CC
0C
38
0C
0C
CC
78
ENDCHAR
STARTCHAR ACUTE
ENCODING 180
SWIDTH 500 0
DWIDTH 12 0
BBX 5 4 4 13
BITMAP
18
30
60
C0
ENDCHAR
STARTCHAR MICRO
ENCODING 181
SWIDTH 500 0
DWIDTH 12 0
BBX 10 16 1 -5
BITMAP
C300
C300
C300
C300
C300
C300
C300
C300
C300
E780
DCC0
C000
C000
C000
C000
C000
ENDCHAR
STARTCHAR PILCROW
ENCODING 182
SWIDTH 500 0
DWIDTH 12 0
BBX 10 15 1 0
BITMAP
3FC0
6CC0
CCC0
CCC0
CCC0
CCC0
6CC0
3CC0
0CC0
0CC0
0CC0
0CC0
0CC0
0CC0
0CC0
ENDCHAR
STARTCHAR MIDDLE
ENCODING 183
SWIDTH 500 0
DWIDTH 12 0
BBX 2 2 5 6
BITMAP
C0
C0
ENDCHAR
STARTCHAR CEDILLA
ENCODING 184
SWIDTH 500 0
DWIDTH 12 0
BBX 4 5 4 -5
BITMAP
30
30
30
60
C0
ENDCHAR
STARTCHAR SUPERSCRIPT
ENCODING 185
SWIDTH 500 0
DWIDTH 12 0
BBX 5 8 3 8
BITMAP
30
70
F0
30
30
30
30
78
ENDCHAR
STARTCHAR MASCULINE
ENCODING 186
SWIDTH 500 0
DWIDTH 12 0
BBX 6 8 3 8
BITMAP
78
CC
CC
CC
CC
78
00
FC
ENDCHAR
STARTCHAR RIGHT-POINTING
ENCODING 187
SWIDTH 500 0
DWIDTH 12 0
BBX 10 9 1 1
BITMAP
CC00
6600
3300
1980
0CC0
1980
3300
6600
CC00
ENDCHAR
STARTCHAR VULGAR
ENCODING 188
SWIDTH 500 0
DWIDTH 12 0
BBX 10 20 1 -3
BITMAP
3000
7000
F000
3000
3000
30C0
3180
7B00
0600
0C00
1800
3000
6000
CC00
0C00
0D80
0D80
0FC0
0180
0180
ENDCHAR
STARTCHAR VULGAR
ENCODING 189
SWIDTH 500 0
DWIDTH 12 0
BBX 10 20 1 -3
BITMAP
3000
7000
F000
3000
3000
30C0
3180
7B00
0600
0C00
1800
3000
6780
CCC0
00C0
0180
0300
0600
0CC0
0FC0
ENDCHAR
STARTCHAR VULGAR
ENCODING 190
SWIDTH 500 0
DWIDTH 12 0
BBX 10 20 1 -3
BITMAP
7800
CC00
0C00
3800
0C00
CCC0
7980
0300
0600
0C00
1800
3000
6000
CC00
0C00
0D80
0D80
0FC0
0180
0180
ENDCHAR
STARTCHAR INVERTED
ENCODING 191
SWIDTH 500 0
DWIDTH 12 0
BBX 10 15 1 0
BITMAP
0C00
0C00
0000
0000
0C00
0C00
0C00
1800
3000
6000
C000
C000
C0C0
6180
3F00
ENDCHAR
STARTCHAR LATIN
ENCODING 192
SWIDTH 500 0
DWIDTH 12 0
BBX 10 19 1 0
BITMAP
3000
1800
0C00
0000
3F00
6180
C0C0
C0C0
C0C0
C0C0
C0C0
FFC0
C0C0
C0C0
C0C0
C0C0
C0C0
C0C0
C0C0
ENDCHAR
STARTCHAR LATIN
ENCODING 193
SWIDTH 500 0
DWIDTH 12 0
BBX 10 19 1 0
BITMAP
0300
0600
0C00
0000
3F00
6180
C0C0
C0C0
C0C0
C0C0
C0C0
FFC0
C0C0
C0C0
C0C0
C0C0
C0C0
C0C0
C0C0
ENDCHAR
STARTCHAR LATIN
ENCODING 194
SWIDTH 500 0
DWIDTH 12 0
BBX 10 19 1 0
BITMAP
1E00
3300
6180
0000
3F00
6180
C0C0
C0C0
C0C0
C0C0
C0C0
FFC0
C0C0
C0C0
C0C0
C0C0
C0C0
C0C0
C0C0
ENDCHAR
STARTCHAR LATIN
ENCODING 195
SWIDTH 500 0
DWIDTH 12 0
BBX 10 19 1 0
BITMAP
38C0
7F80
C700
0000
3F00
6180
C0C0
C0C0
C0C0
C0C0
C0C0
FFC0
C0C0
C0C0
C0C0
C0C0
C0C0
C0C0
C0C0
ENDCHAR
STARTCHAR LATIN
ENCODING 196
SWIDTH 500 0
DWIDTH 12 0
BBX 10 18 1 0
BITMAP
6180
6180
0000
3F00
6180
C0C0
C0C0
C0C0
C0C0
C0C0
FFC0
C0C0
C0C0
C0C0
C0C0
C0C0
C0C0
C0C0
ENDCHAR
STARTCHAR LATIN
ENCODING 197
SWIDTH 500 0
DWIDTH 12 0
BBX 10 19 1 0
BITMAP
1E00
3300
3300
1E00
3F00
6180
C0C0
C0C0
C0C0
C0C0
C0C0
FFC0
C0C0
C0C0
C0C0
C0C0
C0C0
C0C0
C0C0
ENDCHAR
STARTCHAR LATIN
ENCODING 198
SWIDTH 500 0
DWIDTH 12 0
BBX 10 15 1 0
BITMAP
3FC0
6600
C600
C600
C600
C600
C600
FF80
C600
C600
C600
C600
C600
C600
C7C0
ENDCHAR
STARTCHAR LATIN
ENCODING 199
SWIDTH 500 0
DWIDTH 12 0
BBX 10 20 1 -5
BITMAP
3FC0
6000
C000
C000
C000
C000
C000
C000
C000
C000
C000
C000
C000
6000
3FC0
0600
0600
0600
0C00
1800
ENDCHAR
STARTCHAR LATIN
ENCODING 200
SWIDTH 500 0
DWIDTH 12 0
BBX 10 19 1 0
BITMAP
3000
1800
0C00
0000
3FC0
6000
C000
C000
C000
C000
C000
FF00
C000
C000
C000
C000
C000
6000
3FC0
ENDCHAR
STARTCHAR LATIN
ENCODING 201
SWIDTH 500 0
DWIDTH 12 0
BBX 10 19 1 0
BITMAP
0300
0600
0C00
0000
3FC0
6000
C000
C000
C000
C000
C000
FF00
C000
C000
C000
C000
C000
6000
3FC0
ENDCHAR
STARTCHAR LATIN
ENCODING 202
SWIDTH 500 0
DWIDTH 12 0
BBX 10 19 1 0
BITMAP
1E00
3300
6180
0000
3FC0
6000
C000
C000
C000
C000
C000
FF00
C000
C000
C000
C000
C000
6000
3FC0
ENDCHAR
STARTCHAR LATIN
ENCODING 203
SWIDTH 500 0
DWIDTH 12 0
BBX 10 18 1 0
BITMAP
6180
6180
0000
3FC0
6000
C000
C000
C000
C000
C000
FF00
C000
C000
C000
C000
C000
6000
3FC0
ENDCHAR
STARTCHAR LATIN
ENCODING 204
SWIDTH 500 0
DWIDTH 12 0
BBX 8 19 2 0
BITMAP
30
18
0C
00
FF
18
18
18
18
18
18
18
18
18
18
18
18
18
FF
ENDCHAR
STARTCHAR LATIN
ENCODING 205
SWIDTH 500 0
DWIDTH 12 0
BBX 8 19 2 0
BITMAP
0C
18
30
00
FF
18
18
18
18
18
18
18
18
18
18
18
18
18
FF
ENDCHAR
STARTCHAR LATIN
ENCODING 206
SWIDTH 500 0
DWIDTH 12 0
BBX 8 19 2 0
BITMAP
3C
66
C3
00
FF
18
18
18
18
18
18
18
18
18
18
18
18
18
FF
ENDCHAR
STARTCHAR LATIN
ENCODING 207
SWIDTH 500 0
DWIDTH 12 0
BBX 8 18 2 0
BITMAP
C3
C3
00
FF
18
18
18
18
18
18
18
18
18
18
18
18
18
FF
ENDCHAR
STARTCHAR LATIN
ENCODING 208
SWIDTH 500 0
DWIDTH 12 0
BBX 11 15 0 0
BITMAP
7FC0
60E0
6060
6060
6060
6060
6060
FC60
6060
6060
6060
6060
6060
60E0
7FC0
ENDCHAR
STARTCHAR LATIN
ENCODING 209
SWIDTH 500 0
DWIDTH 12 0
BBX 10 19 1 0
BITMAP
38C0
7F80
C700
0000
C0C0
E0C0
E0C0
F0C0
F0C0
D8C0
D8C0
CCC0
CCC0
C6C0
C6C0
C3C0
C3C0
C1C0
C1C0
ENDCHAR
STARTCHAR LATIN
ENCODING 210
SWIDTH 500 0
DWIDTH 12 0
BBX 10 19 1 0
BITMAP
3000
1800
0C00
0000
3F00
6180
C0C0
C0C0
C0C0
C0C0
C0C0
C0C0
C0C0
C0C0
C0C0
C0C0
C0C0
6180
3F00
ENDCHAR
STARTCHAR LATIN
ENCODING 211
SWIDTH 500 0
DWIDTH 12 0
BBX 10 19 1 0
BITMAP
0300
0600
0C00
0000
3F00
6180
C0C0
C0C0
C0C0
C0C0
C0C0
C0C0
C0C0
C0C0
C0C0
C0C0
C0C0
6180
3F00
ENDCHAR
STARTCHAR LATIN
ENCODING 212
SWIDTH 500 0
DWIDTH 12 0
BBX 10 19 1 0
BITMAP
1E00
3300
6180
0000
3F00
6180
C0C0
C0C0
C0C0
C0C0
C0C0
C0C0
C0C0
C0C0
C0C0
C0C0
C0C0
6180
3F00
ENDCHAR
STARTCHAR LATIN
ENCODING 213
SWIDTH 500 0
DWIDTH 12 0
BBX 10 19 1 0
BITMAP
38C0
7F80
C700
0000
3F00
6180
C0C0
C0C0
C0C0
C0C0
C0C0
C0C0
C0C0
C0C0
C0C0
C0C0
C0C0
6180
3F00
ENDCHAR
STARTCHAR LATIN
ENCODING 214
SWIDTH 500 0
DWIDTH 12 0
BBX 10 18 1 0
BITMAP
6180
6180
0000
3F00
6180
C0C0
C0C0
C0C0
C0C0
C0C0
C0C0
C0C0
C0C0
C0C0
C0C0
C0C0
6180
3F00
ENDCHAR
STARTCHAR MULTIPLICATION
ENCODING 215
SWIDTH 500 0
DWIDTH 12 0
BBX 10 10 1 2
BITMAP
C0C0
6180
3300
1E00
0C00
0C00
1E00
3300
6180
C0C0
ENDCHAR
STARTCHAR LATIN
ENCODING 216
SWIDTH 500 0
DWIDTH 12 0
BBX 10 18 1 -2
BITMAP
00C0
3FC0
6180
C1C0
C3C0
C3C0
C6C0
C6C0
CCC0
CCC0
D8C0
D8C0
F0C0
F0C0
6180
7F00
C000
C000
ENDCHAR
STARTCHAR LATIN
ENCODING 217
SWIDTH 500 0
DWIDTH 12 0
BBX 10 19 1 0
BITMAP
3000
1800
0C00
0000
C0C0
C0C0
C0C0
C0C0
C0C0
C0C0
C0C0
C0C0
C0C0
C0C0
C0C0
C0C0
C0C0
60C0
3FC0
ENDCHAR
STARTCHAR LATIN
ENCODING 218
SWIDTH 500 0
DWIDTH 12 0
BBX 10 19 1 0
BITMAP
0300
0600
0C00
0000
C0C0
C0C0
C0C0
C0C0
C0C0
C0C0
C0C0
C0C0
C0C0
C0C0
C0C0
C0C0
C0C0
60C0
3FC0
ENDCHAR
STARTCHAR LATIN
ENCODING 219
SWIDTH 500 0
DWIDTH 12 0
BBX 10 19 1 0
BITMAP
1E00
3300
6180
0000
C0C0
C0C0
C0C0
C0C0
C0C0
C0C0
C0C0
C0C0
C0C0
C0C0
C0C0
C0C0
C0C0
60C0
3FC0
ENDCHAR
STARTCHAR LATIN
ENCODING 220
SWIDTH 500 0
DWIDTH 12 0
BBX 10 18 1 0
BITMAP
6180
6180
0000
C0C0
C0C0
C0C0
C0C0
C0C0
C0C0
C0C0
C0C0
C0C0
C0C0
C0C0
C0C0
C0C0
60C0
3FC0
ENDCHAR
STARTCHAR LATIN
ENCODING 221
SWIDTH 500 0
DWIDTH 12 0
BBX 10 19 1 0
BITMAP
0300
0600
0C00
0000
C0C0
C0C0
C0C0
C0C0
C0C0
C0C0
60C0
3FC0
00C0
00C0
00C0
00C0
00C0
01C0
FF80
ENDCHAR
STARTCHAR LATIN
ENCODING 222
SWIDTH 500 0
DWIDTH 12 0
BBX 10 17 1 -3
BITMAP
C000
C000
C000
FF00
C180
C0C0
C0C0
C0C0
C0C0
C0C0
C0C0
C0C0
C180
FF00
C000
C000
C000
ENDCHAR
STARTCHAR LATIN
ENCODING 223
SWIDTH 500 0
DWIDTH 12 0
BBX 10 16 1 -1
BITMAP
3C00
6600
C300
C300
C300
C300
C600
DE00
C700
C180
C0C0
C0C0
C0C0
D0C0
D980
CF00
ENDCHAR
STARTCHAR LATIN
ENCODING 224
SWIDTH 500 0
DWIDTH 12 0
BBX 10 17 1 0
BITMAP
3000
1800
0C00
0600
0000
0000
7F00
0180
00C0
00C0
3FC0
60C0
C0C0
C0C0
C0C0
60C0
3FC0
ENDCHAR
STARTCHAR LATIN
ENCODING 225
SWIDTH 500 0
DWIDTH 12 0
BBX 10 17 1 0
BITMAP
0300
0600
0C00
1800
0000
0000
7F00
0180
00C0
00C0
3FC0
60C0
C0C0
C0C0
C0C0
60C0
3FC0
ENDCHAR
STARTCHAR LATIN
ENCODING 226
SWIDTH 500 0
DWIDTH 12 0
BBX 10 17 1 0
BITMAP
0C00
1E00
3300
6180
0000
0000
7F00
0180
00C0
00C0
3FC0
60C0
C0C0
C0C0
C0C0
60C0
3FC0
ENDCHAR
STARTCHAR LATIN
ENCODING 227
SWIDTH 500 0
DWIDTH 12 0
BBX 10 17 1 0
BITMAP
30C0
78C0
CD80
C700
0000
0000
7F00
0180
00C0
00C0
3FC0
60C0
C0C0
C0C0
C0C0
60C0
3FC0
ENDCHAR
STARTCHAR LATIN
ENCODING 228
SWIDTH 500 0
DWIDTH 12 0
BBX 10 16 1 0
BITMAP
6180
6180
0000
0000
0000
7F00
0180
00C0
00C0
3FC0
60C0
C0C0
C0C0
C0C0
60C0
3FC0
ENDCHAR
STARTCHAR LATIN
ENCODING 229
SWIDTH 500 0
DWIDTH 12 0
BBX 10 17 1 0
BITMAP
1E00
3300
3300
1E00
0000
0000
7F00
0180
00C0
00C0
3FC0
60C0
C0C0
C0C0
C0C0
60C0
3FC0
ENDCHAR
STARTCHAR LATIN
ENCODING 230
SWIDTH 500 0
DWIDTH 12 0
BBX 10 11 1 0
BITMAP
73C0
1EC0
0CC0
0CC0
3FC0
6C00
CC00
CC00
CC00
6E00
3BC0
ENDCHAR
STARTCHAR LATIN
ENCODING 231
SWIDTH 500 0
DWIDTH 12 0
BBX 10 16 1 -5
BITMAP
3FC0
6000
C000
C000
C000
C000
C000
C000
C000
6000
3FC0
0600
0600
0600
0C00
1800
ENDCHAR
STARTCHAR LATIN
ENCODING 232
SWIDTH 500 0
DWIDTH 12 0
BBX 10 17 1 0
BITMAP
3000
1800
0C00
0600
0000
0000
3FC0
60C0
C0C0
C0C0
C0C0
FFC0
C000
C000
C000
6000
3FC0
ENDCHAR
STARTCHAR LATIN
ENCODING 233
SWIDTH 500 0
DWIDTH 12 0
BBX 10 17 1 0
BITMAP
0300
0600
0C00
1800
0000
0000
3FC0
60C0
C0C0
C0C0
C0C0
FFC0
C000
C000
C000
6000
3FC0
ENDCHAR
STARTCHAR LATIN
ENCODING 234
SWIDTH 500 0
DWIDTH 12 0
BBX 10 17 1 0
BITMAP
0C00
1E00
3300
6180
0000
0000
3FC0
60C0
C0C0
C0C0
C0C0
FFC0
C000
C000
C000
6000
3FC0
ENDCHAR
STARTCHAR LATIN
ENCODING 235
SWIDTH 500 0
DWIDTH 12 0
BBX 10 16 1 0
BITMAP
6180
6180
0000
0000
0000
3FC0
60C0
C0C0
C0C0
C0C0
FFC0
C000
C000
C000
6000
3FC0
ENDCHAR
STARTCHAR LATIN
ENCODING 236
SWIDTH 500 0
DWIDTH 12 0
BBX 6 17 3 0
BITMAP
C0
60
30
18
00
00
F0
30
30
30
30
30
30
30
30
30
3C
ENDCHAR
STARTCHAR LATIN
ENCODING 237
SWIDTH 500 0
DWIDTH 12 0
BBX 6 17 3 0
BITMAP
0C
18
30
60
00
00
F0
30
30
30
30
30
30
30
30
30
3C
ENDCHAR
STARTCHAR LATIN
ENCODING 238
SWIDTH 500 0
DWIDTH 12 0
BBX 8 17 2 0
BITMAP
18
3C
66
C3
00
00
78
18
18
18
18
18
18
18
18
18
1E
ENDCHAR
STARTCHAR LATIN
ENCODING 239
SWIDTH 500 0
DWIDTH 12 0
BBX 8 16 2 0
BITMAP
C3
C3
00
00
00
78
18
18
18
18
18
18
18
18
18
1E
ENDCHAR
STARTCHAR LATIN
ENCODING 240
SWIDTH 500 0
DWIDTH 12 0
BBX 10 17 1 0
BITMAP
CC00
7800
3000
7800
CC00
0600
3F00
6180
C0C0
C0C0
C0C0
C0C0
C0C0
C0C0
C0C0
6180
3F00
ENDCHAR
STARTCHAR LATIN
ENCODING 241
SWIDTH 500 0
DWIDTH 12 0
BBX 10 17 1 0
BITMAP
30C0
78C0
CD80
C700
0000
0000
FF00
C180
C0C0
C0C0
C0C0
C0C0
C0C0
C0C0
C0C0
C0C0
C0C0
ENDCHAR
STARTCHAR LATIN
ENCODING 242
SWIDTH 500 0
DWIDTH 12 0
BBX 10 17 1 0
BITMAP
3000
1800
0C00
0600
0000
0000
3F00
6180
C0C0
C0C0
C0C0
C0C0
C0C0
C0C0
C0C0
6180
3F00
ENDCHAR
STARTCHAR LATIN
ENCODING 243
SWIDTH 500 0
DWIDTH 12 0
BBX 10 17 1 0
BITMAP
0300
0600
0C00
1800
0000
0000
3F00
6180
C0C0
C0C0
C0C0
C0C0
C0C0
C0C0
C0C0
6180
3F00
ENDCHAR
STARTCHAR LATIN
ENCODING 244
SWIDTH 500 0
DWIDTH 12 0
BBX 10 17 1 0
BITMAP
0C00
1E00
3300
6180
0000
0000
3F00
6180
C0C0
C0C0
C0C0
C0C0
C0C0
C0C0
C0C0
6180
3F00
ENDCHAR
STARTCHAR LATIN
ENCODING 245
SWIDTH 500 0
DWIDTH 12 0
BBX 10 17 1 0
BITMAP
30C0
78C0
CD80
C700
0000
0000
3F00
6180
C0C0
C0C0
C0C0
C0C0
C0C0
C0C0
C0C0
6180
3F00
ENDCHAR
STARTCHAR LATIN
ENCODING 246
SWIDTH 500 0
DWIDTH 12 0
BBX 10 16 1 0
BITMAP
6180
6180
0000
0000
0000
3F00
6180
C0C0
C0C0
C0C0
C0C0
C0C0
C0C0
C0C0
6180
3F00
ENDCHAR
STARTCHAR DIVISION
ENCODING 247
SWIDTH 500 0
DWIDTH 12 0
BBX 8 9 2 2
BITMAP
18
18
00
00
FF
00
00
18
18
ENDCHAR
STARTCHAR LATIN
ENCODING 248
SWIDTH 500 0
DWIDTH 12 0
BBX 12 13 0 -1
BITMAP
0010
1FB0
30E0
60E0
61E0
6360
6660
6C60
7860
7060
70C0
DF80
8000
ENDCHAR
STARTCHAR LATIN
ENCODING 249
SWIDTH 500 0
DWIDTH 12 0
BBX 10 17 1 0
BITMAP
3000
1800
0C00
0600
0000
0000
C0C0
C0C0
C0C0
C0C0
C0C0
C0C0
C0C0
C0C0
C0C0
60C0
3FC0
ENDCHAR
STARTCHAR LATIN
ENCODING 250
SWIDTH 500 0
DWIDTH 12 0
BBX 10 17 1 0
BITMAP
0300
0600
0C00
1800
0000
0000
C0C0
C0C0
C0C0
C0C0
C0C0
C0C0
C0C0
C0C0
C0C0
60C0
3FC0
ENDCHAR
STARTCHAR LATIN
ENCODING 251
SWIDTH 500 0
DWIDTH 12 0
BBX 10 17 1 0
BITMAP
0C00
1E00
3300
6180
0000
0000
C0C0
C0C0
C0C0
C0C0
C0C0
C0C0
C0C0
C0C0
C0C0
60C0
3FC0
ENDCHAR
STARTCHAR LATIN
ENCODING 252
SWIDTH 500 0
DWIDTH 12 0
BBX 10 16 1 0
BITMAP
6180
6180
0000
0000
0000
C0C0
C0C0
C0C0
C0C0
C0C0
C0C0
C0C0
C0C0
C0C0
60C0
3FC0
ENDCHAR
STARTCHAR LATIN
ENCODING 253
SWIDTH 500 0
DWIDTH 12 0
BBX 10 22 1 -5
BITMAP
0300
0600
0C00
1800
0000
0000
C0C0
C0C0
C0C0
C0C0
C0C0
C0C0
C0C0
C0C0
C0C0
60C0
3FC0
00C0
00C0
00C0
0180
FF00
ENDCHAR
STARTCHAR LATIN
ENCODING 254
SWIDTH 500 0
DWIDTH 12 0
BBX 10 21 1 -5
BITMAP
C000
C000
C000
C000
C000
FF00
C180
C0C0
C0C0
C0C0
C0C0
C0C0
C0C0
C0C0
C180
FF00
C000
C000
C000
C000
C000
ENDCHAR
STARTCHAR LATIN
ENCODING 255
SWIDTH 500 0
DWIDTH 12 0
BBX 10 21 1 -5
BITMAP
6180
6180
0000
0000
0000
C0C0
C0C0
C0C0
C0C0
C0C0
C0C0
C0C0
C0C0
C0C0
60C0
3FC0
00C0
00C0
00C0
0180
FF00
ENDCHAR
STARTCHAR LATIN
ENCODING 256
SWIDTH 500 0
DWIDTH 12 0
BBX 10 18 1 0
BITMAP
7F80
0000
0000
3F00
6180
C0C0
C0C0
C0C0
C0C0
C0C0
FFC0
C0C0
C0C0
C0C0
C0C0
C0C0
C0C0
C0C0
ENDCHAR
STARTCHAR LATIN
ENCODING 257
SWIDTH 500 0
DWIDTH 12 0
BBX 10 14 1 0
BITMAP
7F80
0000
0000
7F00
0180
00C0
00C0
3FC0
60C0
C0C0
C0C0
C0C0
60C0
3FC0
ENDCHAR
STARTCHAR LATIN
ENCODING 258
SWIDTH 500 0
DWIDTH 12 0
BBX 10 19 1 0
BITMAP
3300
3300
1E00
0000
3F00
6180
C0C0
C0C0
C0C0
C0C0
C0C0
FFC0
C0C0
C0C0
C0C0
C0C0
C0C0
C0C0
C0C0
ENDCHAR
STARTCHAR LATIN
ENCODING 259
SWIDTH 500 0
DWIDTH 12 0
BBX 10 16 1 0
BITMAP
3300
3300
1E00
0000
0000
7F00
0180
00C0
00C0
3FC0
60C0
C0C0
C0C0
C0C0
60C0
3FC0
ENDCHAR
STARTCHAR LATIN
ENCODING 260
SWIDTH 500 0
DWIDTH 12 0
BBX 11 19 1 -4
BITMAP
3F00
6180
C0C0
C0C0
C0C0
C0C0
C0C0
FFC0
C0C0
C0C0
C0C0
C0C0
C0C0
C0C0
C0C0
01C0
0300
0300
01E0
ENDCHAR
STARTCHAR LATIN
ENCODING 261
SWIDTH 500 0
DWIDTH 12 0
BBX 11 15 1 -4
BITMAP
7F00
0180
00C0
00C0
3FC0
60C0
C0C0
C0C0
C0C0
60C0
3FC0
0180
0300
0300
01E0
ENDCHAR
STARTCHAR LATIN
ENCODING 262
SWIDTH 500 0
DWIDTH 12 0
BBX 10 19 1 0
BITMAP
0300
0600
0C00
0000
3FC0
6000
C000
C000
C000
C000
C000
C000
C000
C000
C000
C000
C000
6000
3FC0
ENDCHAR
STARTCHAR LATIN
ENCODING 263
SWIDTH 500 0
DWIDTH 12 0
BBX 10 17 1 0
BITMAP
0300
0600
0C00
1800
0000
0000
3FC0
6000
C000
C000
C000
C000
C000
C000
C000
6000
3FC0
ENDCHAR
STARTCHAR LATIN
ENCODING 264
SWIDTH 500 0
DWIDTH 12 0
BBX 10 19 1 0
BITMAP
1E00
3300
6180
0000
3FC0
6000
C000
C000
C000
C000
C000
C000
C000
C000
C000
C000
C000
6000
3FC0
ENDCHAR
STARTCHAR LATIN
ENCODING 265
SWIDTH 500 0
DWIDTH 12 0
BBX 10 17 1 0
BITMAP
0C00
1E00
3300
6180
0000
0000
3FC0
6000
C000
C000
C000
C000
C000
C000
C000
6000
3FC0
ENDCHAR
STARTCHAR LATIN
ENCODING 266
SWIDTH 500 0
DWIDTH 12 0
BBX 10 18 1 0
BITMAP
0C00
0C00
0000
3FC0
6000
C000
C000
C000
C000
C000
C000
C000
C000
C000
C000
C000
6000
3FC0
ENDCHAR
STARTCHAR LATIN
ENCODING 267
SWIDTH 500 0
DWIDTH 12 0
BBX 10 16 1 0
BITMAP
0C00
0C00
0000
0000
0000
3FC0
6000
C000
C000
C000
C000
C000
C000
C000
6000
3FC0
ENDCHAR
STARTCHAR LATIN
ENCODING 268
SWIDTH 500 0
DWIDTH 12 0
BBX 10 19 1 0
BITMAP
6180
3300
1E00
0000
3FC0
6000
C000
C000
C000
C000
C000
C000
C000
C000
C000
C000
C000
6000
3FC0
ENDCHAR
STARTCHAR LATIN
ENCODING 269
SWIDTH 500 0
DWIDTH 12 0
BBX 10 17 1 0
BITMAP
6180
3300
1E00
0C00
0000
0000
3FC0
6000
C000
C000
C000
C000
C000
C000
C000
6000
3FC0
ENDCHAR
STARTCHAR LATIN
ENCODING 270
SWIDTH 500 0
DWIDTH 12 0
BBX 10 19 1 0
BITMAP
6180
3300
1E00
0000
FF00
C180
C0C0
C0C0
C0C0
C0C0
C0C0
C0C0
C0C0
C0C0
C0C0
C0C0
C0C0
C180
FF00
ENDCHAR
STARTCHAR LATIN
ENCODING 271
SWIDTH 500 0
DWIDTH 12 0
BBX 10 19 1 0
BITMAP
6180
3300
1E00
0000
00C0
00C0
00C0
00C0
3FC0
60C0
C0C0
C0C0
C0C0
C0C0
C0C0
C0C0
C0C0
60C0
3FC0
ENDCHAR
STARTCHAR LATIN
ENCODING 272
SWIDTH 500 0
DWIDTH 12 0
BBX 11 15 0 0
BITMAP
7FC0
60E0
6060
6060
6060
6060
6060
FC60
6060
6060
6060
6060
6060
60E0
7FC0
ENDCHAR
STARTCHAR LATIN
ENCODING 273
SWIDTH 500 0
DWIDTH 12 0
BBX 11 15 1 0
BITMAP
00C0
07E0
00C0
00C0
3FC0
60C0
C0C0
C0C0
C0C0
C0C0
C0C0
C0C0
C0C0
60C0
3FC0
ENDCHAR
STARTCHAR LATIN
ENCODING 274
SWIDTH 500 0
DWIDTH 12 0
BBX 10 18 1 0
BITMAP
7F80
0000
0000
3FC0
6000
C000
C000
C000
C000
C000
FF00
C000
C000
C000
C000
C000
6000
3FC0
ENDCHAR
STARTCHAR LATIN
ENCODING 275
SWIDTH 500 0
DWIDTH 12 0
BBX 10 14 1 0
BITMAP
7F80
0000
0000
3FC0
60C0
C0C0
C0C0
C0C0
FFC0
C000
C000
C000
6000
3FC0
ENDCHAR
STARTCHAR LATIN
ENCODING 276
SWIDTH 500 0
DWIDTH 12 0
BBX 10 19 1 0
BITMAP
3300
3300
1E00
0000
3FC0
6000
C000
C000
C000
C000
C000
FF00
C000
C000
C000
C000
C000
6000
3FC0
ENDCHAR
STARTCHAR LATIN
ENCODING 277
SWIDTH 500 0
DWIDTH 12 0
BBX 10 16 1 0
BITMAP
3300
3300
1E00
0000
0000
3FC0
60C0
C0C0
C0C0
C0C0
FFC0
C000
C000
C000
6000
3FC0
ENDCHAR
STARTCHAR LATIN
ENCODING 278
SWIDTH 500 0
DWIDTH 12 0
BBX 10 18 1 0
BITMAP
0C00
0C00
0000
3FC0
6000
C000
C000
C000
C000
C000
FF00
C000
C000
C000
C000
C000
6000
3FC0
ENDCHAR
STARTCHAR LATIN
ENCODING 279
SWIDTH 500 0
DWIDTH 12 0
BBX 10 16 1 0
BITMAP
0C00
0C00
0000
0000
0000
3FC0
60C0
C0C0
C0C0
C0C0
FFC0
C000
C000
C000
6000
3FC0
ENDCHAR
STARTCHAR LATIN
ENCODING 280
SWIDTH 500 0
DWIDTH 12 0
BBX 11 19 1 -4
BITMAP
3FC0
6000
C000
C000
C000
C000
C000
FF00
C000
C000
C000
C000
C000
6000
3FC0
0180
0300
0300
01E0
ENDCHAR
STARTCHAR LATIN
ENCODING 281
SWIDTH 500 0
DWIDTH 12 0
BBX 11 15 1 -4
BITMAP
3FC0
60C0
C0C0
C0C0
C0C0
FFC0
C000
C000
C000
6000
3FC0
0180
0300
0300
01E0
ENDCHAR
STARTCHAR LATIN
ENCODING 282
SWIDTH 500 0
DWIDTH 12 0
BBX 10 19 1 0
BITMAP
6180
3300
1E00
0000
3FC0
6000
C000
C000
C000
C000
C000
FF00
C000
C000
C000
C000
C000
6000
3FC0
ENDCHAR
STARTCHAR LATIN
ENCODING 283
SWIDTH 500 0
DWIDTH 12 0
BBX 10 17 1 0
BITMAP
6180
3300
1E00
0C00
0000
0000
3FC0
60C0
C0C0
C0C0
C0C0
FFC0
C000
C000
C000
6000
3FC0
ENDCHAR
STARTCHAR LATIN
ENCODING 284
SWIDTH 500 0
DWIDTH 12 0
BBX 10 19 1 0
BITMAP
1E00
3300
6180
0000
3FC0
6000
C000
C000
C000
C000
C000
C7C0
C0C0
C0C0
C0C0
C0C0
C0C0
60C0
3FC0
ENDCHAR
STARTCHAR LATIN
ENCODING 285
SWIDTH 500 0
DWIDTH 12 0
BBX 10 22 1 -5
BITMAP
0C00
1E00
3300
6180
0000
0000
3FC0
60C0
C0C0
C0C0
C0C0
C0C0
C0C0
C0C0
C0C0
60C0
3F80
0180
00C0
00C0
0180
7F00
ENDCHAR
STARTCHAR LATIN
ENCODING 286
SWIDTH 500 0
DWIDTH 12 0
BBX 10 19 1 0
BITMAP
3300
3300
1E00
0000
3FC0
6000
C000
C000
C000
C000
C000
C7C0
C0C0
C0C0
C0C0
C0C0
C0C0
60C0
3FC0
ENDCHAR
STARTCHAR LATIN
ENCODING 287
SWIDTH 500 0
DWIDTH 12 0
BBX 10 21 1 -5
BITMAP
3300
3300
1E00
0000
0000
3FC0
60C0
C0C0
C0C0
C0C0
C0C0
C0C0
C0C0
C0C0
60C0
3F80
0180
00C0
00C0
0180
7F00
ENDCHAR
STARTCHAR LATIN
ENCODING 288
SWIDTH 500 0
DWIDTH 12 0
BBX 10 18 1 0
BITMAP
0C00
0C00
0000
3FC0
6000
C000
C000
C000
C000
C000
C7C0
C0C0
C0C0
C0C0
C0C0
C0C0
60C0
3FC0
ENDCHAR
STARTCHAR LATIN
ENCODING 289
SWIDTH 500 0
DWIDTH 12 0
BBX 10 21 1 -5
BITMAP
0C00
0C00
0000
0000
0000
3FC0
60C0
C0C0
C0C0
C0C0
C0C0
C0C0
C0C0
C0C0
60C0
3F80
0180
00C0
00C0
0180
7F00
ENDCHAR
STARTCHAR LATIN
ENCODING 290
SWIDTH 500 0
DWIDTH 12 0
BBX 10 20 1 -5
BITMAP
3FC0
6000
C000
C000
C000
C000
C000
C7C0
C0C0
C0C0
C0C0
C0C0
C0C0
60C0
3FC0
0600
0600
0600
0C00
1800
ENDCHAR
STARTCHAR LATIN
ENCODING 291
SWIDTH 500 0
DWIDTH 12 0
BBX 10 23 1 -5
BITMAP
0600
0600
0600
0C00
1800
0000
0000
3FC0
60C0
C0C0
C0C0
C0C0
C0C0
C0C0
C0C0
C0C0
60C0
3F80
0180
00C0
00C0
0180
7F00
ENDCHAR
STARTCHAR LATIN
ENCODING 292
SWIDTH 500 0
DWIDTH 12 0
BBX 10 19 1 0
BITMAP
1E00
3300
6180
0000
C0C0
C0C0
C0C0
C0C0
C0C0
C0C0
C0C0
FFC0
C0C0
C0C0
C0C0
C0C0
C0C0
C0C0
C0C0
ENDCHAR
STARTCHAR LATIN
ENCODING 293
SWIDTH 500 0
DWIDTH 12 0
BBX 10 19 1 0
BITMAP
1E00
3300
6180
0000
C000
C000
C000
C000
FF00
C180
C0C0
C0C0
C0C0
C0C0
C0C0
C0C0
C0C0
C0C0
C0C0
ENDCHAR
STARTCHAR LATIN
ENCODING 294
SWIDTH 500 0
DWIDTH 12 0
BBX 12 15 0 0
BITMAP
6060
6060
FFF0
6060
6060
6060
6060
7FE0
6060
6060
6060
6060
6060
6060
6060
ENDCHAR
STARTCHAR LATIN
ENCODING 295
SWIDTH 500 0
DWIDTH 12 0
BBX 11 15 0 0
BITMAP
6000
FC00
6000
6000
7F80
60C0
6060
6060
6060
6060
6060
6060
6060
6060
6060
ENDCHAR
STARTCHAR LATIN
ENCODING 296
SWIDTH 500 0
DWIDTH 12 0
BBX 10 19 1 0
BITMAP
38C0
7F80
C700
0000
7F80
0C00
0C00
0C00
0C00
0C00
0C00
0C00
0C00
0C00
0C00
0C00
0C00
0C00
7F80
ENDCHAR
STARTCHAR LATIN
ENCODING 297
SWIDTH 500 0
DWIDTH 12 0
BBX 10 17 1 0
BITMAP
30C0
78C0
CD80
C700
0000
0000
3C00
0C00
0C00
0C00
0C00
0C00
0C00
0C00
0C00
0C00
0F00
ENDCHAR
STARTCHAR LATIN
ENCODING 298
SWIDTH 500 0
DWIDTH 12 0
BBX 8 18 2 0
BITMAP
FF
00
00
FF
18
18
18
18
18
18
18
18
18
18
18
18
18
FF
ENDCHAR
STARTCHAR LATIN
ENCODING 299
SWIDTH 500 0
DWIDTH 12 0
BBX 8 14 2 0
BITMAP
FF
00
00
78
18
18
18
18
18
18
18
18
18
1E
ENDCHAR
STARTCHAR LATIN
ENCODING 300
SWIDTH 500 0
DWIDTH 12 0
BBX 8 19 2 0
BITMAP
66
66
3C
00
FF
18
18
18
18
18
18
18
18
18
18
18
18
18
FF
ENDCHAR
STARTCHAR LATIN
ENCODING 301
SWIDTH 500 0
DWIDTH 12 0
BBX 6 16 3 0
BITMAP
CC
CC
78
00
00
F0
30
30
30
30
30
30
30
30
30
3C
ENDCHAR
STARTCHAR LATIN
ENCODING 302
SWIDTH 500 0
DWIDTH 12 0
BBX 9 19 2 -4
BITMAP
FF00
1800
1800
1800
1800
1800
1800
1800
1800
1800
1800
1800
1800
1800
FF00
0600
0C00
0C00
0780
ENDCHAR
STARTCHAR LATIN
ENCODING 303
SWIDTH 500 0
DWIDTH 12 0
BBX 7 19 3 -4
BITMAP
30
30
00
00
F0
30
30
30
30
30
30
30
30
30
3C
18
30
30
1E
ENDCHAR
STARTCHAR LATIN
ENCODING 304
SWIDTH 500 0
DWIDTH 12 0
BBX 8 18 2 0
BITMAP
18
18
00
FF
18
18
18
18
18
18
18
18
18
18
18
18
18
FF
ENDCHAR
STARTCHAR LATIN
ENCODING 305
SWIDTH 500 0
DWIDTH 12 0
BBX 6 11 3 0
BITMAP
F0
30
30
30
30
30
30
30
30
30
3C
ENDCHAR
STARTCHAR LATIN
ENCODING 306
SWIDTH 500 0
DWIDTH 12 0
BBX 11 15 0 0
BITMAP
F1E0
60C0
60C0
60C0
60C0
60C0
60C0
60C0
60C0
60C0
60C0
60C0
60C0
61C0
F780
ENDCHAR
STARTCHAR LATIN
ENCODING 307
SWIDTH 500 0
DWIDTH 12 0
BBX 10 20 0 -5
BITMAP
30C0
30C0
0000
0000
F0C0
30C0
30C0
30C0
30C0
30C0
30C0
30C0
30C0
30C0
3CC0
00C0
00C0
00C0
0180
0F00
ENDCHAR
STARTCHAR LATIN
ENCODING 308
SWIDTH 500 0
DWIDTH 12 0
BBX 9 19 1 0
BITMAP
1E00
3300
6180
0000
7F80
0C00
0C00
0C00
0C00
0C00
0C00
0C00
0C00
0C00
0C00
0C00
0C00
1C00
F800
ENDCHAR
STARTCHAR LATIN
ENCODING 309
SWIDTH 500 0
DWIDTH 12 0
BBX 9 22 1 -5
BITMAP
0C00
1E00
3300
6180
0000
0000
0C00
0C00
0C00
0C00
0C00
0C00
0C00
0C00
0C00
0C00
0C00
0C00
0C00
0C00
1800
F000
ENDCHAR
STARTCHAR LATIN
ENCODING 310
SWIDTH 500 0
DWIDTH 12 0
BBX 10 20 1 -5
BITMAP
C0C0
C0C0
C0C0
C0C0
C0C0
C180
C300
FE00
C300
C180
C0C0
C0C0
C0C0
C0C0
C0C0
0C00
0C00
0C00
1800
3000
ENDCHAR
STARTCHAR LATIN
ENCODING 311
SWIDTH 500 0
DWIDTH 12 0
BBX 9 20 2 -5
BITMAP
C000
C000
C000
C000
C300
C300
C600
CC00
F800
D800
CC00
C600
C300
C180
C180
0C00
0C00
0C00
1800
3000
ENDCHAR
STARTCHAR LATIN
ENCODING 312
SWIDTH 500 0
DWIDTH 12 0
BBX 8 11 2 0
BITMAP
C3
C3
C6
CC
D8
F0
D8
CC
C6
C3
C3
ENDCHAR
STARTCHAR LATIN
ENCODING 313
SWIDTH 500 0
DWIDTH 12 0
BBX 10 19 1 0
BITMAP
0300
0600
0C00
0000
C000
C000
C000
C000
C000
C000
C000
C000
C000
C000
C000
C000
C000
6000
3FC0
ENDCHAR
STARTCHAR LATIN
ENCODING 314
SWIDTH 500 0
DWIDTH 12 0
BBX 6 19 4 0
BITMAP
18
30
60
00
C0
C0
C0
C0
C0
C0
C0
C0
C0
C0
C0
C0
C0
E0
7C
ENDCHAR
STARTCHAR LATIN
ENCODING 315
SWIDTH 500 0
DWIDTH 12 0
BBX 10 20 1 -5
BITMAP
C000
C000
C000
C000
C000
C000
C000
C000
C000
C000
C000
C000
C000
6000
3FC0
0600
0600
0600
0C00
1800
ENDCHAR
STARTCHAR LATIN
ENCODING 316
SWIDTH 500 0
DWIDTH 12 0
BBX 6 20 4 -5
BITMAP
C0
C0
C0
C0
C0
C0
C0
C0
C0
C0
C0
C0
C0
E0
7C
30
30
30
60
C0
ENDCHAR
STARTCHAR LATIN
ENCODING 317
SWIDTH 500 0
DWIDTH 12 0
BBX 10 19 1 0
BITMAP
6180
3300
1E00
0000
C000
C000
C000
C000
C000
C000
C000
C000
C000
C000
C000
C000
C000
6000
3FC0
ENDCHAR
STARTCHAR LATIN
ENCODING 318
SWIDTH 500 0
DWIDTH 12 0
BBX 8 19 2 0
BITMAP
C3
66
3C
00
30
30
30
30
30
30
30
30
30
30
30
30
30
38
1F
ENDCHAR
STARTCHAR LATIN
ENCODING 319
SWIDTH 500 0
DWIDTH 12 0
BBX 10 15 1 0
BITMAP
C000
C000
C000
C000
C000
C000
C000
C300
C300
C000
C000
C000
C000
6000
3FC0
ENDCHAR
STARTCHAR LATIN
ENCODING 320
SWIDTH 500 0
DWIDTH 12 0
BBX 6 15 4 0
BITMAP
C0
C0
C0
C0
C0
C0
C0
CC
CC
C0
C0
C0
C0
E0
7C
ENDCHAR
STARTCHAR LATIN
ENCODING 321
SWIDTH 500 0
DWIDTH 12 0
BBX 11 15 0 0
BITMAP
6000
6000
6000
6000
6C00
7800
7000
6000
E000
E000
6000
6000
6000
3000
1FE0
ENDCHAR
STARTCHAR LATIN
ENCODING 322
SWIDTH 500 0
DWIDTH 12 0
BBX 7 15 3 0
BITMAP
60
60
60
60
6C
78
70
60
E0
E0
60
60
60
70
3E
ENDCHAR
STARTCHAR LATIN
ENCODING 323
SWIDTH 500 0
DWIDTH 12 0
BBX 10 19 1 0
BITMAP
0600
0C00
1800
0000
C0C0
E0C0
E0C0
F0C0
F0C0
D8C0
D8C0
CCC0
CCC0
C6C0
C6C0
C3C0
C3C0
C1C0
C1C0
ENDCHAR
STARTCHAR LATIN
ENCODING 324
SWIDTH 500 0
DWIDTH 12 0
BBX 10 17 1 0
BITMAP
0300
0600
0C00
1800
0000
0000
FF00
C180
C0C0
C0C0
C0C0
C0C0
C0C0
C0C0
C0C0
C0C0
C0C0
ENDCHAR
STARTCHAR LATIN
ENCODING 325
SWIDTH 500 0
DWIDTH 12 0
BBX 10 20 1 -5
BITMAP
C0C0
E0C0
E0C0
F0C0
F0C0
D8C0
D8C0
CCC0
CCC0
C6C0
C6C0
C3C0
C3C0
C1C0
C1C0
0C00
0C00
0C00
1800
3000
ENDCHAR
STARTCHAR LATIN
ENCODING 326
SWIDTH 500 0
DWIDTH 12 0
BBX 10 16 1 -5
BITMAP
FF00
C180
C0C0
C0C0
C0C0
C0C0
C0C0
C0C0
C0C0
C0C0
C0C0
0C00
0C00
0C00
1800
3000
ENDCHAR
STARTCHAR LATIN
ENCODING 327
SWIDTH 500 0
DWIDTH 12 0
BBX 10 19 1 0
BITMAP
6180
3300
1E00
0000
C0C0
E0C0
E0C0
F0C0
F0C0
D8C0
D8C0
CCC0
CCC0
C6C0
C6C0
C3C0
C3C0
C1C0
C1C0
ENDCHAR
STARTCHAR LATIN
ENCODING 328
SWIDTH 500 0
DWIDTH 12 0
BBX 10 17 1 0
BITMAP
6180
3300
1E00
0C00
0000
0000
FF00
C180
C0C0
C0C0
C0C0
C0C0
C0C0
C0C0
C0C0
C0C0
C0C0
ENDCHAR
STARTCHAR LATIN
ENCODING 329
SWIDTH 500 0
DWIDTH 12 0
BBX 11 18 0 0
BITMAP
3000
3000
3000
6000
C000
0000
0000
7F80
60C0
6060
6060
6060
6060
6060
6060
6060
6060
6060
ENDCHAR
STARTCHAR LATIN
ENCODING 330
SWIDTH 500 0
DWIDTH 12 0
BBX 10 19 1 -4
BITMAP
C0C0
E0C0
E0C0
F0C0
F0C0
D8C0
D8C0
CCC0
CCC0
C6C0
C6C0
C3C0
C3C0
C1C0
C1C0
00C0
00C0
0180
0700
ENDCHAR
STARTCHAR LATIN
ENCODING 331
SWIDTH 500 0
DWIDTH 12 0
BBX 10 15 1 -4
BITMAP
FF00
C180
C0C0
C0C0
C0C0
C0C0
C0C0
C0C0
C0C0
C0C0
C0C0
00C0
00C0
0180
0700
ENDCHAR
STARTCHAR LATIN
ENCODING 332
SWIDTH 500 0
DWIDTH 12 0
BBX 10 18 1 0
BITMAP
7F80
0000
0000
3F00
6180
C0C0
C0C0
C0C0
C0C0
C0C0
C0C0
C0C0
C0C0
C0C0
C0C0
C0C0
6180
3F00
ENDCHAR
STARTCHAR LATIN
ENCODING 333
SWIDTH 500 0
DWIDTH 12 0
BBX 10 14 1 0
BITMAP
7F80
0000
0000
3F00
6180
C0C0
C0C0
C0C0
C0C0
C0C0
C0C0
C0C0
6180
3F00
ENDCHAR
STARTCHAR LATIN
ENCODING 334
SWIDTH 500 0
DWIDTH 12 0
BBX 10 19 1 0
BITMAP
3300
3300
1E00
0000
3F00
6180
C0C0
C0C0
C0C0
C0C0
C0C0
C0C0
C0C0
C0C0
C0C0
C0C0
C0C0
6180
3F00
ENDCHAR
STARTCHAR LATIN
ENCODING 335
SWIDTH 500 0
DWIDTH 12 0
BBX 10 16 1 0
BITMAP
3300
3300
1E00
0000
0000
3F00
6180
C0C0
C0C0
C0C0
C0C0
C0C0
C0C0
C0C0
6180
3F00
ENDCHAR
STARTCHAR LATIN
ENCODING 336
SWIDTH 500 0
DWIDTH 12 0
BBX 10 19 1 0
BITMAP
0CC0
1980
3300
0000
3F00
6180
C0C0
C0C0
C0C0
C0C0
C0C0
C0C0
C0C0
C0C0
C0C0
C0C0
C0C0
6180
3F00
ENDCHAR
STARTCHAR LATIN
ENCODING 337
SWIDTH 500 0
DWIDTH 12 0
BBX 10 17 1 0
BITMAP
0CC0
1980
3300
6600
0000
0000
3F00
6180
C0C0
C0C0
C0C0
C0C0
C0C0
C0C0
C0C0
6180
3F00
ENDCHAR
STARTCHAR LATIN
ENCODING 338
SWIDTH 500 0
DWIDTH 12 0
BBX 10 15 1 0
BITMAP
3FC0
6600
C600
C600
C600
C600
C600
C780
C600
C600
C600
C600
C600
6600
3FC0
ENDCHAR
STARTCHAR LATIN
ENCODING 339
SWIDTH 500 0
DWIDTH 12 0
BBX 10 11 1 0
BITMAP
3BC0
6EC0
CCC0
CCC0
CFC0
CC00
CC00
CC00
CC00
6E00
3BC0
ENDCHAR
STARTCHAR LATIN
ENCODING 340
SWIDTH 500 0
DWIDTH 12 0
BBX 10 19 1 0
BITMAP
0300
0600
0C00
0000
FF00
C180
C0C0
C0C0
C0C0
C0C0
C180
FF00
C180
C0C0
C0C0
C0C0
C0C0
C0C0
C0C0
ENDCHAR
STARTCHAR LATIN
ENCODING 341
SWIDTH 500 0
DWIDTH 12 0
BBX 10 17 1 0
BITMAP
0300
0600
0C00
1800
0000
0000
3FC0
60C0
C000
C000
C000
C000
C000
C000
C000
C000
C000
ENDCHAR
STARTCHAR LATIN
ENCODING 342
SWIDTH 500 0
DWIDTH 12 0
BBX 10 20 1 -5
BITMAP
FF00
C180
C0C0
C0C0
C0C0
C0C0
C180
FF00
C180
C0C0
C0C0
C0C0
C0C0
C0C0
C0C0
0C00
0C00
0C00
1800
3000
ENDCHAR
STARTCHAR LATIN
ENCODING 343
SWIDTH 500 0
DWIDTH 12 0
BBX 10 16 1 -5
BITMAP
3FC0
60C0
C000
C000
C000
C000
C000
C000
C000
C000
C000
0C00
0C00
0C00
1800
3000
ENDCHAR
STARTCHAR LATIN
ENCODING 344
SWIDTH 500 0
DWIDTH 12 0
BBX 10 19 1 0
BITMAP
6180
3300
1E00
0000
FF00
C180
C0C0
C0C0
C0C0
C0C0
C180
FF00
C180
C0C0
C0C0
C0C0
C0C0
C0C0
C0C0
ENDCHAR
STARTCHAR LATIN
ENCODING 345
SWIDTH 500 0
DWIDTH 12 0
BBX 10 17 1 0
BITMAP
6180
3300
1E00
0C00
0000
0000
3FC0
60C0
C000
C000
C000
C000
C000
C000
C000
C000
C000
ENDCHAR
STARTCHAR LATIN
ENCODING 346
SWIDTH 500 0
DWIDTH 12 0
BBX 10 19 1 0
BITMAP
0300
0600
0C00
0000
3FC0
6000
C000
C000
C000
C000
6000
3F00
0180
00C0
00C0
00C0
00C0
0180
FF00
ENDCHAR
STARTCHAR LATIN
ENCODING 347
SWIDTH 500 0
DWIDTH 12 0
BBX 10 17 1 0
BITMAP
0300
0600
0C00
1800
0000
0000
7FC0
C000
C000
C000
C000
7F80
00C0
00C0
00C0
00C0
FF80
ENDCHAR
STARTCHAR LATIN
ENCODING 348
SWIDTH 500 0
DWIDTH 12 0
BBX 10 19 1 0
BITMAP
1E00
3300
6180
0000
3FC0
6000
C000
C000
C000
C000
6000
3F00
0180
00C0
00C0
00C0
00C0
0180
FF00
ENDCHAR
STARTCHAR LATIN
ENCODING 349
SWIDTH 500 0
DWIDTH 12 0
BBX 10 17 1 0
BITMAP
0C00
1E00
3300
6180
0000
0000
7FC0
C000
C000
C000
C000
7F80
00C0
00C0
00C0
00C0
FF80
ENDCHAR
STARTCHAR LATIN
ENCODING 350
SWIDTH 500 0
DWIDTH 12 0
BBX 10 20 1 -5
BITMAP
3FC0
6000
C000
C000
C000
C000
6000
3F00
0180
00C0
00C0
00C0
00C0
0180
FF00
0C00
0C00
0C00
1800
3000
ENDCHAR
STARTCHAR LATIN
ENCODING 351
SWIDTH 500 0
DWIDTH 12 0
BBX 10 16 1 -5
BITMAP
7FC0
C000
C000
C000
C000
7F80
00C0
00C0
00C0
00C0
FF80
0C00
0C00
0C00
1800
3000
ENDCHAR
STARTCHAR LATIN
ENCODING 352
SWIDTH 500 0
DWIDTH 12 0
BBX 10 19 1 0
BITMAP
6180
3300
1E00
0000
3FC0
6000
C000
C000
C000
C000
6000
3F00
0180
00C0
00C0
00C0
00C0
0180
FF00
ENDCHAR
STARTCHAR LATIN
ENCODING 353
SWIDTH 500 0
DWIDTH 12 0
BBX 10 17 1 0
BITMAP
6180
3300
1E00
0C00
0000
0000
7FC0
C000
C000
C000
C000
7F80
00C0
00C0
00C0
00C0
FF80
ENDCHAR
STARTCHAR LATIN
ENCODING 354
SWIDTH 500 0
DWIDTH 12 0
BBX 10 20 1 -5
BITMAP
FFC0
0C00
0C00
0C00
0C00
0C00
0C00
0C00
0C00
0C00
0C00
0C00
0C00
0C00
0C00
0600
0600
0600
0C00
1800
ENDCHAR
STARTCHAR LATIN
ENCODING 355
SWIDTH 500 0
DWIDTH 12 0
BBX 8 20 2 -5
BITMAP
30
30
30
30
FE
30
30
30
30
30
30
30
30
38
1F
0C
0C
0C
18
30
ENDCHAR
STARTCHAR LATIN
ENCODING 356
SWIDTH 500 0
DWIDTH 12 0
BBX 10 19 1 0
BITMAP
6180
3300
1E00
0000
FFC0
0C00
0C00
0C00
0C00
0C00
0C00
0C00
0C00
0C00
0C00
0C00
0C00
0C00
0C00
ENDCHAR
STARTCHAR LATIN
ENCODING 357
SWIDTH 500 0
DWIDTH 12 0
BBX 8 19 2 0
BITMAP
C3
66
3C
00
30
30
30
30
FE
30
30
30
30
30
30
30
30
38
1F
ENDCHAR
STARTCHAR LATIN
ENCODING 358
SWIDTH 500 0
DWIDTH 12 0
BBX 10 15 1 0
BITMAP
FFC0
0C00
0C00
0C00
0C00
0C00
0C00
3F00
0C00
0C00
0C00
0C00
0C00
0C00
0C00
ENDCHAR
STARTCHAR LATIN
ENCODING 359
SWIDTH 500 0
DWIDTH 12 0
BBX 8 15 2 0
BITMAP
30
30
30
30
FE
30
30
FE
30
30
30
30
30
38
1F
ENDCHAR
STARTCHAR LATIN
ENCODING 360
SWIDTH 500 0
DWIDTH 12 0
BBX 10 19 1 0
BITMAP
38C0
7F80
C700
0000
C0C0
C0C0
C0C0
C0C0
C0C0
C0C0
C0C0
C0C0
C0C0
C0C0
C0C0
C0C0
C0C0
60C0
3FC0
ENDCHAR
STARTCHAR LATIN
ENCODING 361
SWIDTH 500 0
DWIDTH 12 0
BBX 10 17 1 0
BITMAP
30C0
78C0
CD80
C700
0000
0000
C0C0
C0C0
C0C0
C0C0
C0C0
C0C0
C0C0
C0C0
C0C0
60C0
3FC0
ENDCHAR
STARTCHAR LATIN
ENCODING 362
SWIDTH 500 0
DWIDTH 12 0
BBX 10 18 1 0
BITMAP
7F80
0000
0000
C0C0
C0C0
C0C0
C0C0
C0C0
C0C0
C0C0
C0C0
C0C0
C0C0
C0C0
C0C0
C0C0
60C0
3FC0
ENDCHAR
STARTCHAR LATIN
ENCODING 363
SWIDTH 500 0
DWIDTH 12 0
BBX 10 14 1 0
BITMAP
7F80
0000
0000
C0C0
C0C0
C0C0
C0C0
C0C0
C0C0
C0C0
C0C0
C0C0
60C0
3FC0
ENDCHAR
STARTCHAR LATIN
ENCODING 364
SWIDTH 500 0
DWIDTH 12 0
BBX 10 19 1 0
BITMAP
3300
3300
1E00
0000
C0C0
C0C0
C0C0
C0C0
C0C0
C0C0
C0C0
C0C0
C0C0
C0C0
C0C0
C0C0
C0C0
60C0
3FC0
ENDCHAR
STARTCHAR LATIN
ENCODING 365
SWIDTH 500 0
DWIDTH 12 0
BBX 10 16 1 0
BITMAP
3300
3300
1E00
0000
0000
C0C0
C0C0
C0C0
C0C0
C0C0
C0C0
C0C0
C0C0
C0C0
60C0
3FC0
ENDCHAR
STARTCHAR LATIN
ENCODING 366
SWIDTH 500 0
DWIDTH 12 0
BBX 10 19 1 0
BITMAP
1E00
3300
3300
1E00
C0C0
C0C0
C0C0
C0C0
C0C0
C0C0
C0C0
C0C0
C0C0
C0C0
C0C0
C0C0
C0C0
60C0
3FC0
ENDCHAR
STARTCHAR LATIN
ENCODING 367
SWIDTH 500 0
DWIDTH 12 0
BBX 10 17 1 0
BITMAP
1E00
3300
3300
1E00
0000
0000
C0C0
C0C0
C0C0
C0C0
C0C0
C0C0
C0C0
C0C0
C0C0
60C0
3FC0
ENDCHAR
STARTCHAR LATIN
ENCODING 368
SWIDTH 500 0
DWIDTH 12 0
BBX 10 19 1 0
BITMAP
0CC0
1980
3300
0000
C0C0
C0C0
C0C0
C0C0
C0C0
C0C0
C0C0
C0C0
C0C0
C0C0
C0C0
C0C0
C0C0
60C0
3FC0
ENDCHAR
STARTCHAR LATIN
ENCODING 369
SWIDTH 500 0
DWIDTH 12 0
BBX 10 17 1 0
BITMAP
0CC0
1980
3300
6600
0000
0000
C0C0
C0C0
C0C0
C0C0
C0C0
C0C0
C0C0
C0C0
C0C0
60C0
3FC0
ENDCHAR
STARTCHAR LATIN
ENCODING 370
SWIDTH 500 0
DWIDTH 12 0
BBX 11 19 1 -4
BITMAP
C0C0
C0C0
C0C0
C0C0
C0C0
C0C0
C0C0
C0C0
C0C0
C0C0
C0C0
C0C0
C0C0
60C0
3FC0
0180
0300
0300
01E0
ENDCHAR
STARTCHAR LATIN
ENCODING 371
SWIDTH 500 0
DWIDTH 12 0
BBX 11 15 1 -4
BITMAP
C0C0
C0C0
C0C0
C0C0
C0C0
C0C0
C0C0
C0C0
C0C0
60C0
3FC0
0180
0300
0300
01E0
ENDCHAR
STARTCHAR LATIN
ENCODING 372
SWIDTH 500 0
DWIDTH 12 0
BBX 10 19 1 0
BITMAP
1E00
3300
6180
0000
C0C0
C0C0
C0C0
C0C0
C0C0
C0C0
C0C0
C0C0
C0C0
C0C0
CCC0
DEC0
F3C0
E1C0
C0C0
ENDCHAR
STARTCHAR LATIN
ENCODING 373
SWIDTH 500 0
DWIDTH 12 0
BBX 10 17 1 0
BITMAP
0C00
1E00
3300
6180
0000
0000
C0C0
C0C0
C0C0
CCC0
CCC0
CCC0
CCC0
CCC0
CCC0
6CC0
33C0
ENDCHAR
STARTCHAR LATIN
ENCODING 374
SWIDTH 500 0
DWIDTH 12 0
BBX 10 19 1 0
BITMAP
1E00
3300
6180
0000
C0C0
C0C0
C0C0
C0C0
C0C0
C0C0
60C0
3FC0
00C0
00C0
00C0
00C0
00C0
01C0
FF80
ENDCHAR
STARTCHAR LATIN
ENCODING 375
SWIDTH 500 0
DWIDTH 12 0
BBX 10 22 1 -5
BITMAP
0C00
1E00
3300
6180
0000
0000
C0C0
C0C0
C0C0
C0C0
C0C0
C0C0
C0C0
C0C0
C0C0
60C0
3FC0
00C0
00C0
00C0
0180
FF00
ENDCHAR
STARTCHAR LATIN
ENCODING 376
SWIDTH 500 0
DWIDTH 12 0
BBX 10 18 1 0
BITMAP
6180
6180
0000
C0C0
C0C0
C0C0
C0C0
C0C0
C0C0
60C0
3FC0
00C0
00C0
00C0
00C0
00C0
01C0
FF80
ENDCHAR
STARTCHAR LATIN
ENCODING 377
SWIDTH 500 0
DWIDTH 12 0
BBX 10 19 1 0
BITMAP
0300
0600
0C00
0000
FFC0
00C0
00C0
00C0
0180
0300
0600
0C00
1800
3000
6000
C000
C000
C000
FFC0
ENDCHAR
STARTCHAR LATIN
ENCODING 378
SWIDTH 500 0
DWIDTH 12 0
BBX 10 17 1 0
BITMAP
0300
0600
0C00
1800
0000
0000
FFC0
00C0
0180
0300
0600
0C00
1800
3000
6000
C000
FFC0
ENDCHAR
STARTCHAR LATIN
ENCODING 379
SWIDTH 500 0
DWIDTH 12 0
BBX 10 18 1 0
BITMAP
0C00
0C00
0000
FFC0
00C0
00C0
00C0
0180
0300
0600
0C00
1800
3000
6000
C000
C000
C000
FFC0
ENDCHAR
STARTCHAR LATIN
ENCODING 380
SWIDTH 500 0
DWIDTH 12 0
BBX 10 16 1 0
BITMAP
0C00
0C00
0000
0000
0000
FFC0
00C0
0180
0300
0600
0C00
1800
3000
6000
C000
FFC0
ENDCHAR
STARTCHAR LATIN
ENCODING 381
SWIDTH 500 0
DWIDTH 12 0
BBX 10 19 1 0
BITMAP
6180
3300
1E00
0000
FFC0
00C0
00C0
00C0
0180
0300
0600
0C00
1800
3000
6000
C000
C000
C000
FFC0
ENDCHAR
STARTCHAR LATIN
ENCODING 382
SWIDTH 500 0
DWIDTH 12 0
BBX 10 17 1 0
BITMAP
6180
3300
1E00
0C00
0000
0000
FFC0
00C0
0180
0300
0600
0C00
1800
3000
6000
C000
FFC0
ENDCHAR
STARTCHAR LATIN
ENCODING 383
SWIDTH 500 0
DWIDTH 12 0
BBX 8 15 2 0
BITMAP
1F
38
30
30
F0
30
30
30
30
30
30
30
30
30
30
ENDCHAR
STARTCHAR LATIN
ENCODING 461
SWIDTH 500 0
DWIDTH 12 0
BBX 10 19 1 0
BITMAP
6180
3300
1E00
0000
3F00
6180
C0C0
C0C0
C0C0
C0C0
C0C0
FFC0
C0C0
C0C0
C0C0
C0C0
C0C0
C0C0
C0C0
ENDCHAR
STARTCHAR LATIN
ENCODING 462
SWIDTH 500 0
DWIDTH 12 0
BBX 10 17 1 0
BITMAP
6180
3300
1E00
0C00
0000
0000
7F00
0180
00C0
00C0
3FC0
60C0
C0C0
C0C0
C0C0
60C0
3FC0
ENDCHAR
STARTCHAR LATIN
ENCODING 463
SWIDTH 500 0
DWIDTH 12 0
BBX 8 19 2 0
BITMAP
C3
66
3C
00
FF
18
18
18
18
18
18
18
18
18
18
18
18
18
FF
ENDCHAR
STARTCHAR LATIN
ENCODING 464
SWIDTH 500 0
DWIDTH 12 0
BBX 8 17 2 0
BITMAP
C3
66
3C
18
00
00
78
18
18
18
18
18
18
18
18
18
1E
ENDCHAR
STARTCHAR LATIN
ENCODING 465
SWIDTH 500 0
DWIDTH 12 0
BBX 10 19 1 0
BITMAP
6180
3300
1E00
0000
3F00
6180
C0C0
C0C0
C0C0
C0C0
C0C0
C0C0
C0C0
C0C0
C0C0
C0C0
C0C0
6180
3F00
ENDCHAR
STARTCHAR LATIN
ENCODING 466
SWIDTH 500 0
DWIDTH 12 0
BBX 10 17 1 0
BITMAP
6180
3300
1E00
0C00
0000
0000
3F00
6180
C0C0
C0C0
C0C0
C0C0
C0C0
C0C0
C0C0
6180
3F00
ENDCHAR
STARTCHAR LATIN
ENCODING 467
SWIDTH 500 0
DWIDTH 12 0
BBX 10 19 1 0
BITMAP
6180
3300
1E00
0000
C0C0
C0C0
C0C0
C0C0
C0C0
C0C0
C0C0
C0C0
C0C0
C0C0
C0C0
C0C0
C0C0
60C0
3FC0
ENDCHAR
STARTCHAR LATIN
ENCODING 468
SWIDTH 500 0
DWIDTH 12 0
BBX 10 17 1 0
BITMAP
6180
3300
1E00
0C00
0000
0000
C0C0
C0C0
C0C0
C0C0
C0C0
C0C0
C0C0
C0C0
C0C0
60C0
3FC0
ENDCHAR
STARTCHAR LATIN
ENCODING 482
SWIDTH 500 0
DWIDTH 12 0
BBX 10 18 1 0
BITMAP
7F80
0000
0000
3FC0
6600
C600
C600
C600
C600
C600
FF80
C600
C600
C600
C600
C600
C600
C7C0
ENDCHAR
STARTCHAR LATIN
ENCODING 483
SWIDTH 500 0
DWIDTH 12 0
BBX 10 14 1 0
BITMAP
7F80
0000
0000
73C0
1EC0
0CC0
0CC0
3FC0
6C00
CC00
CC00
CC00
6E00
3BC0
ENDCHAR
STARTCHAR LATIN
ENCODING 486
SWIDTH 500 0
DWIDTH 12 0
BBX 10 19 1 0
BITMAP
6180
3300
1E00
0000
3FC0
6000
C000
C000
C000
C000
C000
C7C0
C0C0
C0C0
C0C0
C0C0
C0C0
60C0
3FC0
ENDCHAR
STARTCHAR LATIN
ENCODING 487
SWIDTH 500 0
DWIDTH 12 0
BBX 10 22 1 -5
BITMAP
6180
3300
1E00
0C00
0000
0000
3FC0
60C0
C0C0
C0C0
C0C0
C0C0
C0C0
C0C0
C0C0
60C0
3F80
0180
00C0
00C0
0180
7F00
ENDCHAR
STARTCHAR LATIN
ENCODING 488
SWIDTH 500 0
DWIDTH 12 0
BBX 10 19 1 0
BITMAP
6180
3300
1E00
0000
C0C0
C0C0
C0C0
C0C0
C0C0
C180
C300
FE00
C300
C180
C0C0
C0C0
C0C0
C0C0
C0C0
ENDCHAR
STARTCHAR LATIN
ENCODING 489
SWIDTH 500 0
DWIDTH 12 0
BBX 9 19 2 0
BITMAP
C300
6600
3C00
0000
C000
C000
C000
C000
C300
C300
C600
CC00
F800
D800
CC00
C600
C300
C180
C180
ENDCHAR
STARTCHAR LATIN
ENCODING 490
SWIDTH 500 0
DWIDTH 12 0
BBX 10 19 1 -4
BITMAP
3F00
6180
C0C0
C0C0
C0C0
C0C0
C0C0
C0C0
C0C0
C0C0
C0C0
C0C0
C0C0
6180
3F00
0C00
1800
1800
0F00
ENDCHAR
STARTCHAR LATIN
ENCODING 491
SWIDTH 500 0
DWIDTH 12 0
BBX 10 15 1 -4
BITMAP
3F00
6180
C0C0
C0C0
C0C0
C0C0
C0C0
C0C0
C0C0
6180
3F00
0C00
1800
1800
0F00
ENDCHAR
STARTCHAR LATIN
ENCODING 492
SWIDTH 500 0
DWIDTH 12 0
BBX 10 22 1 -4
BITMAP
7F80
0000
0000
3F00
6180
C0C0
C0C0
C0C0
C0C0
C0C0
C0C0
C0C0
C0C0
C0C0
C0C0
C0C0
6180
3F00
0C00
1800
1800
0F00
ENDCHAR
STARTCHAR LATIN
ENCODING 493
SWIDTH 500 0
DWIDTH 12 0
BBX 10 18 1 -4
BITMAP
7F80
0000
0000
3F00
6180
C0C0
C0C0
C0C0
C0C0
C0C0
C0C0
C0C0
6180
3F00
0C00
1800
1800
0F00
ENDCHAR
STARTCHAR LATIN
ENCODING 496
SWIDTH 500 0
DWIDTH 12 0
BBX 9 22 1 -5
BITMAP
6180
3300
1E00
0C00
0000
0000
0C00
0C00
0C00
0C00
0C00
0C00
0C00
0C00
0C00
0C00
0C00
0C00
0C00
0C00
1800
F000
ENDCHAR
STARTCHAR LATIN
ENCODING 500
SWIDTH 500 0
DWIDTH 12 0
BBX 10 19 1 0
BITMAP
0300
0600
0C00
0000
3FC0
6000
C000
C000
C000
C000
C000
C7C0
C0C0
C0C0
C0C0
C0C0
C0C0
60C0
3FC0
ENDCHAR
STARTCHAR LATIN
ENCODING 501
SWIDTH 500 0
DWIDTH 12 0
BBX 10 22 1 -5
BITMAP
0300
0600
0C00
1800
0000
0000
3FC0
60C0
C0C0
C0C0
C0C0
C0C0
C0C0
C0C0
C0C0
60C0
3F80
0180
00C0
00C0
0180
7F00
ENDCHAR
STARTCHAR LATIN
ENCODING 508
SWIDTH 500 0
DWIDTH 12 0
BBX 10 19 1 0
BITMAP
0300
0600
0C00
0000
3FC0
6600
C600
C600
C600
C600
C600
FF80
C600
C600
C600
C600
C600
C600
C7C0
ENDCHAR
STARTCHAR LATIN
ENCODING 509
SWIDTH 500 0
DWIDTH 12 0
BBX 10 17 1 0
BITMAP
0300
0600
0C00
1800
0000
0000
73C0
1EC0
0CC0
0CC0
3FC0
6C00
CC00
CC00
CC00
6E00
3BC0
ENDCHAR
STARTCHAR LATIN
ENCODING 510
SWIDTH 500 0
DWIDTH 12 0
BBX 10 21 1 -2
BITMAP
0300
0600
0C00
00C0
3FC0
6180
C1C0
C3C0
C3C0
C6C0
C6C0
CCC0
CCC0
D8C0
D8C0
F0C0
F0C0
6180
7F00
C000
C000
ENDCHAR
STARTCHAR LATIN
ENCODING 511
SWIDTH 500 0
DWIDTH 12 0
BBX 12 18 0 -1
BITMAP
0180
0300
0600
0C00
0000
0010
1FB0
30E0
60E0
61E0
6360
6660
6C60
7860
7060
70C0
DF80
8000
ENDCHAR
STARTCHAR LATIN
ENCODING 512
SWIDTH 500 0
DWIDTH 12 0
BBX 10 19 1 0
BITMAP
CC00
6600
3300
0000
3F00
6180
C0C0
C0C0
C0C0
C0C0
C0C0
FFC0
C0C0
C0C0
C0C0
C0C0
C0C0
C0C0
C0C0
ENDCHAR
STARTCHAR LATIN
ENCODING 513
SWIDTH 500 0
DWIDTH 12 0
BBX 10 17 1 0
BITMAP
CC00
6600
3300
1980
0000
0000
7F00
0180
00C0
00C0
3FC0
60C0
C0C0
C0C0
C0C0
60C0
3FC0
ENDCHAR
STARTCHAR LATIN
ENCODING 514
SWIDTH 500 0
DWIDTH 12 0
BBX 10 19 1 0
BITMAP
1E00
3300
3300
0000
3F00
6180
C0C0
C0C0
C0C0
C0C0
C0C0
FFC0
C0C0
C0C0
C0C0
C0C0
C0C0
C0C0
C0C0
ENDCHAR
STARTCHAR LATIN
ENCODING 515
SWIDTH 500 0
DWIDTH 12 0
BBX 10 16 1 0
BITMAP
1E00
3300
3300
0000
0000
7F00
0180
00C0
00C0
3FC0
60C0
C0C0
C0C0
C0C0
60C0
3FC0
ENDCHAR
STARTCHAR LATIN
ENCODING 516
SWIDTH 500 0
DWIDTH 12 0
BBX 10 19 1 0
BITMAP
CC00
6600
3300
0000
3FC0
6000
C000
C000
C000
C000
C000
FF00
C000
C000
C000
C000
C000
6000
3FC0
ENDCHAR
STARTCHAR LATIN
ENCODING 517
SWIDTH 500 0
DWIDTH 12 0
BBX 10 17 1 0
BITMAP
CC00
6600
3300
1980
0000
0000
3FC0
60C0
C0C0
C0C0
C0C0
FFC0
C000
C000
C000
6000
3FC0
ENDCHAR
STARTCHAR LATIN
ENCODING 518
SWIDTH 500 0
DWIDTH 12 0
BBX 10 19 1 0
BITMAP
1E00
3300
3300
0000
3FC0
6000
C000
C000
C000
C000
C000
FF00
C000
C000
C000
C000
C000
6000
3FC0
ENDCHAR
STARTCHAR LATIN
ENCODING 519
SWIDTH 500 0
DWIDTH 12 0
BBX 10 16 1 0
BITMAP
1E00
3300
3300
0000
0000
3FC0
60C0
C0C0
C0C0
C0C0
FFC0
C000
C000
C000
6000
3FC0
ENDCHAR
STARTCHAR LATIN
ENCODING 520
SWIDTH 500 0
DWIDTH 12 0
BBX 9 19 1 0
BITMAP
CC00
6600
3300
0000
7F80
0C00
0C00
0C00
0C00
0C00
0C00
0C00
0C00
0C00
0C00
0C00
0C00
0C00
7F80
ENDCHAR
STARTCHAR LATIN
ENCODING 521
SWIDTH 500 0
DWIDTH 12 0
BBX 9 17 1 0
BITMAP
CC00
6600
3300
1980
0000
0000
3C00
0C00
0C00
0C00
0C00
0C00
0C00
0C00
0C00
0C00
0F00
ENDCHAR
STARTCHAR LATIN
ENCODING 522
SWIDTH 500 0
DWIDTH 12 0
BBX 8 19 2 0
BITMAP
3C
66
66
00
FF
18
18
18
18
18
18
18
18
18
18
18
18
18
FF
ENDCHAR
STARTCHAR LATIN
ENCODING 523
SWIDTH 500 0
DWIDTH 12 0
BBX 6 16 3 0
BITMAP
78
CC
CC
00
00
F0
30
30
30
30
30
30
30
30
30
3C
ENDCHAR
STARTCHAR LATIN
ENCODING 524
SWIDTH 500 0
DWIDTH 12 0
BBX 10 19 1 0
BITMAP
CC00
6600
3300
0000
3F00
6180
C0C0
C0C0
C0C0
C0C0
C0C0
C0C0
C0C0
C0C0
C0C0
C0C0
C0C0
6180
3F00
ENDCHAR
STARTCHAR LATIN
ENCODING 525
SWIDTH 500 0
DWIDTH 12 0
BBX 10 17 1 0
BITMAP
CC00
6600
3300
1980
0000
0000
3F00
6180
C0C0
C0C0
C0C0
C0C0
C0C0
C0C0
C0C0
6180
3F00
ENDCHAR
STARTCHAR LATIN
ENCODING 526
SWIDTH 500 0
DWIDTH 12 0
BBX 10 19 1 0
BITMAP
1E00
3300
3300
0000
3F00
6180
C0C0
C0C0
C0C0
C0C0
C0C0
C0C0
C0C0
C0C0
C0C0
C0C0
C0C0
6180
3F00
ENDCHAR
STARTCHAR LATIN
ENCODING 527
SWIDTH 500 0
DWIDTH 12 0
BBX 10 16 1 0
BITMAP
1E00
3300
3300
0000
0000
3F00
6180
C0C0
C0C0
C0C0
C0C0
C0C0
C0C0
C0C0
6180
3F00
ENDCHAR
STARTCHAR LATIN
ENCODING 528
SWIDTH 500 0
DWIDTH 12 0
BBX 10 19 1 0
BITMAP
CC00
6600
3300
0000
FF00
C180
C0C0
C0C0
C0C0
C0C0
C180
FF00
C180
C0C0
C0C0
C0C0
C0C0
C0C0
C0C0
ENDCHAR
STARTCHAR LATIN
ENCODING 529
SWIDTH 500 0
DWIDTH 12 0
BBX 10 17 1 0
BITMAP
CC00
6600
3300
1980
0000
0000
3FC0
60C0
C000
C000
C000
C000
C000
C000
C000
C000
C000
ENDCHAR
STARTCHAR LATIN
ENCODING 530
SWIDTH 500 0
DWIDTH 12 0
BBX 10 19 1 0
BITMAP
1E00
3300
3300
0000
FF00
C180
C0C0
C0C0
C0C0
C0C0
C180
FF00
C180
C0C0
C0C0
C0C0
C0C0
C0C0
C0C0
ENDCHAR
STARTCHAR LATIN
ENCODING 531
SWIDTH 500 0
DWIDTH 12 0
BBX 10 16 1 0
BITMAP
1E00
3300
3300
0000
0000
3FC0
60C0
C000
C000
C000
C000
C000
C000
C000
C000
C000
ENDCHAR
STARTCHAR LATIN
ENCODING 532
SWIDTH 500 0
DWIDTH 12 0
BBX 10 19 1 0
BITMAP
CC00
6600
3300
0000
C0C0
C0C0
C0C0
C0C0
C0C0
C0C0
C0C0
C0C0
C0C0
C0C0
C0C0
C0C0
C0C0
60C0
3FC0
ENDCHAR
STARTCHAR LATIN
ENCODING 533
SWIDTH 500 0
DWIDTH 12 0
BBX 10 17 1 0
BITMAP
CC00
6600
3300
1980
0000
0000
C0C0
C0C0
C0C0
C0C0
C0C0
C0C0
C0C0
C0C0
C0C0
60C0
3FC0
ENDCHAR
STARTCHAR LATIN
ENCODING 534
SWIDTH 500 0
DWIDTH 12 0
BBX 10 19 1 0
BITMAP
1E00
3300
3300
0000
C0C0
C0C0
C0C0
C0C0
C0C0
C0C0
C0C0
C0C0
C0C0
C0C0
C0C0
C0C0
C0C0
60C0
3FC0
ENDCHAR
STARTCHAR LATIN
ENCODING 535
SWIDTH 500 0
DWIDTH 12 0
BBX 10 16 1 0
BITMAP
1E00
3300
3300
0000
0000
C0C0
C0C0
C0C0
C0C0
C0C0
C0C0
C0C0
C0C0
C0C0
60C0
3FC0
ENDCHAR
STARTCHAR LATIN
ENCODING 542
SWIDTH 500 0
DWIDTH 12 0
BBX 10 19 1 0
BITMAP
6180
3300
1E00
0000
C0C0
C0C0
C0C0
C0C0
C0C0
C0C0
C0C0
FFC0
C0C0
C0C0
C0C0
C0C0
C0C0
C0C0
C0C0
ENDCHAR
STARTCHAR LATIN
ENCODING 543
SWIDTH 500 0
DWIDTH 12 0
BBX 10 19 1 0
BITMAP
6180
3300
1E00
0000
C000
C000
C000
C000
FF00
C180
C0C0
C0C0
C0C0
C0C0
C0C0
C0C0
C0C0
C0C0
C0C0
ENDCHAR
STARTCHAR LATIN
ENCODING 550
SWIDTH 500 0
DWIDTH 12 0
BBX 10 18 1 0
BITMAP
0C00
0C00
0000
3F00
6180
C0C0
C0C0
C0C0
C0C0
C0C0
FFC0
C0C0
C0C0
C0C0
C0C0
C0C0
C0C0
C0C0
ENDCHAR
STARTCHAR LATIN
ENCODING 551
SWIDTH 500 0
DWIDTH 12 0
BBX 10 16 1 0
BITMAP
0C00
0C00
0000
0000
0000
7F00
0180
00C0
00C0
3FC0
60C0
C0C0
C0C0
C0C0
60C0
3FC0
ENDCHAR
STARTCHAR LATIN
ENCODING 552
SWIDTH 500 0
DWIDTH 12 0
BBX 10 20 1 -5
BITMAP
3FC0
6000
C000
C000
C000
C000
C000
FF00
C000
C000
C000
C000
C000
6000
3FC0
0600
0600
0600
0C00
1800
ENDCHAR
STARTCHAR LATIN
ENCODING 553
SWIDTH 500 0
DWIDTH 12 0
BBX 10 16 1 -5
BITMAP
3FC0
60C0
C0C0
C0C0
C0C0
FFC0
C000
C000
C000
6000
3FC0
0600
0600
0600
0C00
1800
ENDCHAR
STARTCHAR LATIN
ENCODING 558
SWIDTH 500 0
DWIDTH 12 0
BBX 10 18 1 0
BITMAP
0C00
0C00
0000
3F00
6180
C0C0
C0C0
C0C0
C0C0
C0C0
C0C0
C0C0
C0C0
C0C0
C0C0
C0C0
6180
3F00
ENDCHAR
STARTCHAR LATIN
ENCODING 559
SWIDTH 500 0
DWIDTH 12 0
BBX 10 16 1 0
BITMAP
0C00
0C00
0000
0000
0000
3F00
6180
C0C0
C0C0
C0C0
C0C0
C0C0
C0C0
C0C0
6180
3F00
ENDCHAR
STARTCHAR BREVE
ENCODING 728
SWIDTH 500 0
DWIDTH 12 0
BBX 8 3 2 16
BITMAP
C3
66
3C
ENDCHAR
STARTCHAR DOT
ENCODING 729
SWIDTH 500 0
DWIDTH 12 0
BBX 2 2 5 16
BITMAP
C0
C0
ENDCHAR
STARTCHAR OGONEK
ENCODING 731
SWIDTH 500 0
DWIDTH 12 0
BBX 5 4 7 -4
BITMAP
60
C0
C0
78
ENDCHAR
STARTCHAR SMALL
ENCODING 732
SWIDTH 500 0
DWIDTH 12 0
BBX 10 3 1 16
BITMAP
38C0
7F80
C700
ENDCHAR
STARTCHAR DOUBLE
ENCODING 733
SWIDTH 500 0
DWIDTH 12 0
BBX 8 3 3 16
BITMAP
33
66
CC
ENDCHAR
STARTCHAR COMBINING
ENCODING 774
SWIDTH 500 0
DWIDTH 12 0
BBX 6 3 3 16
BITMAP
CC
CC
78
ENDCHAR
STARTCHAR COMBINING
ENCODING 776
SWIDTH 500 0
DWIDTH 12 0
BBX 8 2 2 16
BITMAP
C3
C3
ENDCHAR
STARTCHAR CYRILLIC
ENCODING 1025
SWIDTH 500 0
DWIDTH 12 0
BBX 10 18 1 0
BITMAP
6180
6180
0000
3FC0
6000
C000
C000
C000
C000
C000
FF00
C000
C000
C000
C000
C000
6000
3FC0
ENDCHAR
STARTCHAR CYRILLIC
ENCODING 1030
SWIDTH 500 0
DWIDTH 12 0
BBX 8 15 2 0
BITMAP
FF
18
18
18
18
18
18
18
18
18
18
18
18
18
FF
ENDCHAR
STARTCHAR CYRILLIC
ENCODING 1031
SWIDTH 500 0
DWIDTH 12 0
BBX 8 18 2 0
BITMAP
C3
C3
00
FF
18
18
18
18
18
18
18
18
18
18
18
18
18
FF
ENDCHAR
STARTCHAR CYRILLIC
ENCODING 1038
SWIDTH 500 0
DWIDTH 12 0
BBX 10 19 1 0
BITMAP
3300
3300
1E00
0000
C0C0
C0C0
C0C0
C0C0
C0C0
C0C0
60C0
3FC0
00C0
00C0
00C0
00C0
00C0
01C0
FF80
ENDCHAR
STARTCHAR CYRILLIC
ENCODING 1040
SWIDTH 500 0
DWIDTH 12 0
BBX 10 15 1 0
BITMAP
3F00
6180
C0C0
C0C0
C0C0
C0C0
C0C0
FFC0
C0C0
C0C0
C0C0
C0C0
C0C0
C0C0
C0C0
ENDCHAR
STARTCHAR CYRILLIC
ENCODING 1041
SWIDTH 500 0
DWIDTH 12 0
BBX 10 15 1 0
BITMAP
FF00
C000
C000
C000
C000
C000
C000
FF00
C180
C0C0
C0C0
C0C0
C0C0
C180
FF00
ENDCHAR
STARTCHAR CYRILLIC
ENCODING 1042
SWIDTH 500 0
DWIDTH 12 0
BBX 10 15 1 0
BITMAP
FF00
C180
C0C0
C0C0
C0C0
C0C0
C180
FF00
C180
C0C0
C0C0
C0C0
C0C0
C180
FF00
ENDCHAR
STARTCHAR CYRILLIC
ENCODING 1043
SWIDTH 500 0
DWIDTH 12 0
BBX 10 15 1 0
BITMAP
3FC0
6000
C000
C000
C000
C000
C000
C000
C000
C000
C000
C000
C000
C000
C000
ENDCHAR
STARTCHAR CYRILLIC
ENCODING 1044
SWIDTH 500 0
DWIDTH 12 0
BBX 10 15 1 0
BITMAP
1F80
3180
6180
6180
6180
6180
6180
6180
6180
6180
6180
6180
7F80
C0C0
C0C0
ENDCHAR
STARTCHAR CYRILLIC
ENCODING 1045
SWIDTH 500 0
DWIDTH 12 0
BBX 10 15 1 0
BITMAP
3FC0
6000
C000
C000
C000
C000
C000
FF00
C000
C000
C000
C000
C000
6000
3FC0
ENDCHAR
STARTCHAR CYRILLIC
ENCODING 1046
SWIDTH 500 0
DWIDTH 12 0
BBX 10 15 1 0
BITMAP
CCC0
CCC0
CCC0
CCC0
CCC0
CCC0
6D80
3F00
6D80
CCC0
CCC0
CCC0
CCC0
CCC0
CCC0
ENDCHAR
STARTCHAR CYRILLIC
ENCODING 1047
SWIDTH 500 0
DWIDTH 12 0
BBX 10 15 1 0
BITMAP
FF00
0180
00C0
00C0
00C0
0180
3F00
0180
00C0
00C0
00C0
00C0
00C0
0180
FF00
ENDCHAR
STARTCHAR CYRILLIC
ENCODING 1048
SWIDTH 500 0
DWIDTH 12 0
BBX 10 15 1 0
BITMAP
C0C0
C1C0
C1C0
C3C0
C3C0
C6C0
C6C0
CCC0
CCC0
D8C0
D8C0
F0C0
F0C0
E0C0
E0C0
ENDCHAR
STARTCHAR CYRILLIC
ENCODING 1049
SWIDTH 500 0
DWIDTH 12 0
BBX 10 19 1 0
BITMAP
3300
3300
1E00
0000
C0C0
C1C0
C1C0
C3C0
C3C0
C6C0
C6C0
CCC0
CCC0
D8C0
D8C0
F0C0
F0C0
E0C0
E0C0
ENDCHAR
STARTCHAR CYRILLIC
ENCODING 1050
SWIDTH 500 0
DWIDTH 12 0
BBX 10 15 1 0
BITMAP
C0C0
C0C0
C0C0
C0C0
C0C0
C180
C300
FE00
C300
C180
C0C0
C0C0
C0C0
C0C0
C0C0
ENDCHAR
STARTCHAR CYRILLIC
ENCODING 1051
SWIDTH 500 0
DWIDTH 12 0
BBX 10 15 1 0
BITMAP
3FC0
60C0
C0C0
C0C0
C0C0
C0C0
C0C0
C0C0
C0C0
C0C0
C0C0
C0C0
C0C0
C0C0
C0C0
ENDCHAR
STARTCHAR CYRILLIC
ENCODING 1052
SWIDTH 500 0
DWIDTH 12 0
BBX 10 15 1 0
BITMAP
C0C0
E1C0
F3C0
DEC0
CCC0
C0C0
C0C0
C0C0
C0C0
C0C0
C0C0
C0C0
C0C0
C0C0
C0C0
ENDCHAR
STARTCHAR CYRILLIC
ENCODING 1053
SWIDTH 500 0
DWIDTH 12 0
BBX 10 15 1 0
BITMAP
C0C0
C0C0
C0C0
C0C0
C0C0
C0C0
C0C0
FFC0
C0C0
C0C0
C0C0
C0C0
C0C0
C0C0
C0C0
ENDCHAR
STARTCHAR CYRILLIC
ENCODING 1054
SWIDTH 500 0
DWIDTH 12 0
BBX 10 15 1 0
BITMAP
3F00
6180
C0C0
C0C0
C0C0
C0C0
C0C0
C0C0
C0C0
C0C0
C0C0
C0C0
C0C0
6180
3F00
ENDCHAR
STARTCHAR CYRILLIC
ENCODING 1055
SWIDTH 500 0
DWIDTH 12 0
BBX 10 15 1 0
BITMAP
FFC0
C0C0
C0C0
C0C0
C0C0
C0C0
C0C0
C0C0
C0C0
C0C0
C0C0
C0C0
C0C0
C0C0
C0C0
ENDCHAR
STARTCHAR CYRILLIC
ENCODING 1056
SWIDTH 500 0
DWIDTH 12 0
BBX 10 15 1 0
BITMAP
FF00
C180
C0C0
C0C0
C0C0
C0C0
C180
FF00
C000
C000
C000
C000
C000
C000
C000
ENDCHAR
STARTCHAR CYRILLIC
ENCODING 1057
SWIDTH 500 0
DWIDTH 12 0
BBX 10 15 1 0
BITMAP
3FC0
6000
C000
C000
C000
C000
C000
C000
C000
C000
C000
C000
C000
6000
3FC0
ENDCHAR
STARTCHAR CYRILLIC
ENCODING 1058
SWIDTH 500 0
DWIDTH 12 0
BBX 10 15 1 0
BITMAP
FFC0
0C00
0C00
0C00
0C00
0C00
0C00
0C00
0C00
0C00
0C00
0C00
0C00
0C00
0C00
ENDCHAR
STARTCHAR CYRILLIC
ENCODING 1059
SWIDTH 500 0
DWIDTH 12 0
BBX 10 15 1 0
BITMAP
C0C0
C0C0
C0C0
C0C0
C0C0
C0C0
60C0
3FC0
00C0
00C0
00C0
00C0
00C0
01C0
FF80
ENDCHAR
STARTCHAR CYRILLIC
ENCODING 1060
SWIDTH 500 0
DWIDTH 12 0
BBX 10 15 1 0
BITMAP
0C00
0C00
3F00
6D80
CCC0
CCC0
CCC0
CCC0
CCC0
CCC0
CCC0
6D80
3F00
0C00
0C00
ENDCHAR
STARTCHAR CYRILLIC
ENCODING 1061
SWIDTH 500 0
DWIDTH 12 0
BBX 10 15 1 0
BITMAP
C0C0
C0C0
C0C0
C0C0
C0C0
C0C0
6180
3F00
6180
C0C0
C0C0
C0C0
C0C0
C0C0
C0C0
ENDCHAR
STARTCHAR CYRILLIC
ENCODING 1062
SWIDTH 500 0
DWIDTH 12 0
BBX 11 20 1 -5
BITMAP
C0C0
C0C0
C0C0
C0C0
C0C0
C0C0
C0C0
C0C0
C0C0
C0C0
C0C0
C0C0
C0C0
60C0
3FE0
0060
0060
0060
00C0
0180
ENDCHAR
STARTCHAR CYRILLIC
ENCODING 1063
SWIDTH 500 0
DWIDTH 12 0
BBX 10 15 1 0
BITMAP
C0C0
C0C0
C0C0
C0C0
C0C0
C0C0
60C0
3FC0
00C0
00C0
00C0
00C0
00C0
00C0
00C0
ENDCHAR
STARTCHAR CYRILLIC
ENCODING 1064
SWIDTH 500 0
DWIDTH 12 0
BBX 10 15 1 0
BITMAP
CCC0
CCC0
CCC0
CCC0
CCC0
CCC0
CCC0
CCC0
CCC0
CCC0
CCC0
CCC0
CCC0
6D80
3F00
ENDCHAR
STARTCHAR CYRILLIC
ENCODING 1065
SWIDTH 500 0
DWIDTH 12 0
BBX 11 20 1 -5
BITMAP
CCC0
CCC0
CCC0
CCC0
CCC0
CCC0
CCC0
CCC0
CCC0
CCC0
CCC0
CCC0
CCC0
6CC0
3FE0
0060
0060
0060
00C0
0180
ENDCHAR
STARTCHAR CYRILLIC
ENCODING 1066
SWIDTH 500 0
DWIDTH 12 0
BBX 11 15 0 0
BITMAP
F800
1800
1800
1800
1800
1800
1800
1F80
18C0
1860
1860
1860
1860
18C0
1F80
ENDCHAR
STARTCHAR CYRILLIC
ENCODING 1067
SWIDTH 500 0
DWIDTH 12 0
BBX 10 15 1 0
BITMAP
C0C0
C0C0
C0C0
C0C0
C0C0
C0C0
C0C0
F8C0
CCC0
C6C0
C6C0
C6C0
C6C0
CCC0
F8C0
ENDCHAR
STARTCHAR CYRILLIC
ENCODING 1068
SWIDTH 500 0
DWIDTH 12 0
BBX 8 15 3 0
BITMAP
C0
C0
C0
C0
C0
C0
C0
FC
C6
C3
C3
C3
C3
C6
FC
ENDCHAR
STARTCHAR CYRILLIC
ENCODING 1069
SWIDTH 500 0
DWIDTH 12 0
BBX 10 15 1 0
BITMAP
FF00
0180
00C0
00C0
00C0
00C0
00C0
3FC0
00C0
00C0
00C0
00C0
00C0
0180
FF00
ENDCHAR
STARTCHAR CYRILLIC
ENCODING 1070
SWIDTH 500 0
DWIDTH 12 0
BBX 10 15 1 0
BITMAP
C700
CD80
D8C0
D8C0
D8C0
D8C0
D8C0
F8C0
D8C0
D8C0
D8C0
D8C0
D8C0
CD80
C700
ENDCHAR
STARTCHAR CYRILLIC
ENCODING 1071
SWIDTH 500 0
DWIDTH 12 0
BBX 10 15 1 0
BITMAP
3FC0
60C0
C0C0
C0C0
C0C0
C0C0
60C0
3FC0
60C0
C0C0
C0C0
C0C0
C0C0
C0C0
C0C0
ENDCHAR
STARTCHAR CYRILLIC
ENCODING 1072
SWIDTH 500 0
DWIDTH 12 0
BBX 10 11 1 0
BITMAP
7F00
0180
00C0
00C0
3FC0
60C0
C0C0
C0C0
C0C0
60C0
3FC0
ENDCHAR
STARTCHAR CYRILLIC
ENCODING 1073
SWIDTH 500 0
DWIDTH 12 0
BBX 10 11 1 0
BITMAP
3F80
6000
C000
C000
FF00
C180
C0C0
C0C0
C0C0
6180
3F00
ENDCHAR
STARTCHAR CYRILLIC
ENCODING 1074
SWIDTH 500 0
DWIDTH 12 0
BBX 10 15 1 0
BITMAP
3800
6C00
C600
C600
C600
C600
EC00
FF00
C180
C0C0
C0C0
C0C0
C0C0
6180
3F00
ENDCHAR
STARTCHAR CYRILLIC
ENCODING 1075
SWIDTH 500 0
DWIDTH 12 0
BBX 10 11 1 0
BITMAP
FF80
00C0
00C0
00C0
00C0
7F80
C000
C000
C000
C000
7FC0
ENDCHAR
STARTCHAR CYRILLIC
ENCODING 1076
SWIDTH 500 0
DWIDTH 12 0
BBX 10 16 1 -5
BITMAP
3FC0
60C0
C0C0
C0C0
C0C0
C0C0
C0C0
C0C0
C0C0
60C0
3FC0
00C0
00C0
00C0
0180
7F00
ENDCHAR
STARTCHAR CYRILLIC
ENCODING 1077
SWIDTH 500 0
DWIDTH 12 0
BBX 10 11 1 0
BITMAP
3FC0
60C0
C0C0
C0C0
C0C0
FFC0
C000
C000
C000
6000
3FC0
ENDCHAR
STARTCHAR CYRILLIC
ENCODING 1078
SWIDTH 500 0
DWIDTH 12 0
BBX 10 11 1 0
BITMAP
CCC0
CCC0
6D80
3F00
1E00
1E00
3F00
6D80
6D80
CCC0
CCC0
ENDCHAR
STARTCHAR CYRILLIC
ENCODING 1079
SWIDTH 500 0
DWIDTH 12 0
BBX 10 11 1 0
BITMAP
FF00
0180
00C0
00C0
0180
3F00
0180
00C0
00C0
0180
FF00
ENDCHAR
STARTCHAR CYRILLIC
ENCODING 1080
SWIDTH 500 0
DWIDTH 12 0
BBX 10 11 1 0
BITMAP
C0C0
C0C0
C0C0
C0C0
C0C0
C0C0
C0C0
C0C0
C0C0
60C0
3FC0
ENDCHAR
STARTCHAR CYRILLIC
ENCODING 1081
SWIDTH 500 0
DWIDTH 12 0
BBX 10 16 1 0
BITMAP
3300
3300
1E00
0000
0000
C0C0
C0C0
C0C0
C0C0
C0C0
C0C0
C0C0
C0C0
C0C0
60C0
3FC0
ENDCHAR
STARTCHAR CYRILLIC
ENCODING 1082
SWIDTH 500 0
DWIDTH 12 0
BBX 9 11 2 0
BITMAP
C300
C300
C600
CC00
D800
F800
CC00
C600
C300
C180
C180
ENDCHAR
STARTCHAR CYRILLIC
ENCODING 1083
SWIDTH 500 0
DWIDTH 12 0
BBX 10 11 1 0
BITMAP
3FC0
60C0
C0C0
C0C0
C0C0
C0C0
C0C0
C0C0
C0C0
C0C0
C0C0
ENDCHAR
STARTCHAR CYRILLIC
ENCODING 1084
SWIDTH 500 0
DWIDTH 12 0
BBX 10 11 1 0
BITMAP
C0C0
E1C0
F3C0
DEC0
CCC0
C0C0
C0C0
C0C0
C0C0
C0C0
C0C0
ENDCHAR
STARTCHAR CYRILLIC
ENCODING 1085
SWIDTH 500 0
DWIDTH 12 0
BBX 10 11 1 0
BITMAP
C0C0
C0C0
C0C0
C0C0
C0C0
FFC0
C0C0
C0C0
C0C0
C0C0
C0C0
ENDCHAR
STARTCHAR CYRILLIC
ENCODING 1086
SWIDTH 500 0
DWIDTH 12 0
BBX 10 11 1 0
BITMAP
3F00
6180
C0C0
C0C0
C0C0
C0C0
C0C0
C0C0
C0C0
6180
3F00
ENDCHAR
STARTCHAR CYRILLIC
ENCODING 1087
SWIDTH 500 0
DWIDTH 12 0
BBX 10 11 1 0
BITMAP
FF00
C180
C0C0
C0C0
C0C0
C0C0
C0C0
C0C0
C0C0
C0C0
C0C0
ENDCHAR
STARTCHAR CYRILLIC
ENCODING 1088
SWIDTH 500 0
DWIDTH 12 0
BBX 10 16 1 -5
BITMAP
FF00
C180
C0C0
C0C0
C0C0
C0C0
C0C0
C0C0
C0C0
C180
FF00
C000
C000
C000
C000
C000
ENDCHAR
STARTCHAR CYRILLIC
ENCODING 1089
SWIDTH 500 0
DWIDTH 12 0
BBX 10 11 1 0
BITMAP
3FC0
6000
C000
C000
C000
C000
C000
C000
C000
6000
3FC0
ENDCHAR
STARTCHAR CYRILLIC
ENCODING 1090
SWIDTH 500 0
DWIDTH 12 0
BBX 10 11 1 0
BITMAP
F300
CD80
CCC0
CCC0
CCC0
CCC0
CCC0
CCC0
C0C0
C0C0
C0C0
ENDCHAR
STARTCHAR CYRILLIC
ENCODING 1091
SWIDTH 500 0
DWIDTH 12 0
BBX 10 16 1 -5
BITMAP
C0C0
C0C0
C0C0
C0C0
C0C0
C0C0
C0C0
C0C0
C0C0
60C0
3FC0
00C0
00C0
00C0
0180
FF00
ENDCHAR
STARTCHAR CYRILLIC
ENCODING 1092
SWIDTH 500 0
DWIDTH 12 0
BBX 10 14 1 -3
BITMAP
3F00
6D80
CCC0
CCC0
CCC0
CCC0
CCC0
CCC0
CCC0
6D80
3F00
0C00
0C00
0C00
ENDCHAR
STARTCHAR CYRILLIC
ENCODING 1093
SWIDTH 500 0
DWIDTH 12 0
BBX 10 11 1 0
BITMAP
C0C0
C0C0
6180
3300
1E00
1E00
3300
6180
6180
C0C0
C0C0
ENDCHAR
STARTCHAR CYRILLIC
ENCODING 1094
SWIDTH 500 0
DWIDTH 12 0
BBX 11 16 1 -5
BITMAP
C0C0
C0C0
C0C0
C0C0
C0C0
C0C0
C0C0
C0C0
C0C0
60C0
3FE0
0060
0060
0060
00C0
0180
ENDCHAR
STARTCHAR CYRILLIC
ENCODING 1095
SWIDTH 500 0
DWIDTH 12 0
BBX 10 11 1 0
BITMAP
C0C0
C0C0
C0C0
C0C0
C0C0
60C0
3FC0
00C0
00C0
00C0
00C0
ENDCHAR
STARTCHAR CYRILLIC
ENCODING 1096
SWIDTH 500 0
DWIDTH 12 0
BBX 10 11 1 0
BITMAP
C0C0
C0C0
C0C0
CCC0
CCC0
CCC0
CCC0
CCC0
CCC0
6CC0
33C0
ENDCHAR
STARTCHAR CYRILLIC
ENCODING 1097
SWIDTH 500 0
DWIDTH 12 0
BBX 11 16 1 -5
BITMAP
C0C0
C0C0
C0C0
CCC0
CCC0
CCC0
CCC0
CCC0
CCC0
6CC0
33E0
0060
0060
0060
00C0
0180
ENDCHAR
STARTCHAR CYRILLIC
ENCODING 1098
SWIDTH 500 0
DWIDTH 12 0
BBX 11 11 0 0
BITMAP
F800
1800
1800
1800
1F80
18C0
1860
1860
1860
18C0
1F80
ENDCHAR
STARTCHAR CYRILLIC
ENCODING 1099
SWIDTH 500 0
DWIDTH 12 0
BBX 10 11 1 0
BITMAP
C0C0
C0C0
C0C0
C0C0
F8C0
CCC0
C6C0
C6C0
C6C0
CCC0
F8C0
ENDCHAR
STARTCHAR CYRILLIC
ENCODING 1100
SWIDTH 500 0
DWIDTH 12 0
BBX 8 11 3 0
BITMAP
C0
C0
C0
C0
FC
C6
C3
C3
C3
C6
FC
ENDCHAR
STARTCHAR CYRILLIC
ENCODING 1101
SWIDTH 500 0
DWIDTH 12 0
BBX 10 11 1 0
BITMAP
FF00
0180
00C0
00C0
00C0
3FC0
00C0
00C0
00C0
0180
FF00
ENDCHAR
STARTCHAR CYRILLIC
ENCODING 1102
SWIDTH 500 0
DWIDTH 12 0
BBX 10 11 1 0
BITMAP
C700
CD80
D8C0
D8C0
D8C0
F8C0
D8C0
D8C0
D8C0
CD80
C700
ENDCHAR
STARTCHAR CYRILLIC
ENCODING 1103
SWIDTH 500 0
DWIDTH 12 0
BBX 10 11 1 0
BITMAP
3FC0
60C0
C0C0
C0C0
60C0
3FC0
60C0
C0C0
C0C0
C0C0
C0C0
ENDCHAR
STARTCHAR CYRILLIC
ENCODING 1105
SWIDTH 500 0
DWIDTH 12 0
BBX 10 16 1 0
BITMAP
6180
6180
0000
0000
0000
3FC0
60C0
C0C0
C0C0
C0C0
FFC0
C000
C000
C000
6000
3FC0
ENDCHAR
STARTCHAR CYRILLIC
ENCODING 1110
SWIDTH 500 0
DWIDTH 12 0
BBX 6 15 3 0
BITMAP
30
30
00
00
F0
30
30
30
30
30
30
30
30
30
3C
ENDCHAR
STARTCHAR CYRILLIC
ENCODING 1111
SWIDTH 500 0
DWIDTH 12 0
BBX 8 16 2 0
BITMAP
C3
C3
00
00
00
78
18
18
18
18
18
18
18
18
18
1E
ENDCHAR
STARTCHAR CYRILLIC
ENCODING 1118
SWIDTH 500 0
DWIDTH 12 0
BBX 10 21 1 -5
BITMAP
3300
3300
1E00
0000
0000
C0C0
C0C0
C0C0
C0C0
C0C0
C0C0
C0C0
C0C0
C0C0
60C0
3FC0
00C0
00C0
00C0
0180
FF00
ENDCHAR
STARTCHAR CYRILLIC
ENCODING 1168
SWIDTH 500 0
DWIDTH 12 0
BBX 10 15 1 0
BITMAP
00C0
00C0
0180
3F00
6000
C000
C000
C000
C000
C000
C000
C000
C000
C000
C000
ENDCHAR
STARTCHAR CYRILLIC
ENCODING 1169
SWIDTH 500 0
DWIDTH 12 0
BBX 10 11 1 0
BITMAP
00C0
00C0
0180
3F00
6000
C000
C000
C000
C000
C000
C000
ENDCHAR
STARTCHAR DOUBLE
ENCODING 8214
SWIDTH 500 0
DWIDTH 12 0
BBX 6 18 3 -2
BITMAP
CC
CC
CC
CC
CC
CC
CC
CC
CC
CC
CC
CC
CC
CC
CC
CC
CC
CC
ENDCHAR
STARTCHAR LEFT
ENCODING 8216
SWIDTH 500 0
DWIDTH 12 0
BBX 2 7 5 10
BITMAP
C0
C0
C0
C0
C0
C0
C0
ENDCHAR
STARTCHAR RIGHT
ENCODING 8217
SWIDTH 500 0
DWIDTH 12 0
BBX 2 7 5 10
BITMAP
C0
C0
C0
C0
C0
C0
C0
ENDCHAR
STARTCHAR LEFT
ENCODING 8220
SWIDTH 500 0
DWIDTH 12 0
BBX 8 7 2 10
BITMAP
C3
C3
C3
C3
C3
C3
C3
ENDCHAR
STARTCHAR RIGHT
ENCODING 8221
SWIDTH 500 0
DWIDTH 12 0
BBX 8 7 2 10
BITMAP
C3
C3
C3
C3
C3
C3
C3
ENDCHAR
STARTCHAR BULLET
ENCODING 8226
SWIDTH 500 0
DWIDTH 12 0
BBX 6 6 3 4
BITMAP
78
FC
FC
FC
FC
78
ENDCHAR
STARTCHAR HORIZONTAL
ENCODING 8230
SWIDTH 500 0
DWIDTH 12 0
BBX 10 2 1 0
BITMAP
CCC0
CCC0
ENDCHAR
STARTCHAR SINGLE
ENCODING 8249
SWIDTH 500 0
DWIDTH 12 0
BBX 6 9 2 1
BITMAP
0C
18
30
60
C0
60
30
18
0C
ENDCHAR
STARTCHAR SINGLE
ENCODING 8250
SWIDTH 500 0
DWIDTH 12 0
BBX 6 9 4 1
BITMAP
C0
60
30
18
0C
18
30
60
C0
ENDCHAR
STARTCHAR DOUBLE
ENCODING 8252
SWIDTH 500 0
DWIDTH 12 0
BBX 8 15 2 0
BITMAP
C3
C3
C3
C3
C3
C3
C3
C3
C3
C3
C3
00
00
C3
C3
ENDCHAR
STARTCHAR SUPERSCRIPT
ENCODING 8319
SWIDTH 500 0
DWIDTH 12 0
BBX 6 8 3 8
BITMAP
F8
CC
CC
CC
CC
CC
CC
CC
ENDCHAR
STARTCHAR EURO
ENCODING 8364
SWIDTH 500 0
DWIDTH 12 0
BBX 11 16 0 -1
BITMAP
0780
0CC0
1860
1860
3000
3000
FF00
3000
3000
FF00
3000
3000
1860
1860
0CC0
0780
ENDCHAR
STARTCHAR ALMOST
ENCODING 8776
SWIDTH 500 0
DWIDTH 12 0
BBX 10 8 1 3
BITMAP
38C0
6D80
C700
0000
0000
38C0
6D80
C700
ENDCHAR
STARTCHAR REVERSED
ENCODING 8976
SWIDTH 500 0
DWIDTH 12 0
BBX 10 6 1 4
BITMAP
FFC0
C000
C000
C000
C000
C000
ENDCHAR
STARTCHAR TURNED
ENCODING 8985
SWIDTH 500 0
DWIDTH 12 0
BBX 10 6 1 4
BITMAP
C000
C000
C000
C000
C000
FFC0
ENDCHAR
STARTCHAR BOX
ENCODING 9472
SWIDTH 500 0
DWIDTH 12 0
BBX 12 2 0 6
BITMAP
FFF0
FFF0
ENDCHAR
STARTCHAR BOX
ENCODING 9473
SWIDTH 500 0
DWIDTH 12 0
BBX 12 4 0 5
BITMAP
FFF0
FFF0
FFF0
FFF0
ENDCHAR
STARTCHAR BOX
ENCODING 9474
SWIDTH 500 0
DWIDTH 12 0
BBX 2 24 5 -5
BITMAP
C0
C0
C0
C0
C0
C0
C0
C0
C0
C0
C0
C0
C0
C0
C0
C0
C0
C0
C0
C0
C0
C0
C0
C0
ENDCHAR
STARTCHAR BOX
ENCODING 9475
SWIDTH 500 0
DWIDTH 12 0
BBX 4 24 4 -5
BITMAP
F0
F0
F0
F0
F0
F0
F0
F0
F0
F0
F0
F0
F0
F0
F0
F0
F0
F0
F0
F0
F0
F0
F0
F0
ENDCHAR
STARTCHAR BOX
ENCODING 9476
SWIDTH 500 0
DWIDTH 12 0
BBX 10 2 1 6
BITMAP
CCC0
CCC0
ENDCHAR
STARTCHAR BOX
ENCODING 9477
SWIDTH 500 0
DWIDTH 12 0
BBX 10 4 1 5
BITMAP
CCC0
CCC0
CCC0
CCC0
ENDCHAR
STARTCHAR BOX
ENCODING 9478
SWIDTH 500 0
DWIDTH 12 0
BBX 2 20 5 -3
BITMAP
C0
C0
C0
C0
00
00
00
00
C0
C0
C0
C0
00
00
00
00
C0
C0
C0
C0
ENDCHAR
STARTCHAR BOX
ENCODING 9479
SWIDTH 500 0
DWIDTH 12 0
BBX 4 20 4 -3
BITMAP
F0
F0
F0
F0
00
00
00
00
F0
F0
F0
F0
00
00
00
00
F0
F0
F0
F0
ENDCHAR
STARTCHAR BOX
ENCODING 9480
SWIDTH 500 0
DWIDTH 12 0
BBX 11 2 0 6
BITMAP
DB60
DB60
ENDCHAR
STARTCHAR BOX
ENCODING 9481
SWIDTH 500 0
DWIDTH 12 0
BBX 11 4 0 5
BITMAP
DB60
DB60
DB60
DB60
ENDCHAR
STARTCHAR BOX
ENCODING 9482
SWIDTH 500 0
DWIDTH 12 0
BBX 2 22 5 -4
BITMAP
C0
C0
C0
C0
00
00
C0
C0
C0
C0
00
00
C0
C0
C0
C0
00
00
C0
C0
C0
C0
ENDCHAR
STARTCHAR BOX
ENCODING 9483
SWIDTH 500 0
DWIDTH 12 0
BBX 4 22 4 -4
BITMAP
F0
F0
F0
F0
00
00
F0
F0
F0
F0
00
00
F0
F0
F0
F0
00
00
F0
F0
F0
F0
ENDCHAR
STARTCHAR BOX
ENCODING 9484
SWIDTH 500 0
DWIDTH 12 0
BBX 7 13 5 -5
BITMAP
FE
FE
C0
C0
C0
C0
C0
C0
C0
C0
C0
C0
C0
ENDCHAR
STARTCHAR BOX
ENCODING 9485
SWIDTH 500 0
DWIDTH 12 0
BBX 7 14 5 -5
BITMAP
FE
FE
FE
FE
C0
C0
C0
C0
C0
C0
C0
C0
C0
C0
ENDCHAR
STARTCHAR BOX
ENCODING 9486
SWIDTH 500 0
DWIDTH 12 0
BBX 8 13 4 -5
BITMAP
FF
FF
F0
F0
F0
F0
F0
F0
F0
F0
F0
F0
F0
ENDCHAR
STARTCHAR BOX
ENCODING 9487
SWIDTH 500 0
DWIDTH 12 0
BBX 8 14 4 -5
BITMAP
FF
FF
FF
FF
F0
F0
F0
F0
F0
F0
F0
F0
F0
F0
ENDCHAR
STARTCHAR BOX
ENCODING 9488
SWIDTH 500 0
DWIDTH 12 0
BBX 7 13 0 -5
BITMAP
FE
FE
06
06
06
06
06
06
06
06
06
06
06
ENDCHAR
STARTCHAR BOX
ENCODING 9489
SWIDTH 500 0
DWIDTH 12 0
BBX 7 14 0 -5
BITMAP
FE
FE
FE
FE
06
06
06
06
06
06
06
06
06
06
ENDCHAR
STARTCHAR BOX
ENCODING 9490
SWIDTH 500 0
DWIDTH 12 0
BBX 8 13 0 -5
BITMAP
FF
FF
0F
0F
0F
0F
0F
0F
0F
0F
0F
0F
0F
ENDCHAR
STARTCHAR BOX
ENCODING 9491
SWIDTH 500 0
DWIDTH 12 0
BBX 8 14 0 -5
BITMAP
FF
FF
FF
FF
0F
0F
0F
0F
0F
0F
0F
0F
0F
0F
ENDCHAR
STARTCHAR BOX
ENCODING 9492
SWIDTH 500 0
DWIDTH 12 0
BBX 7 13 5 6
BITMAP
C0
C0
C0
C0
C0
C0
C0
C0
C0
C0
C0
FE
FE
ENDCHAR
STARTCHAR BOX
ENCODING 9493
SWIDTH 500 0
DWIDTH 12 0
BBX 7 14 5 5
BITMAP
C0
C0
C0
C0
C0
C0
C0
C0
C0
C0
FE
FE
FE
FE
ENDCHAR
STARTCHAR BOX
ENCODING 9494
SWIDTH 500 0
DWIDTH 12 0
BBX 8 13 4 6
BITMAP
F0
F0
F0
F0
F0
F0
F0
F0
F0
F0
F0
FF
FF
ENDCHAR
STARTCHAR BOX
ENCODING 9495
SWIDTH 500 0
DWIDTH 12 0
BBX 8 14 4 5
BITMAP
F0
F0
F0
F0
F0
F0
F0
F0
F0
F0
FF
FF
FF
FF
ENDCHAR
STARTCHAR BOX
ENCODING 9496
SWIDTH 500 0
DWIDTH 12 0
BBX 7 13 0 6
BITMAP
06
06
06
06
06
06
06
06
06
06
06
FE
FE
ENDCHAR
STARTCHAR BOX
ENCODING 9497
SWIDTH 500 0
DWIDTH 12 0
BBX 7 14 0 5
BITMAP
06
06
06
06
06
06
06
06
06
06
FE
FE
FE
FE
ENDCHAR
STARTCHAR BOX
ENCODING 9498
SWIDTH 500 0
DWIDTH 12 0
BBX 8 13 0 6
BITMAP
0F
0F
0F
0F
0F
0F
0F
0F
0F
0F
0F
FF
FF
ENDCHAR
STARTCHAR BOX
ENCODING 9499
SWIDTH 500 0
DWIDTH 12 0
BBX 8 14 0 5
BITMAP
0F
0F
0F
0F
0F
0F
0F
0F
0F
0F
FF
FF
FF
FF
ENDCHAR
STARTCHAR BOX
ENCODING 9500
SWIDTH 500 0
DWIDTH 12 0
BBX 7 24 5 -5
BITMAP
C0
C0
C0
C0
C0
C0
C0
C0
C0
C0
C0
FE
FE
C0
C0
C0
C0
C0
C0
C0
C0
C0
C0
C0
ENDCHAR
STARTCHAR BOX
ENCODING 9501
SWIDTH 500 0
DWIDTH 12 0
BBX 7 24 5 -5
BITMAP
C0
C0
C0
C0
C0
C0
C0
C0
C0
C0
FE
FE
FE
FE
C0
C0
C0
C0
C0
C0
C0
C0
C0
C0
ENDCHAR
STARTCHAR BOX
ENCODING 9502
SWIDTH 500 0
DWIDTH 12 0
BBX 8 24 4 -5
BITMAP
F0
F0
F0
F0
F0
F0
F0
F0
F0
F0
F0
FF
FF
60
60
60
60
60
60
60
60
60
60
60
ENDCHAR
STARTCHAR BOX
ENCODING 9503
SWIDTH 500 0
DWIDTH 12 0
BBX 8 24 4 -5
BITMAP
60
60
60
60
60
60
60
60
60
60
60
FF
FF
F0
F0
F0
F0
F0
F0
F0
F0
F0
F0
F0
ENDCHAR
STARTCHAR BOX
ENCODING 9504
SWIDTH 500 0
DWIDTH 12 0
BBX 8 24 4 -5
BITMAP
F0
F0
F0
F0
F0
F0
F0
F0
F0
F0
F0
FF
FF
F0
F0
F0
F0
F0
F0
F0
F0
F0
F0
F0
ENDCHAR
STARTCHAR BOX
ENCODING 9505
SWIDTH 500 0
DWIDTH 12 0
BBX 8 24 4 -5
BITMAP
F0
F0
F0
F0
F0
F0
F0
F0
F0
F0
FF
FF
FF
FF
60
60
60
60
60
60
60
60
60
60
ENDCHAR
STARTCHAR BOX
ENCODING 9506
SWIDTH 500 0
DWIDTH 12 0
BBX 8 24 4 -5
BITMAP
60
60
60
60
60
60
60
60
60
60
FF
FF
FF
FF
F0
F0
F0
F0
F0
F0
F0
F0
F0
F0
ENDCHAR
STARTCHAR BOX
ENCODING 9507
SWIDTH 500 0
DWIDTH 12 0
BBX 8 24 4 -5
BITMAP
F0
F0
F0
F0
F0
F0
F0
F0
F0
F0
FF
FF
FF
FF
F0
F0
F0
F0
F0
F0
F0
F0
F0
F0
ENDCHAR
STARTCHAR BOX
ENCODING 9508
SWIDTH 500 0
DWIDTH 12 0
BBX 7 24 0 -5
BITMAP
06
06
06
06
06
06
06
06
06
06
06
FE
FE
06
06
06
06
06
06
06
06
06
06
06
ENDCHAR
STARTCHAR BOX
ENCODING 9509
SWIDTH 500 0
DWIDTH 12 0
BBX 7 24 0 -5
BITMAP
06
06
06
06
06
06
06
06
06
06
FE
FE
FE
FE
06
06
06
06
06
06
06
06
06
06
ENDCHAR
STARTCHAR BOX
ENCODING 9510
SWIDTH 500 0
DWIDTH 12 0
BBX 8 24 0 -5
BITMAP
0F
0F
0F
0F
0F
0F
0F
0F
0F
0F
0F
FF
FF
06
06
06
06
06
06
06
06
06
06
06
ENDCHAR
STARTCHAR BOX
ENCODING 9511
SWIDTH 500 0
DWIDTH 12 0
BBX 8 24 0 -5
BITMAP
06
06
06
06
06
06
06
06
06
06
06
FF
FF
0F
0F
0F
0F
0F
0F
0F
0F
0F
0F
0F
ENDCHAR
STARTCHAR BOX
ENCODING 9512
SWIDTH 500 0
DWIDTH 12 0
BBX 8 24 0 -5
BITMAP
0F
0F
0F
0F
0F
0F
0F
0F
0F
0F
0F
FF
FF
0F
0F
0F
0F
0F
0F
0F
0F
0F
0F
0F
ENDCHAR
STARTCHAR BOX
ENCODING 9513
SWIDTH 500 0
DWIDTH 12 0
BBX 8 24 0 -5
BITMAP
0F
0F
0F
0F
0F
0F
0F
0F
0F
0F
FF
FF
FF
FF
06
06
06
06
06
06
06
06
06
06
ENDCHAR
STARTCHAR BOX
ENCODING 9514
SWIDTH 500 0
DWIDTH 12 0
BBX 8 24 0 -5
BITMAP
06
06
06
06
06
06
06
06
06
06
FF
FF
FF
FF
0F
0F
0F
0F
0F
0F
0F
0F
0F
0F
ENDCHAR
STARTCHAR BOX
ENCODING 9515
SWIDTH 500 0
DWIDTH 12 0
BBX 8 24 0 -5
BITMAP
0F
0F
0F
0F
0F
0F
0F
0F
0F
0F
FF
FF
FF
FF
0F
0F
0F
0F
0F
0F
0F
0F
0F
0F
ENDCHAR
STARTCHAR BOX
ENCODING 9516
SWIDTH 500 0
DWIDTH 12 0
BBX 12 13 0 -5
BITMAP
FFF0
FFF0
0600
0600
0600
0600
0600
0600
0600
0600
0600
0600
0600
ENDCHAR
STARTCHAR BOX
ENCODING 9517
SWIDTH 500 0
DWIDTH 12 0
BBX 12 14 0 -5
BITMAP
FE00
FFF0
FFF0
FE00
0600
0600
0600
0600
0600
0600
0600
0600
0600
0600
ENDCHAR
STARTCHAR BOX
ENCODING 9518
SWIDTH 500 0
DWIDTH 12 0
BBX 12 14 0 -5
BITMAP
07F0
FFF0
FFF0
07F0
0600
0600
0600
0600
0600
0600
0600
0600
0600
0600
ENDCHAR
STARTCHAR BOX
ENCODING 9519
SWIDTH 500 0
DWIDTH 12 0
BBX 12 14 0 -5
BITMAP
FFF0
FFF0
FFF0
FFF0
0600
0600
0600
0600
0600
0600
0600
0600
0600
0600
ENDCHAR
STARTCHAR BOX
ENCODING 9520
SWIDTH 500 0
DWIDTH 12 0
BBX 12 13 0 -5
BITMAP
FFF0
FFF0
0F00
0F00
0F00
0F00
0F00
0F00
0F00
0F00
0F00
0F00
0F00
ENDCHAR
STARTCHAR BOX
ENCODING 9521
SWIDTH 500 0
DWIDTH 12 0
BBX 12 14 0 -5
BITMAP
FF00
FFF0
FFF0
FF00
0F00
0F00
0F00
0F00
0F00
0F00
0F00
0F00
0F00
0F00
ENDCHAR
STARTCHAR BOX
ENCODING 9522
SWIDTH 500 0
DWIDTH 12 0
BBX 12 14 0 -5
BITMAP
0FF0
FFF0
FFF0
0FF0
0F00
0F00
0F00
0F00
0F00
0F00
0F00
0F00
0F00
0F00
ENDCHAR
STARTCHAR BOX
ENCODING 9523
SWIDTH 500 0
DWIDTH 12 0
BBX 12 14 0 -5
BITMAP
FFF0
FFF0
FFF0
FFF0
0F00
0F00
0F00
0F00
0F00
0F00
0F00
0F00
0F00
0F00
ENDCHAR
STARTCHAR BOX
ENCODING 9524
SWIDTH 500 0
DWIDTH 12 0
BBX 12 13 0 6
BITMAP
0600
0600
0600
0600
0600
0600
0600
0600
0600
0600
0600
FFF0
FFF0
ENDCHAR
STARTCHAR BOX
ENCODING 9525
SWIDTH 500 0
DWIDTH 12 0
BBX 12 14 0 5
BITMAP
0600
0600
0600
0600
0600
0600
0600
0600
0600
0600
FE00
FFF0
FFF0
FE00
ENDCHAR
STARTCHAR BOX
ENCODING 9526
SWIDTH 500 0
DWIDTH 12 0
BBX 12 14 0 5
BITMAP
0600
0600
0600
0600
0600
0600
0600
0600
0600
0600
07F0
FFF0
FFF0
07F0
ENDCHAR
STARTCHAR BOX
ENCODING 9527
SWIDTH 500 0
DWIDTH 12 0
BBX 12 14 0 5
BITMAP
0600
0600
0600
0600
0600
0600
0600
0600
0600
0600
FFF0
FFF0
FFF0
FFF0
ENDCHAR
STARTCHAR BOX
ENCODING 9528
SWIDTH 500 0
DWIDTH 12 0
BBX 12 13 0 6
BITMAP
0F00
0F00
0F00
0F00
0F00
0F00
0F00
0F00
0F00
0F00
0F00
FFF0
FFF0
ENDCHAR
STARTCHAR BOX
ENCODING 9529
SWIDTH 500 0
DWIDTH 12 0
BBX 12 14 0 5
BITMAP
0F00
0F00
0F00
0F00
0F00
0F00
0F00
0F00
0F00
0F00
FF00
FFF0
FFF0
FF00
ENDCHAR
STARTCHAR BOX
ENCODING 9530
SWIDTH 500 0
DWIDTH 12 0
BBX 12 14 0 5
BITMAP
0F00
0F00
0F00
0F00
0F00
0F00
0F00
0F00
0F00
0F00
0FF0
FFF0
FFF0
0FF0
ENDCHAR
STARTCHAR BOX
ENCODING 9531
SWIDTH 500 0
DWIDTH 12 0
BBX 12 14 0 5
BITMAP
0F00
0F00
0F00
0F00
0F00
0F00
0F00
0F00
0F00
0F00
FFF0
FFF0
FFF0
FFF0
ENDCHAR
STARTCHAR BOX
ENCODING 9532
SWIDTH 500 0
DWIDTH 12 0
BBX 12 24 0 -5
BITMAP
0600
0600
0600
0600
0600
0600
0600
0600
0600
0600
0600
FFF0
FFF0
0600
0600
0600
0600
0600
0600
0600
0600
0600
0600
0600
ENDCHAR
STARTCHAR BOX
ENCODING 9533
SWIDTH 500 0
DWIDTH 12 0
BBX 12 24 0 -5
BITMAP
0600
0600
0600
0600
0600
0600
0600
0600
0600
0600
FE00
FFF0
FFF0
FE00
0600
0600
0600
0600
0600
0600
0600
0600
0600
0600
ENDCHAR
STARTCHAR BOX
ENCODING 9534
SWIDTH 500 0
DWIDTH 12 0
BBX 12 24 0 -5
BITMAP
0600
0600
0600
0600
0600
0600
0600
0600
0600
0600
07F0
FFF0
FFF0
07F0
0600
0600
0600
0600
0600
0600
0600
0600
0600
0600
ENDCHAR
STARTCHAR BOX
ENCODING 9535
SWIDTH 500 0
DWIDTH 12 0
BBX 12 24 0 -5
BITMAP
0600
0600
0600
0600
0600
0600
0600
0600
0600
0600
FFF0
FFF0
FFF0
FFF0
0600
0600
0600
0600
0600
0600
0600
0600
0600
0600
ENDCHAR
STARTCHAR BOX
ENCODING 9536
SWIDTH 500 0
DWIDTH 12 0
BBX 12 24 0 -5
BITMAP
0F00
0F00
0F00
0F00
0F00
0F00
0F00
0F00
0F00
0F00
0F00
FFF0
FFF0
0600
0600
0600
0600
0600
0600
0600
0600
0600
0600
0600
ENDCHAR
STARTCHAR BOX
ENCODING 9537
SWIDTH 500 0
DWIDTH 12 0
BBX 12 24 0 -5
BITMAP
0600
0600
0600
0600
0600
0600
0600
0600
0600
0600
0600
FFF0
FFF0
0F00
0F00
0F00
0F00
0F00
0F00
0F00
0F00
0F00
0F00
0F00
ENDCHAR
STARTCHAR BOX
ENCODING 9538
SWIDTH 500 0
DWIDTH 12 0
BBX 12 24 0 -5
BITMAP
0F00
0F00
0F00
0F00
0F00
0F00
0F00
0F00
0F00
0F00
0F00
FFF0
FFF0
0F00
0F00
0F00
0F00
0F00
0F00
0F00
0F00
0F00
0F00
0F00
ENDCHAR
STARTCHAR BOX
ENCODING 9539
SWIDTH 500 0
DWIDTH 12 0
BBX 12 24 0 -5
BITMAP
0F00
0F00
0F00
0F00
0F00
0F00
0F00
0F00
0F00
0F00
FF00
FFF0
FFF0
FE00
0600
0600
0600
0600
0600
0600
0600
0600
0600
0600
ENDCHAR
STARTCHAR BOX
ENCODING 9540
SWIDTH 500 0
DWIDTH 12 0
BBX 12 24 0 -5
BITMAP
0F00
0F00
0F00
0F00
0F00
0F00
0F00
0F00
0F00
0F00
0FF0
FFF0
FFF0
07F0
0600
0600
0600
0600
0600
0600
0600
0600
0600
0600
ENDCHAR
STARTCHAR BOX
ENCODING 9541
SWIDTH 500 0
DWIDTH 12 0
BBX 12 24 0 -5
BITMAP
0600
0600
0600
0600
0600
0600
0600
0600
0600
0600
FE00
FFF0
FFF0
FF00
0F00
0F00
0F00
0F00
0F00
0F00
0F00
0F00
0F00
0F00
ENDCHAR
STARTCHAR BOX
ENCODING 9542
SWIDTH 500 0
DWIDTH 12 0
BBX 12 24 0 -5
BITMAP
0600
0600
0600
0600
0600
0600
0600
0600
0600
0600
07F0
FFF0
FFF0
0FF0
0F00
0F00
0F00
0F00
0F00
0F00
0F00
0F00
0F00
0F00
ENDCHAR
STARTCHAR BOX
ENCODING 9543
SWIDTH 500 0
DWIDTH 12 0
BBX 12 24 0 -5
BITMAP
0F00
0F00
0F00
0F00
0F00
0F00
0F00
0F00
0F00
0F00
FFF0
FFF0
FFF0
FFF0
0600
0600
0600
0600
0600
0600
0600
0600
0600
0600
ENDCHAR
STARTCHAR BOX
ENCODING 9544
SWIDTH 500 0
DWIDTH 12 0
BBX 12 24 0 -5
BITMAP
0600
0600
0600
0600
0600
0600
0600
0600
0600
0600
FFF0
FFF0
FFF0
FFF0
0F00
0F00
0F00
0F00
0F00
0F00
0F00
0F00
0F00
0F00
ENDCHAR
STARTCHAR BOX
ENCODING 9545
SWIDTH 500 0
DWIDTH 12 0
BBX 12 24 0 -5
BITMAP
0F00
0F00
0F00
0F00
0F00
0F00
0F00
0F00
0F00
0F00
FF00
FFF0
FFF0
FF00
0F00
0F00
0F00
0F00
0F00
0F00
0F00
0F00
0F00
0F00
ENDCHAR
STARTCHAR BOX
ENCODING 9546
SWIDTH 500 0
DWIDTH 12 0
BBX 12 24 0 -5
BITMAP
0F00
0F00
0F00
0F00
0F00
0F00
0F00
0F00
0F00
0F00
0FF0
FFF0
FFF0
0FF0
0F00
0F00
0F00
0F00
0F00
0F00
0F00
0F00
0F00
0F00
ENDCHAR
STARTCHAR BOX
ENCODING 9547
SWIDTH 500 0
DWIDTH 12 0
BBX 12 24 0 -5
BITMAP
0F00
0F00
0F00
0F00
0F00
0F00
0F00
0F00
0F00
0F00
FFF0
FFF0
FFF0
FFF0
0F00
0F00
0F00
0F00
0F00
0F00
0F00
0F00
0F00
0F00
ENDCHAR
STARTCHAR BOX
ENCODING 9548
SWIDTH 500 0
DWIDTH 12 0
BBX 10 2 1 6
BITMAP
F3C0
F3C0
ENDCHAR
STARTCHAR BOX
ENCODING 9549
SWIDTH 500 0
DWIDTH 12 0
BBX 10 4 1 5
BITMAP
F3C0
F3C0
F3C0
F3C0
ENDCHAR
STARTCHAR BOX
ENCODING 9550
SWIDTH 500 0
DWIDTH 12 0
BBX 2 22 5 -4
BITMAP
C0
C0
C0
C0
C0
C0
C0
C0
C0
C0
00
00
C0
C0
C0
C0
C0
C0
C0
C0
C0
C0
ENDCHAR
STARTCHAR BOX
ENCODING 9551
SWIDTH 500 0
DWIDTH 12 0
BBX 4 22 4 -4
BITMAP
F0
F0
F0
F0
F0
F0
F0
F0
F0
F0
00
00
F0
F0
F0
F0
F0
F0
F0
F0
F0
F0
ENDCHAR
STARTCHAR BOX
ENCODING 9552
SWIDTH 500 0
DWIDTH 12 0
BBX 12 6 0 4
BITMAP
FFF0
FFF0
0000
0000
FFF0
FFF0
ENDCHAR
STARTCHAR BOX
ENCODING 9553
SWIDTH 500 0
DWIDTH 12 0
BBX 6 24 3 -5
BITMAP
CC
CC
CC
CC
CC
CC
CC
CC
CC
CC
CC
CC
CC
CC
CC
CC
CC
CC
CC
CC
CC
CC
CC
CC
ENDCHAR
STARTCHAR BOX
ENCODING 9554
SWIDTH 500 0
DWIDTH 12 0
BBX 7 15 5 -5
BITMAP
FE
FE
C0
C0
FE
FE
C0
C0
C0
C0
C0
C0
C0
C0
C0
ENDCHAR
STARTCHAR BOX
ENCODING 9555
SWIDTH 500 0
DWIDTH 12 0
BBX 9 13 3 -5
BITMAP
FF80
FF80
CC00
CC00
CC00
CC00
CC00
CC00
CC00
CC00
CC00
CC00
CC00
ENDCHAR
STARTCHAR BOX
ENCODING 9556
SWIDTH 500 0
DWIDTH 12 0
BBX 9 15 3 -5
BITMAP
FF80
FF80
C000
C000
CF80
CF80
CC00
CC00
CC00
CC00
CC00
CC00
CC00
CC00
CC00
ENDCHAR
STARTCHAR BOX
ENCODING 9557
SWIDTH 500 0
DWIDTH 12 0
BBX 7 15 0 -5
BITMAP
FE
FE
06
06
FE
FE
06
06
06
06
06
06
06
06
06
ENDCHAR
STARTCHAR BOX
ENCODING 9558
SWIDTH 500 0
DWIDTH 12 0
BBX 9 13 0 -5
BITMAP
FF80
FF80
1980
1980
1980
1980
1980
1980
1980
1980
1980
1980
1980
ENDCHAR
STARTCHAR BOX
ENCODING 9559
SWIDTH 500 0
DWIDTH 12 0
BBX 9 15 0 -5
BITMAP
FF80
FF80
0180
0180
F980
F980
1980
1980
1980
1980
1980
1980
1980
1980
1980
ENDCHAR
STARTCHAR BOX
ENCODING 9560
SWIDTH 500 0
DWIDTH 12 0
BBX 7 15 5 4
BITMAP
C0
C0
C0
C0
C0
C0
C0
C0
C0
FE
FE
C0
C0
FE
FE
ENDCHAR
STARTCHAR BOX
ENCODING 9561
SWIDTH 500 0
DWIDTH 12 0
BBX 9 13 3 6
BITMAP
CC00
CC00
CC00
CC00
CC00
CC00
CC00
CC00
CC00
CC00
CC00
FF80
FF80
ENDCHAR
STARTCHAR BOX
ENCODING 9562
SWIDTH 500 0
DWIDTH 12 0
BBX 9 15 3 4
BITMAP
CC00
CC00
CC00
CC00
CC00
CC00
CC00
CC00
CC00
CF80
CF80
C000
C000
FF80
FF80
ENDCHAR
STARTCHAR BOX
ENCODING 9563
SWIDTH 500 0
DWIDTH 12 0
BBX 7 15 0 4
BITMAP
06
06
06
06
06
06
06
06
06
FE
FE
06
06
FE
FE
ENDCHAR
STARTCHAR BOX
ENCODING 9564
SWIDTH 500 0
DWIDTH 12 0
BBX 9 13 0 6
BITMAP
1980
1980
1980
1980
1980
1980
1980
1980
1980
1980
1980
FF80
FF80
ENDCHAR
STARTCHAR BOX
ENCODING 9565
SWIDTH 500 0
DWIDTH 12 0
BBX 9 15 0 4
BITMAP
1980
1980
1980
1980
1980
1980
1980
1980
1980
F980
F980
0180
0180
FF80
FF80
ENDCHAR
STARTCHAR BOX
ENCODING 9566
SWIDTH 500 0
DWIDTH 12 0
BBX 7 24 5 -5
BITMAP
C0
C0
C0
C0
C0
C0
C0
C0
C0
FE
FE
C0
C0
FE
FE
C0
C0
C0
C0
C0
C0
C0
C0
C0
ENDCHAR
STARTCHAR BOX
ENCODING 9567
SWIDTH 500 0
DWIDTH 12 0
BBX 9 24 3 -5
BITMAP
CC00
CC00
CC00
CC00
CC00
CC00
CC00
CC00
CC00
CC00
CC00
CF80
CF80
CC00
CC00
CC00
CC00
CC00
CC00
CC00
CC00
CC00
CC00
CC00
ENDCHAR
STARTCHAR BOX
ENCODING 9568
SWIDTH 500 0
DWIDTH 12 0
BBX 9 24 3 -5
BITMAP
CC00
CC00
CC00
CC00
CC00
CC00
CC00
CC00
CC00
CF80
CF80
C000
C000
CF80
CF80
CC00
CC00
CC00
CC00
CC00
CC00
CC00
CC00
CC00
ENDCHAR
STARTCHAR BOX
ENCODING 9569
SWIDTH 500 0
DWIDTH 12 0
BBX 7 24 0 -5
BITMAP
06
06
06
06
06
06
06
06
06
FE
FE
06
06
FE
FE
06
06
06
06
06
06
06
06
06
ENDCHAR
STARTCHAR BOX
ENCODING 9570
SWIDTH 500 0
DWIDTH 12 0
BBX 9 24 0 -5
BITMAP
1980
1980
1980
1980
1980
1980
1980
1980
1980
1980
1980
F980
F980
1980
1980
1980
1980
1980
1980
1980
1980
1980
1980
1980
ENDCHAR
STARTCHAR BOX
ENCODING 9571
SWIDTH 500 0
DWIDTH 12 0
BBX 9 24 0 -5
BITMAP
1980
1980
1980
1980
1980
1980
1980
1980
1980
F980
F980
0180
0180
F980
F980
1980
1980
1980
1980
1980
1980
1980
1980
1980
ENDCHAR
STARTCHAR BOX
ENCODING 9572
SWIDTH 500 0
DWIDTH 12 0
BBX 12 15 0 -5
BITMAP
FFF0
FFF0
0000
0000
FFF0
FFF0
0600
0600
0600
0600
0600
0600
0600
0600
0600
ENDCHAR
STARTCHAR BOX
ENCODING 9573
SWIDTH 500 0
DWIDTH 12 0
BBX 12 13 0 -5
BITMAP
FFF0
FFF0
1980
1980
1980
1980
1980
1980
1980
1980
1980
1980
1980
ENDCHAR
STARTCHAR BOX
ENCODING 9574
SWIDTH 500 0
DWIDTH 12 0
BBX 12 15 0 -5
BITMAP
FFF0
FFF0
0000
0000
F9F0
F9F0
1980
1980
1980
1980
1980
1980
1980
1980
1980
ENDCHAR
STARTCHAR BOX
ENCODING 9575
SWIDTH 500 0
DWIDTH 12 0
BBX 12 15 0 4
BITMAP
0600
0600
0600
0600
0600
0600
0600
0600
0600
FFF0
FFF0
0000
0000
FFF0
FFF0
ENDCHAR
STARTCHAR BOX
ENCODING 9576
SWIDTH 500 0
DWIDTH 12 0
BBX 12 13 0 6
BITMAP
1980
1980
1980
1980
1980
1980
1980
1980
1980
1980
1980
FFF0
FFF0
ENDCHAR
STARTCHAR BOX
ENCODING 9577
SWIDTH 500 0
DWIDTH 12 0
BBX 12 15 0 4
BITMAP
1980
1980
1980
1980
1980
1980
1980
1980
1980
F9F0
F9F0
0000
0000
FFF0
FFF0
ENDCHAR
STARTCHAR BOX
ENCODING 9578
SWIDTH 500 0
DWIDTH 12 0
BBX 12 24 0 -5
BITMAP
0600
0600
0600
0600
0600
0600
0600
0600
0600
FFF0
FFF0
0600
0600
FFF0
FFF0
0600
0600
0600
0600
0600
0600
0600
0600
0600
ENDCHAR
STARTCHAR BOX
ENCODING 9579
SWIDTH 500 0
DWIDTH 12 0
BBX 12 24 0 -5
BITMAP
1980
1980
1980
1980
1980
1980
1980
1980
1980
1980
1980
FFF0
FFF0
1980
1980
1980
1980
1980
1980
1980
1980
1980
1980
1980
ENDCHAR
STARTCHAR BOX
ENCODING 9580
SWIDTH 500 0
DWIDTH 12 0
BBX 12 24 0 -5
BITMAP
1980
1980
1980
1980
1980
1980
1980
1980
1980
F9F0
F9F0
0000
0000
F9F0
F9F0
1980
1980
1980
1980
1980
1980
1980
1980
1980
ENDCHAR
STARTCHAR BOX
ENCODING 9581
SWIDTH 500 0
DWIDTH 12 0
BBX 7 13 5 -5
BITMAP
3E
7E
E0
C0
C0
C0
C0
C0
C0
C0
C0
C0
C0
ENDCHAR
STARTCHAR BOX
ENCODING 9582
SWIDTH 500 0
DWIDTH 12 0
BBX 7 13 0 -5
BITMAP
F8
FC
0E
06
06
06
06
06
06
06
06
06
06
ENDCHAR
STARTCHAR BOX
ENCODING 9583
SWIDTH 500 0
DWIDTH 12 0
BBX 7 13 0 6
BITMAP
06
06
06
06
06
06
06
06
06
06
0E
FC
F8
ENDCHAR
STARTCHAR BOX
ENCODING 9584
SWIDTH 500 0
DWIDTH 12 0
BBX 7 13 5 6
BITMAP
C0
C0
C0
C0
C0
C0
C0
C0
C0
C0
E0
7E
3E
ENDCHAR
STARTCHAR BOX
ENCODING 9585
SWIDTH 500 0
DWIDTH 12 0
BBX 12 24 0 -5
BITMAP
0010
0030
0030
0060
0060
00C0
00C0
0180
0180
0300
0300
0600
0600
0C00
0C00
1800
1800
3000
3000
6000
6000
C000
C000
8000
ENDCHAR
STARTCHAR BOX
ENCODING 9586
SWIDTH 500 0
DWIDTH 12 0
BBX 12 24 0 -5
BITMAP
8000
C000
C000
6000
6000
3000
3000
1800
1800
0C00
0C00
0600
0600
0300
0300
0180
0180
00C0
00C0
0060
0060
0030
0030
0010
ENDCHAR
STARTCHAR BOX
ENCODING 9587
SWIDTH 500 0
DWIDTH 12 0
BBX 12 24 0 -5
BITMAP
8010
C030
C030
6060
6060
30C0
30C0
1980
1980
0F00
0F00
0600
0600
0F00
0F00
1980
1980
30C0
30C0
6060
6060
C030
C030
8010
ENDCHAR
STARTCHAR BOX
ENCODING 9588
SWIDTH 500 0
DWIDTH 12 0
BBX 6 2 0 6
BITMAP
FC
FC
ENDCHAR
STARTCHAR BOX
ENCODING 9589
SWIDTH 500 0
DWIDTH 12 0
BBX 2 12 5 7
BITMAP
C0
C0
C0
C0
C0
C0
C0
C0
C0
C0
C0
C0
ENDCHAR
STARTCHAR BOX
ENCODING 9590
SWIDTH 500 0
DWIDTH 12 0
BBX 6 2 6 6
BITMAP
FC
FC
ENDCHAR
STARTCHAR BOX
ENCODING 9591
SWIDTH 500 0
DWIDTH 12 0
BBX 2 12 5 -5
BITMAP
C0
C0
C0
C0
C0
C0
C0
C0
C0
C0
C0
C0
ENDCHAR
STARTCHAR BOX
ENCODING 9592
SWIDTH 500 0
DWIDTH 12 0
BBX 6 4 0 5
BITMAP
FC
FC
FC
FC
ENDCHAR
STARTCHAR BOX
ENCODING 9593
SWIDTH 500 0
DWIDTH 12 0
BBX 4 12 4 7
BITMAP
F0
F0
F0
F0
F0
F0
F0
F0
F0
F0
F0
F0
ENDCHAR
STARTCHAR BOX
ENCODING 9594
SWIDTH 500 0
DWIDTH 12 0
BBX 6 4 6 5
BITMAP
FC
FC
FC
FC
ENDCHAR
STARTCHAR BOX
ENCODING 9595
SWIDTH 500 0
DWIDTH 12 0
BBX 4 12 4 -5
BITMAP
F0
F0
F0
F0
F0
F0
F0
F0
F0
F0
F0
F0
ENDCHAR
STARTCHAR BOX
ENCODING 9596
SWIDTH 500 0
DWIDTH 12 0
BBX 12 4 0 5
BITMAP
03F0
FFF0
FFF0
03F0
ENDCHAR
STARTCHAR BOX
ENCODING 9597
SWIDTH 500 0
DWIDTH 12 0
BBX 4 24 4 -5
BITMAP
60
60
60
60
60
60
60
60
60
60
60
60
F0
F0
F0
F0
F0
F0
F0
F0
F0
F0
F0
F0
ENDCHAR
STARTCHAR BOX
ENCODING 9598
SWIDTH 500 0
DWIDTH 12 0
BBX 12 4 0 5
BITMAP
FC00
FFF0
FFF0
FC00
ENDCHAR
STARTCHAR BOX
ENCODING 9599
SWIDTH 500 0
DWIDTH 12 0
BBX 4 24 4 -5
BITMAP
F0
F0
F0
F0
F0
F0
F0
F0
F0
F0
F0
F0
60
60
60
60
60
60
60
60
60
60
60
60
ENDCHAR
STARTCHAR UPPER
ENCODING 9600
SWIDTH 500 0
DWIDTH 12 0
BBX 12 12 0 7
BITMAP
FFF0
FFF0
FFF0
FFF0
FFF0
FFF0
FFF0
FFF0
FFF0
FFF0
FFF0
FFF0
ENDCHAR
STARTCHAR LOWER
ENCODING 9601
SWIDTH 500 0
DWIDTH 12 0
BBX 12 3 0 -5
BITMAP
FFF0
FFF0
FFF0
ENDCHAR
STARTCHAR LOWER
ENCODING 9602
SWIDTH 500 0
DWIDTH 12 0
BBX 12 6 0 -5
BITMAP
FFF0
FFF0
FFF0
FFF0
FFF0
FFF0
ENDCHAR
STARTCHAR LOWER
ENCODING 9603
SWIDTH 500 0
DWIDTH 12 0
BBX 12 9 0 -5
BITMAP
FFF0
FFF0
FFF0
FFF0
FFF0
FFF0
FFF0
FFF0
FFF0
ENDCHAR
STARTCHAR LOWER
ENCODING 9604
SWIDTH 500 0
DWIDTH 12 0
BBX 12 12 0 -5
BITMAP
FFF0
FFF0
FFF0
FFF0
FFF0
FFF0
FFF0
FFF0
FFF0
FFF0
FFF0
FFF0
ENDCHAR
STARTCHAR LOWER
ENCODING 9605
SWIDTH 500 0
DWIDTH 12 0
BBX 12 15 0 -5
BITMAP
FFF0
FFF0
FFF0
FFF0
FFF0
FFF0
FFF0
FFF0
FFF0
FFF0
FFF0
FFF0
FFF0
FFF0
FFF0
ENDCHAR
STARTCHAR LOWER
ENCODING 9606
SWIDTH 500 0
DWIDTH 12 0
BBX 12 18 0 -5
BITMAP
FFF0
FFF0
FFF0
FFF0
FFF0
FFF0
FFF0
FFF0
FFF0
FFF0
FFF0
FFF0
FFF0
FFF0
FFF0
FFF0
FFF0
FFF0
ENDCHAR
STARTCHAR LOWER
ENCODING 9607
SWIDTH 500 0
DWIDTH 12 0
BBX 12 21 0 -5
BITMAP
FFF0
FFF0
FFF0
FFF0
FFF0
FFF0
FFF0
FFF0
FFF0
FFF0
FFF0
FFF0
FFF0
FFF0
FFF0
FFF0
FFF0
FFF0
FFF0
FFF0
FFF0
ENDCHAR
STARTCHAR FULL
ENCODING 9608
SWIDTH 500 0
DWIDTH 12 0
BBX 12 24 0 -5
BITMAP
FFF0
FFF0
FFF0
FFF0
FFF0
FFF0
FFF0
FFF0
FFF0
FFF0
FFF0
FFF0
FFF0
FFF0
FFF0
FFF0
FFF0
FFF0
FFF0
FFF0
FFF0
FFF0
FFF0
FFF0
ENDCHAR
STARTCHAR LEFT
ENCODING 9609
SWIDTH 500 0
DWIDTH 12 0
BBX 10 24 0 -5
BITMAP
FFC0
FFC0
FFC0
FFC0
FFC0
FFC0
FFC0
FFC0
FFC0
FFC0
FFC0
FFC0
FFC0
FFC0
FFC0
FFC0
FFC0
FFC0
FFC0
FFC0
FFC0
FFC0
FFC0
FFC0
ENDCHAR
STARTCHAR LEFT
ENCODING 9610
SWIDTH 500 0
DWIDTH 12 0
BBX 9 24 0 -5
BITMAP
FF80
FF80
FF80
FF80
FF80
FF80
FF80
FF80
FF80
FF80
FF80
FF80
FF80
FF80
FF80
FF80
FF80
FF80
FF80
FF80
FF80
FF80
FF80
FF80
ENDCHAR
STARTCHAR LEFT
ENCODING 9611
SWIDTH 500 0
DWIDTH 12 0
BBX 7 24 0 -5
BITMAP
FE
FE
FE
FE
FE
FE
FE
FE
FE
FE
FE
FE
FE
FE
FE
FE
FE
FE
FE
FE
FE
FE
FE
FE
ENDCHAR
STARTCHAR LEFT
ENCODING 9612
SWIDTH 500 0
DWIDTH 12 0
BBX 6 24 0 -5
BITMAP
FC
FC
FC
FC
FC
FC
FC
FC
FC
FC
FC
FC
FC
FC
FC
FC
FC
FC
FC
FC
FC
FC
FC
FC
ENDCHAR
STARTCHAR LEFT
ENCODING 9613
SWIDTH 500 0
DWIDTH 12 0
BBX 4 24 0 -5
BITMAP
F0
F0
F0
F0
F0
F0
F0
F0
F0
F0
F0
F0
F0
F0
F0
F0
F0
F0
F0
F0
F0
F0
F0
F0
ENDCHAR
STARTCHAR LEFT
ENCODING 9614
SWIDTH 500 0
DWIDTH 12 0
BBX 2 24 0 -5
BITMAP
C0
C0
C0
C0
C0
C0
C0
C0
C0
C0
C0
C0
C0
C0
C0
C0
C0
C0
C0
C0
C0
C0
C0
C0
ENDCHAR
STARTCHAR LEFT
ENCODING 9615
SWIDTH 500 0
DWIDTH 12 0
BBX 1 24 0 -5
BITMAP
80
80
80
80
80
80
80
80
80
80
80
80
80
80
80
80
80
80
80
80
80
80
80
80
ENDCHAR
STARTCHAR RIGHT
ENCODING 9616
SWIDTH 500 0
DWIDTH 12 0
BBX 6 24 6 -5
BITMAP
FC
FC
FC
FC
FC
FC
FC
FC
FC
FC
FC
FC
FC
FC
FC
FC
FC
FC
FC
FC
FC
FC
FC
FC
ENDCHAR
STARTCHAR LIGHT
ENCODING 9617
SWIDTH 500 0
DWIDTH 12 0
BBX 11 24 1 -5
BITMAP
1860
DB60
C300
1860
DB60
C300
1860
DB60
C300
1860
DB60
C300
1860
DB60
C300
1860
DB60
C300
1860
DB60
C300
1860
DB60
C300
ENDCHAR
STARTCHAR MEDIUM
ENCODING 9618
SWIDTH 500 0
DWIDTH 12 0
BBX 12 24 0 -5
BITMAP
3330
3330
CCC0
CCC0
3330
3330
CCC0
CCC0
3330
3330
CCC0
CCC0
3330
3330
CCC0
CCC0
3330
3330
CCC0
CCC0
3330
3330
CCC0
CCC0
ENDCHAR
STARTCHAR DARK
ENCODING 9619
SWIDTH 500 0
DWIDTH 12 0
BBX 12 24 0 -5
BITMAP
E790
E790
3CF0
3CF0
E790
E790
3CF0
3CF0
E790
E790
3CF0
3CF0
E790
E790
3CF0
3CF0
E790
E790
3CF0
3CF0
E790
E790
3CF0
3CF0
ENDCHAR
STARTCHAR UPPER
ENCODING 9620
SWIDTH 500 0
DWIDTH 12 0
BBX 12 3 0 16
BITMAP
FFF0
FFF0
FFF0
ENDCHAR
STARTCHAR RIGHT
ENCODING 9621
SWIDTH 500 0
DWIDTH 12 0
BBX 1 24 11 -5
BITMAP
80
80
80
80
80
80
80
80
80
80
80
80
80
80
80
80
80
80
80
80
80
80
80
80
ENDCHAR
STARTCHAR QUADRANT
ENCODING 9622
SWIDTH 500 0
DWIDTH 12 0
BBX 6 12 0 -5
BITMAP
FC
FC
FC
FC
FC
FC
FC
FC
FC
FC
FC
FC
ENDCHAR
STARTCHAR QUADRANT
ENCODING 9623
SWIDTH 500 0
DWIDTH 12 0
BBX 6 12 6 -5
BITMAP
FC
FC
FC
FC
FC
FC
FC
FC
FC
FC
FC
FC
ENDCHAR
STARTCHAR QUADRANT
ENCODING 9624
SWIDTH 500 0
DWIDTH 12 0
BBX 6 12 0 7
BITMAP
FC
FC
FC
FC
FC
FC
FC
FC
FC
FC
FC
FC
ENDCHAR
STARTCHAR QUADRANT
ENCODING 9625
SWIDTH 500 0
DWIDTH 12 0
BBX 12 24 0 -5
BITMAP
FC00
FC00
FC00
FC00
FC00
FC00
FC00
FC00
FC00
FC00
FC00
FC00
FFF0
FFF0
FFF0
FFF0
FFF0
FFF0
FFF0
FFF0
FFF0
FFF0
FFF0
FFF0
ENDCHAR
STARTCHAR QUADRANT
ENCODING 9626
SWIDTH 500 0
DWIDTH 12 0
BBX 12 24 0 -5
BITMAP
FC00
FC00
FC00
FC00
FC00
FC00
FC00
FC00
FC00
FC00
FC00
FC00
03F0
03F0
03F0
03F0
03F0
03F0
03F0
03F0
03F0
03F0
03F0
03F0
ENDCHAR
STARTCHAR QUADRANT
ENCODING 9627
SWIDTH 500 0
DWIDTH 12 0
BBX 12 24 0 -5
BITMAP
FFF0
FFF0
FFF0
FFF0
FFF0
FFF0
FFF0
FFF0
FFF0
FFF0
FFF0
FFF0
FC00
FC00
FC00
FC00
FC00
FC00
FC00
FC00
FC00
FC00
FC00
FC00
ENDCHAR
STARTCHAR QUADRANT
ENCODING 9628
SWIDTH 500 0
DWIDTH 12 0
BBX 12 24 0 -5
BITMAP
FFF0
FFF0
FFF0
FFF0
FFF0
FFF0
FFF0
FFF0
FFF0
FFF0
FFF0
FFF0
03F0
03F0
03F0
03F0
03F0
03F0
03F0
03F0
03F0
03F0
03F0
03F0
ENDCHAR
STARTCHAR QUADRANT
ENCODING 9629
SWIDTH 500 0
DWIDTH 12 0
BBX 6 12 6 7
BITMAP
FC
FC
FC
FC
FC
FC
FC
FC
FC
FC
FC
FC
ENDCHAR
STARTCHAR QUADRANT
ENCODING 9630
SWIDTH 500 0
DWIDTH 12 0
BBX 12 24 0 -5
BITMAP
03F0
03F0
03F0
03F0
03F0
03F0
03F0
03F0
03F0
03F0
03F0
03F0
FC00
FC00
FC00
FC00
FC00
FC00
FC00
FC00
FC00
FC00
FC00
FC00
ENDCHAR
STARTCHAR QUADRANT
ENCODING 9631
SWIDTH 500 0
DWIDTH 12 0
BBX 12 24 0 -5
BITMAP
03F0
03F0
03F0
03F0
03F0
03F0
03F0
03F0
03F0
03F0
03F0
03F0
FFF0
FFF0
FFF0
FFF0
FFF0
FFF0
FFF0
FFF0
FFF0
FFF0
FFF0
FFF0
ENDCHAR
STARTCHAR BLACK
ENCODING 9670
SWIDTH 500 0
DWIDTH 12 0
BBX 11 11 0 1
BITMAP
0400
0E00
1F00
3F80
7FC0
FFE0
7FC0
3F80
1F00
0E00
0400
ENDCHAR
STARTCHAR LOZENGE
ENCODING 9674
SWIDTH 500 0
DWIDTH 12 0
BBX 11 11 0 1
BITMAP
0400
0E00
1B00
3180
60C0
C060
60C0
3180
1B00
0E00
0400
ENDCHAR
STARTCHAR WHITE
ENCODING 9675
SWIDTH 500 0
DWIDTH 12 0
BBX 8 8 2 3
BITMAP
3C
66
C3
C3
C3
C3
66
3C
ENDCHAR
STARTCHAR BLACK
ENCODING 9679
SWIDTH 500 0
DWIDTH 12 0
BBX 8 8 2 3
BITMAP
3C
7E
FF
FF
FF
FF
7E
3C
ENDCHAR
STARTCHAR INVERSE
ENCODING 9688
SWIDTH 500 0
DWIDTH 12 0
BBX 12 24 0 -5
BITMAP
FFF0
FFF0
FFF0
FFF0
FFF0
FFF0
FFF0
FFF0
FFF0
F0F0
E070
E070
E070
E070
F0F0
FFF0
FFF0
FFF0
FFF0
FFF0
FFF0
FFF0
FFF0
FFF0
ENDCHAR
STARTCHAR INVERSE
ENCODING 9689
SWIDTH 500 0
DWIDTH 12 0
BBX 12 24 0 -5
BITMAP
FFF0
FFF0
FFF0
FFF0
FFF0
FFF0
FFF0
FFF0
F0F0
E670
CF30
CF30
CF30
CF30
E670
F0F0
FFF0
FFF0
FFF0
FFF0
FFF0
FFF0
FFF0
FFF0
ENDCHAR
STARTCHAR BLACK
ENCODING 9698
SWIDTH 500 0
DWIDTH 12 0
BBX 12 12 0 -5
BITMAP
0010
0030
0070
00F0
01F0
03F0
07F0
0FF0
1FF0
3FF0
7FF0
FFF0
ENDCHAR
STARTCHAR BLACK
ENCODING 9699
SWIDTH 500 0
DWIDTH 12 0
BBX 12 12 0 -5
BITMAP
8000
C000
E000
F000
F800
FC00
FE00
FF00
FF80
FFC0
FFE0
FFF0
ENDCHAR
STARTCHAR BLACK
ENCODING 9700
SWIDTH 500 0
DWIDTH 12 0
BBX 12 12 0 7
BITMAP
FFF0
FFE0
FFC0
FF80
FF00
FE00
FC00
F800
F000
E000
C000
8000
ENDCHAR
STARTCHAR BLACK
ENCODING 9701
SWIDTH 500 0
DWIDTH 12 0
BBX 12 12 0 7
BITMAP
FFF0
7FF0
3FF0
1FF0
0FF0
07F0
03F0
01F0
00F0
0070
0030
0010
ENDCHAR
STARTCHAR TRIGRAM
ENCODING 9776
SWIDTH 500 0
DWIDTH 12 0
BBX 10 12 1 1
BITMAP
FFC0
FFC0
0000
0000
0000
FFC0
FFC0
0000
0000
0000
FFC0
FFC0
ENDCHAR
STARTCHAR TRIGRAM
ENCODING 9777
SWIDTH 500 0
DWIDTH 12 0
BBX 10 12 1 1
BITMAP
F3C0
F3C0
0000
0000
0000
FFC0
FFC0
0000
0000
0000
FFC0
FFC0
ENDCHAR
STARTCHAR TRIGRAM
ENCODING 9778
SWIDTH 500 0
DWIDTH 12 0
BBX 10 12 1 1
BITMAP
FFC0
FFC0
0000
0000
0000
F3C0
F3C0
0000
0000
0000
FFC0
FFC0
ENDCHAR
STARTCHAR TRIGRAM
ENCODING 9779
SWIDTH 500 0
DWIDTH 12 0
BBX 10 12 1 1
BITMAP
F3C0
F3C0
0000
0000
0000
F3C0
F3C0
0000
0000
0000
FFC0
FFC0
ENDCHAR
STARTCHAR TRIGRAM
ENCODING 9780
SWIDTH 500 0
DWIDTH 12 0
BBX 10 12 1 1
BITMAP
FFC0
FFC0
0000
0000
0000
FFC0
FFC0
0000
0000
0000
F3C0
F3C0
ENDCHAR
STARTCHAR TRIGRAM
ENCODING 9781
SWIDTH 500 0
DWIDTH 12 0
BBX 10 12 1 1
BITMAP
F3C0
F3C0
0000
0000
0000
FFC0
FFC0
0000
0000
0000
F3C0
F3C0
ENDCHAR
STARTCHAR TRIGRAM
ENCODING 9782
SWIDTH 500 0
DWIDTH 12 0
BBX 10 12 1 1
BITMAP
FFC0
FFC0
0000
0000
0000
F3C0
F3C0
0000
0000
0000
F3C0
F3C0
ENDCHAR
STARTCHAR TRIGRAM
ENCODING 9783
SWIDTH 500 0
DWIDTH 12 0
BBX 10 12 1 1
BITMAP
F3C0
F3C0
0000
0000
0000
F3C0
F3C0
0000
0000
0000
F3C0
F3C0
ENDCHAR
STARTCHAR BLACK
ENCODING 9829
SWIDTH 500 0
DWIDTH 12 0
BBX 11 12 0 1
BITMAP
3180
7BC0
FFE0
FFE0
FFE0
FFE0
7FC0
7FC0
3F80
1F00
0E00
0400
ENDCHAR
STARTCHAR BLACK
ENCODING 9830
SWIDTH 500 0
DWIDTH 12 0
BBX 11 11 0 1
BITMAP
0400
0E00
1F00
3F80
7FC0
FFE0
7FC0
3F80
1F00
0E00
0400
ENDCHAR
STARTCHAR BRAILLE
ENCODING 10240
SWIDTH 500 0
DWIDTH 12 0
BBX 1 1 11 -5
BITMAP
00
ENDCHAR
STARTCHAR BRAILLE
ENCODING 10241
SWIDTH 500 0
DWIDTH 12 0
BBX 4 4 1 14
BITMAP
60
F0
F0
60
ENDCHAR
STARTCHAR BRAILLE
ENCODING 10242
SWIDTH 500 0
DWIDTH 12 0
BBX 4 4 1 8
BITMAP
60
F0
F0
60
ENDCHAR
STARTCHAR BRAILLE
ENCODING 10243
SWIDTH 500 0
DWIDTH 12 0
BBX 4 10 1 8
BITMAP
60
F0
F0
60
00
00
60
F0
F0
60
ENDCHAR
STARTCHAR BRAILLE
ENCODING 10244
SWIDTH 500 0
DWIDTH 12 0
BBX 4 4 1 2
BITMAP
60
F0
F0
60
ENDCHAR
STARTCHAR BRAILLE
ENCODING 10245
SWIDTH 500 0
DWIDTH 12 0
BBX 4 16 1 2
BITMAP
60
F0
F0
60
00
00
00
00
00
00
00
00
60
F0
F0
60
ENDCHAR
STARTCHAR BRAILLE
ENCODING 10246
SWIDTH 500 0
DWIDTH 12 0
BBX 4 10 1 2
BITMAP
60
F0
F0
60
00
00
60
F0
F0
60
ENDCHAR
STARTCHAR BRAILLE
ENCODING 10247
SWIDTH 500 0
DWIDTH 12 0
BBX 4 16 1 2
BITMAP
60
F0
F0
60
00
00
60
F0
F0
60
00
00
60
F0
F0
60
ENDCHAR
STARTCHAR BRAILLE
ENCODING 10248
SWIDTH 500 0
DWIDTH 12 0
BBX 4 4 7 14
BITMAP
60
F0
F0
60
ENDCHAR
STARTCHAR BRAILLE
ENCODING 10249
SWIDTH 500 0
DWIDTH 12 0
BBX 10 4 1 14
BITMAP
6180
F3C0
F3C0
6180
ENDCHAR
STARTCHAR BRAILLE
ENCODING 10250
SWIDTH 500 0
DWIDTH 12 0
BBX 10 10 1 8
BITMAP
0180
03C0
03C0
0180
0000
0000
6000
F000
F000
6000
ENDCHAR
STARTCHAR BRAILLE
ENCODING 10251
SWIDTH 500 0
DWIDTH 12 0
BBX 10 10 1 8
BITMAP
6180
F3C0
F3C0
6180
0000
0000
6000
F000
F000
6000
ENDCHAR
STARTCHAR BRAILLE
ENCODING 10252
SWIDTH 500 0
DWIDTH 12 0
BBX 10 16 1 2
BITMAP
0180
03C0
03C0
0180
0000
0000
0000
0000
0000
0000
0000
0000
6000
F000
F000
6000
ENDCHAR
STARTCHAR BRAILLE
ENCODING 10253
SWIDTH 500 0
DWIDTH 12 0
BBX 10 16 1 2
BITMAP
6180
F3C0
F3C0
6180
0000
0000
0000
0000
0000
0000
0000
0000
6000
F000
F000
6000
ENDCHAR
STARTCHAR BRAILLE
ENCODING 10254
SWIDTH 500 0
DWIDTH 12 0
BBX 10 16 1 2
BITMAP
0180
03C0
03C0
0180
0000
0000
6000
F000
F000
6000
0000
0000
6000
F000
F000
6000
ENDCHAR
STARTCHAR BRAILLE
ENCODING 10255
SWIDTH 500 0
DWIDTH 12 0
BBX 10 16 1 2
BITMAP
6180
F3C0
F3C0
6180
0000
0000
6000
F000
F000
6000
0000
0000
6000
F000
F000
6000
ENDCHAR
STARTCHAR BRAILLE
ENCODING 10256
SWIDTH 500 0
DWIDTH 12 0
BBX 4 4 7 8
BITMAP
60
F0
F0
60
ENDCHAR
STARTCHAR BRAILLE
ENCODING 10257
SWIDTH 500 0
DWIDTH 12 0
BBX 10 10 1 8
BITMAP
6000
F000
F000
6000
0000
0000
0180
03C0
03C0
0180
ENDCHAR
STARTCHAR BRAILLE
ENCODING 10258
SWIDTH 500 0
DWIDTH 12 0
BBX 10 4 1 8
BITMAP
6180
F3C0
F3C0
6180
ENDCHAR
STARTCHAR BRAILLE
ENCODING 10259
SWIDTH 500 0
DWIDTH 12 0
BBX 10 10 1 8
BITMAP
6000
F000
F000
6000
0000
0000
6180
F3C0
F3C0
6180
ENDCHAR
STARTCHAR BRAILLE
ENCODING 10260
SWIDTH 500 0
DWIDTH 12 0
BBX 10 10 1 2
BITMAP
0180
03C0
03C0
0180
0000
0000
6000
F000
F000
6000
ENDCHAR
STARTCHAR BRAILLE
ENCODING 10261
SWIDTH 500 0
DWIDTH 12 0
BBX 10 16 1 2
BITMAP
6000
F000
F000
6000
0000
0000
0180
03C0
03C0
0180
0000
0000
6000
F000
F000
6000
ENDCHAR
STARTCHAR BRAILLE
ENCODING 10262
SWIDTH 500 0
DWIDTH 12 0
BBX 10 10 1 2
BITMAP
6180
F3C0
F3C0
6180
0000
0000
6000
F000
F000
6000
ENDCHAR
STARTCHAR BRAILLE
ENCODING 10263
SWIDTH 500 0
DWIDTH 12 0
BBX 10 16 1 2
BITMAP
6000
F000
F000
6000
0000
0000
6180
F3C0
F3C0
6180
0000
0000
6000
F000
F000
6000
ENDCHAR
STARTCHAR BRAILLE
ENCODING 10264
SWIDTH 500 0
DWIDTH 12 0
BBX 4 10 7 8
BITMAP
60
F0
F0
60
00
00
60
F0
F0
60
ENDCHAR
STARTCHAR BRAILLE
ENCODING 10265
SWIDTH 500 0
DWIDTH 12 0
BBX 10 10 1 8
BITMAP
6180
F3C0
F3C0
6180
0000
0000
0180
03C0
03C0
0180
ENDCHAR
STARTCHAR BRAILLE
ENCODING 10266
SWIDTH 500 0
DWIDTH 12 0
BBX 10 10 1 8
BITMAP
0180
03C0
03C0
0180
0000
0000
6180
F3C0
F3C0
6180
ENDCHAR
STARTCHAR BRAILLE
ENCODING 10267
SWIDTH 500 0
DWIDTH 12 0
BBX 10 10 1 8
BITMAP
6180
F3C0
F3C0
6180
0000
0000
6180
F3C0
F3C0
6180
ENDCHAR
STARTCHAR BRAILLE
ENCODING 10268
SWIDTH 500 0
DWIDTH 12 0
BBX 10 16 1 2
BITMAP
0180
03C0
03C0
0180
0000
0000
0180
03C0
03C0
0180
0000
0000
6000
F000
F000
6000
ENDCHAR
STARTCHAR BRAILLE
ENCODING 10269
SWIDTH 500 0
DWIDTH 12 0
BBX 10 16 1 2
BITMAP
6180
F3C0
F3C0
6180
0000
0000
0180
03C0
03C0
0180
0000
0000
6000
F000
F000
6000
ENDCHAR
STARTCHAR BRAILLE
ENCODING 10270
SWIDTH 500 0
DWIDTH 12 0
BBX 10 16 1 2
BITMAP
0180
03C0
03C0
0180
0000
0000
6180
F3C0
F3C0
6180
0000
0000
6000
F000
F000
6000
ENDCHAR
STARTCHAR BRAILLE
ENCODING 10271
SWIDTH 500 0
DWIDTH 12 0
BBX 10 16 1 2
BITMAP
6180
F3C0
F3C0
6180
0000
0000
6180
F3C0
F3C0
6180
0000
0000
6000
F000
F000
6000
ENDCHAR
STARTCHAR BRAILLE
ENCODING 10272
SWIDTH 500 0
DWIDTH 12 0
BBX 4 4 7 2
BITMAP
60
F0
F0
60
ENDCHAR
STARTCHAR BRAILLE
ENCODING 10273
SWIDTH 500 0
DWIDTH 12 0
BBX 10 16 1 2
BITMAP
6000
F000
F000
6000
0000
0000
0000
0000
0000
0000
0000
0000
0180
03C0
03C0
0180
ENDCHAR
STARTCHAR BRAILLE
ENCODING 10274
SWIDTH 500 0
DWIDTH 12 0
BBX 10 10 1 2
BITMAP
6000
F000
F000
6000
0000
0000
0180
03C0
03C0
0180
ENDCHAR
STARTCHAR BRAILLE
ENCODING 10275
SWIDTH 500 0
DWIDTH 12 0
BBX 10 16 1 2
BITMAP
6000
F000
F000
6000
0000
0000
6000
F000
F000
6000
0000
0000
0180
03C0
03C0
0180
ENDCHAR
STARTCHAR BRAILLE
ENCODING 10276
SWIDTH 500 0
DWIDTH 12 0
BBX 10 4 1 2
BITMAP
6180
F3C0
F3C0
6180
ENDCHAR
STARTCHAR BRAILLE
ENCODING 10277
SWIDTH 500 0
DWIDTH 12 0
BBX 10 16 1 2
BITMAP
6000
F000
F000
6000
0000
0000
0000
0000
0000
0000
0000
0000
6180
F3C0
F3C0
6180
ENDCHAR
STARTCHAR BRAILLE
ENCODING 10278
SWIDTH 500 0
DWIDTH 12 0
BBX 10 10 1 2
BITMAP
6000
F000
F000
6000
0000
0000
6180
F3C0
F3C0
6180
ENDCHAR
STARTCHAR BRAILLE
ENCODING 10279
SWIDTH 500 0
DWIDTH 12 0
BBX 10 16 1 2
BITMAP
6000
F000
F000
6000
0000
0000
6000
F000
F000
6000
0000
0000
6180
F3C0
F3C0
6180
ENDCHAR
STARTCHAR BRAILLE
ENCODING 10280
SWIDTH 500 0
DWIDTH 12 0
BBX 4 16 7 2
BITMAP
60
F0
F0
60
00
00
00
00
00
00
00
00
60
F0
F0
60
ENDCHAR
STARTCHAR BRAILLE
ENCODING 10281
SWIDTH 500 0
DWIDTH 12 0
BBX 10 16 1 2
BITMAP
6180
F3C0
F3C0
6180
0000
0000
0000
0000
0000
0000
0000
0000
0180
03C0
03C0
0180
ENDCHAR
STARTCHAR BRAILLE
ENCODING 10282
SWIDTH 500 0
DWIDTH 12 0
BBX 10 16 1 2
BITMAP
0180
03C0
03C0
0180
0000
0000
6000
F000
F000
6000
0000
0000
0180
03C0
03C0
0180
ENDCHAR
STARTCHAR BRAILLE
ENCODING 10283
SWIDTH 500 0
DWIDTH 12 0
BBX 10 16 1 2
BITMAP
6180
F3C0
F3C0
6180
0000
0000
6000
F000
F000
6000
0000
0000
0180
03C0
03C0
0180
ENDCHAR
STARTCHAR BRAILLE
ENCODING 10284
SWIDTH 500 0
DWIDTH 12 0
BBX 10 16 1 2
BITMAP
0180
03C0
03C0
0180
0000
0000
0000
0000
0000
0000
0000
0000
6180
F3C0
F3C0
6180
ENDCHAR
STARTCHAR BRAILLE
ENCODING 10285
SWIDTH 500 0
DWIDTH 12 0
BBX 10 16 1 2
BITMAP
6180
F3C0
F3C0
6180
0000
0000
0000
0000
0000
0000
0000
0000
6180
F3C0
F3C0
6180
ENDCHAR
STARTCHAR BRAILLE
ENCODING 10286
SWIDTH 500 0
DWIDTH 12 0
BBX 10 16 1 2
BITMAP
0180
03C0
03C0
0180
0000
0000
6000
F000
F000
6000
0000
0000
6180
F3C0
F3C0
6180
ENDCHAR
STARTCHAR BRAILLE
ENCODING 10287
SWIDTH 500 0
DWIDTH 12 0
BBX 10 16 1 2
BITMAP
6180
F3C0
F3C0
6180
0000
0000
6000
F000
F000
6000
0000
0000
6180
F3C0
F3C0
6180
ENDCHAR
STARTCHAR BRAILLE
ENCODING 10288
SWIDTH 500 0
DWIDTH 12 0
BBX 4 10 7 2
BITMAP
60
F0
F0
60
00
00
60
F0
F0
60
ENDCHAR
STARTCHAR BRAILLE
ENCODING 10289
SWIDTH 500 0
DWIDTH 12 0
BBX 10 16 1 2
BITMAP
6000
F000
F000
6000
0000
0000
0180
03C0
03C0
0180
0000
0000
0180
03C0
03C0
0180
ENDCHAR
STARTCHAR BRAILLE
ENCODING 10290
SWIDTH 500 0
DWIDTH 12 0
BBX 10 10 1 2
BITMAP
6180
F3C0
F3C0
6180
0000
0000
0180
03C0
03C0
0180
ENDCHAR
STARTCHAR BRAILLE
ENCODING 10291
SWIDTH 500 0
DWIDTH 12 0
BBX 10 16 1 2
BITMAP
6000
F000
F000
6000
0000
0000
6180
F3C0
F3C0
6180
0000
0000
0180
03C0
03C0
0180
ENDCHAR
STARTCHAR BRAILLE
ENCODING 10292
SWIDTH 500 0
DWIDTH 12 0
BBX 10 10 1 2
BITMAP
0180
03C0
03C0
0180
0000
0000
6180
F3C0
F3C0
6180
ENDCHAR
STARTCHAR BRAILLE
ENCODING 10293
SWIDTH 500 0
DWIDTH 12 0
BBX 10 16 1 2
BITMAP
6000
F000
F000
6000
0000
0000
0180
03C0
03C0
0180
0000
0000
6180
F3C0
F3C0
6180
ENDCHAR
STARTCHAR BRAILLE
ENCODING 10294
SWIDTH 500 0
DWIDTH 12 0
BBX 10 10 1 2
BITMAP
6180
F3C0
F3C0
6180
0000
0000
6180
F3C0
F3C0
6180
ENDCHAR
STARTCHAR BRAILLE
ENCODING 10295
SWIDTH 500 0
DWIDTH 12 0
BBX 10 16 1 2
BITMAP
6000
F000
F000
6000
0000
0000
6180
F3C0
F3C0
6180
0000
0000
6180
F3C0
F3C0
6180
ENDCHAR
STARTCHAR BRAILLE
ENCODING 10296
SWIDTH 500 0
DWIDTH 12 0
BBX 4 16 7 2
BITMAP
60
F0
F0
60
00
00
60
F0
F0
60
00
00
60
F0
F0
60
ENDCHAR
STARTCHAR BRAILLE
ENCODING 10297
SWIDTH 500 0
DWIDTH 12 0
BBX 10 16 1 2
BITMAP
6180
F3C0
F3C0
6180
0000
0000
0180
03C0
03C0
0180
0000
0000
0180
03C0
03C0
0180
ENDCHAR
STARTCHAR BRAILLE
ENCODING 10298
SWIDTH 500 0
DWIDTH 12 0
BBX 10 16 1 2
BITMAP
0180
03C0
03C0
0180
0000
0000
6180
F3C0
F3C0
6180
0000
0000
0180
03C0
03C0
0180
ENDCHAR
STARTCHAR BRAILLE
ENCODING 10299
SWIDTH 500 0
DWIDTH 12 0
BBX 10 16 1 2
BITMAP
6180
F3C0
F3C0
6180
0000
0000
6180
F3C0
F3C0
6180
0000
0000
0180
03C0
03C0
0180
ENDCHAR
STARTCHAR BRAILLE
ENCODING 10300
SWIDTH 500 0
DWIDTH 12 0
BBX 10 16 1 2
BITMAP
0180
03C0
03C0
0180
0000
0000
0180
03C0
03C0
0180
0000
0000
6180
F3C0
F3C0
6180
ENDCHAR
STARTCHAR BRAILLE
ENCODING 10301
SWIDTH 500 0
DWIDTH 12 0
BBX 10 16 1 2
BITMAP
6180
F3C0
F3C0
6180
0000
0000
0180
03C0
03C0
0180
0000
0000
6180
F3C0
F3C0
6180
ENDCHAR
STARTCHAR BRAILLE
ENCODING 10302
SWIDTH 500 0
DWIDTH 12 0
BBX 10 16 1 2
BITMAP
0180
03C0
03C0
0180
0000
0000
6180
F3C0
F3C0
6180
0000
0000
6180
F3C0
F3C0
6180
ENDCHAR
STARTCHAR BRAILLE
ENCODING 10303
SWIDTH 500 0
DWIDTH 12 0
BBX 10 16 1 2
BITMAP
6180
F3C0
F3C0
6180
0000
0000
6180
F3C0
F3C0
6180
0000
0000
6180
F3C0
F3C0
6180
ENDCHAR
STARTCHAR BRAILLE
ENCODING 10304
SWIDTH 500 0
DWIDTH 12 0
BBX 4 4 1 -4
BITMAP
60
F0
F0
60
ENDCHAR
STARTCHAR BRAILLE
ENCODING 10305
SWIDTH 500 0
DWIDTH 12 0
BBX 4 22 1 -4
BITMAP
60
F0
F0
60
00
00
00
00
00
00
00
00
00
00
00
00
00
00
60
F0
F0
60
ENDCHAR
STARTCHAR BRAILLE
ENCODING 10306
SWIDTH 500 0
DWIDTH 12 0
BBX 4 16 1 -4
BITMAP
60
F0
F0
60
00
00
00
00
00
00
00
00
60
F0
F0
60
ENDCHAR
STARTCHAR BRAILLE
ENCODING 10307
SWIDTH 500 0
DWIDTH 12 0
BBX 4 22 1 -4
BITMAP
60
F0
F0
60
00
00
60
F0
F0
60
00
00
00
00
00
00
00
00
60
F0
F0
60
ENDCHAR
STARTCHAR BRAILLE
ENCODING 10308
SWIDTH 500 0
DWIDTH 12 0
BBX 4 10 1 -4
BITMAP
60
F0
F0
60
00
00
60
F0
F0
60
ENDCHAR
STARTCHAR BRAILLE
ENCODING 10309
SWIDTH 500 0
DWIDTH 12 0
BBX 4 22 1 -4
BITMAP
60
F0
F0
60
00
00
00
00
00
00
00
00
60
F0
F0
60
00
00
60
F0
F0
60
ENDCHAR
STARTCHAR BRAILLE
ENCODING 10310
SWIDTH 500 0
DWIDTH 12 0
BBX 4 16 1 -4
BITMAP
60
F0
F0
60
00
00
60
F0
F0
60
00
00
60
F0
F0
60
ENDCHAR
STARTCHAR BRAILLE
ENCODING 10311
SWIDTH 500 0
DWIDTH 12 0
BBX 4 22 1 -4
BITMAP
60
F0
F0
60
00
00
60
F0
F0
60
00
00
60
F0
F0
60
00
00
60
F0
F0
60
ENDCHAR
STARTCHAR BRAILLE
ENCODING 10312
SWIDTH 500 0
DWIDTH 12 0
BBX 10 22 1 -4
BITMAP
0180
03C0
03C0
0180
0000
0000
0000
0000
0000
0000
0000
0000
0000
0000
0000
0000
0000
0000
6000
F000
F000
6000
ENDCHAR
STARTCHAR BRAILLE
ENCODING 10313
SWIDTH 500 0
DWIDTH 12 0
BBX 10 22 1 -4
BITMAP
6180
F3C0
F3C0
6180
0000
0000
0000
0000
0000
0000
0000
0000
0000
0000
0000
0000
0000
0000
6000
F000
F000
6000
ENDCHAR
STARTCHAR BRAILLE
ENCODING 10314
SWIDTH 500 0
DWIDTH 12 0
BBX 10 22 1 -4
BITMAP
0180
03C0
03C0
0180
0000
0000
6000
F000
F000
6000
0000
0000
0000
0000
0000
0000
0000
0000
6000
F000
F000
6000
ENDCHAR
STARTCHAR BRAILLE
ENCODING 10315
SWIDTH 500 0
DWIDTH 12 0
BBX 10 22 1 -4
BITMAP
6180
F3C0
F3C0
6180
0000
0000
6000
F000
F000
6000
0000
0000
0000
0000
0000
0000
0000
0000
6000
F000
F000
6000
ENDCHAR
STARTCHAR BRAILLE
ENCODING 10316
SWIDTH 500 0
DWIDTH 12 0
BBX 10 22 1 -4
BITMAP
0180
03C0
03C0
0180
0000
0000
0000
0000
0000
0000
0000
0000
6000
F000
F000
6000
0000
0000
6000
F000
F000
6000
ENDCHAR
STARTCHAR BRAILLE
ENCODING 10317
SWIDTH 500 0
DWIDTH 12 0
BBX 10 22 1 -4
BITMAP
6180
F3C0
F3C0
6180
0000
0000
0000
0000
0000
0000
0000
0000
6000
F000
F000
6000
0000
0000
6000
F000
F000
6000
ENDCHAR
STARTCHAR BRAILLE
ENCODING 10318
SWIDTH 500 0
DWIDTH 12 0
BBX 10 22 1 -4
BITMAP
0180
03C0
03C0
0180
0000
0000
6000
F000
F000
6000
0000
0000
6000
F000
F000
6000
0000
0000
6000
F000
F000
6000
ENDCHAR
STARTCHAR BRAILLE
ENCODING 10319
SWIDTH 500 0
DWIDTH 12 0
BBX 10 22 1 -4
BITMAP
6180
F3C0
F3C0
6180
0000
0000
6000
F000
F000
6000
0000
0000
6000
F000
F000
6000
0000
0000
6000
F000
F000
6000
ENDCHAR
STARTCHAR BRAILLE
ENCODING 10320
SWIDTH 500 0
DWIDTH 12 0
BBX 10 16 1 -4
BITMAP
0180
03C0
03C0
0180
0000
0000
0000
0000
0000
0000
0000
0000
6000
F000
F000
6000
ENDCHAR
STARTCHAR BRAILLE
ENCODING 10321
SWIDTH 500 0
DWIDTH 12 0
BBX 10 22 1 -4
BITMAP
6000
F000
F000
6000
0000
0000
0180
03C0
03C0
0180
0000
0000
0000
0000
0000
0000
0000
0000
6000
F000
F000
6000
ENDCHAR
STARTCHAR BRAILLE
ENCODING 10322
SWIDTH 500 0
DWIDTH 12 0
BBX 10 16 1 -4
BITMAP
6180
F3C0
F3C0
6180
0000
0000
0000
0000
0000
0000
0000
0000
6000
F000
F000
6000
ENDCHAR
STARTCHAR BRAILLE
ENCODING 10323
SWIDTH 500 0
DWIDTH 12 0
BBX 10 22 1 -4
BITMAP
6000
F000
F000
6000
0000
0000
6180
F3C0
F3C0
6180
0000
0000
0000
0000
0000
0000
0000
0000
6000
F000
F000
6000
ENDCHAR
STARTCHAR BRAILLE
ENCODING 10324
SWIDTH 500 0
DWIDTH 12 0
BBX 10 16 1 -4
BITMAP
0180
03C0
03C0
0180
0000
0000
6000
F000
F000
6000
0000
0000
6000
F000
F000
6000
ENDCHAR
STARTCHAR BRAILLE
ENCODING 10325
SWIDTH 500 0
DWIDTH 12 0
BBX 10 22 1 -4
BITMAP
6000
F000
F000
6000
0000
0000
0180
03C0
03C0
0180
0000
0000
6000
F000
F000
6000
0000
0000
6000
F000
F000
6000
ENDCHAR
STARTCHAR BRAILLE
ENCODING 10326
SWIDTH 500 0
DWIDTH 12 0
BBX 10 16 1 -4
BITMAP
6180
F3C0
F3C0
6180
0000
0000
6000
F000
F000
6000
0000
0000
6000
F000
F000
6000
ENDCHAR
STARTCHAR BRAILLE
ENCODING 10327
SWIDTH 500 0
DWIDTH 12 0
BBX 10 22 1 -4
BITMAP
6000
F000
F000
6000
0000
0000
6180
F3C0
F3C0
6180
0000
0000
6000
F000
F000
6000
0000
0000
6000
F000
F000
6000
ENDCHAR
STARTCHAR BRAILLE
ENCODING 10328
SWIDTH 500 0
DWIDTH 12 0
BBX 10 22 1 -4
BITMAP
0180
03C0
03C0
0180
0000
0000
0180
03C0
03C0
0180
0000
0000
0000
0000
0000
0000
0000
0000
6000
F000
F000
6000
ENDCHAR
STARTCHAR BRAILLE
ENCODING 10329
SWIDTH 500 0
DWIDTH 12 0
BBX 10 22 1 -4
BITMAP
6180
F3C0
F3C0
6180
0000
0000
0180
03C0
03C0
0180
0000
0000
0000
0000
0000
0000
0000
0000
6000
F000
F000
6000
ENDCHAR
STARTCHAR BRAILLE
ENCODING 10330
SWIDTH 500 0
DWIDTH 12 0
BBX 10 22 1 -4
BITMAP
0180
03C0
03C0
0180
0000
0000
6180
F3C0
F3C0
6180
0000
0000
0000
0000
0000
0000
0000
0000
6000
F000
F000
6000
ENDCHAR
STARTCHAR BRAILLE
ENCODING 10331
SWIDTH 500 0
DWIDTH 12 0
BBX 10 22 1 -4
BITMAP
6180
F3C0
F3C0
6180
0000
0000
6180
F3C0
F3C0
6180
0000
0000
0000
0000
0000
0000
0000
0000
6000
F000
F000
6000
ENDCHAR
STARTCHAR BRAILLE
ENCODING 10332
SWIDTH 500 0
DWIDTH 12 0
BBX 10 22 1 -4
BITMAP
0180
03C0
03C0
0180
0000
0000
0180
03C0
03C0
0180
0000
0000
6000
F000
F000
6000
0000
0000
6000
F000
F000
6000
ENDCHAR
STARTCHAR BRAILLE
ENCODING 10333
SWIDTH 500 0
DWIDTH 12 0
BBX 10 22 1 -4
BITMAP
6180
F3C0
F3C0
6180
0000
0000
0180
03C0
03C0
0180
0000
0000
6000
F000
F000
6000
0000
0000
6000
F000
F000
6000
ENDCHAR
STARTCHAR BRAILLE
ENCODING 10334
SWIDTH 500 0
DWIDTH 12 0
BBX 10 22 1 -4
BITMAP
0180
03C0
03C0
0180
0000
0000
6180
F3C0
F3C0
6180
0000
0000
6000
F000
F000
6000
0000
0000
6000
F000
F000
6000
ENDCHAR
STARTCHAR BRAILLE
ENCODING 10335
SWIDTH 500 0
DWIDTH 12 0
BBX 10 22 1 -4
BITMAP
6180
F3C0
F3C0
6180
0000
0000
6180
F3C0
F3C0
6180
0000
0000
6000
F000
F000
6000
0000
0000
6000
F000
F000
6000
ENDCHAR
STARTCHAR BRAILLE
ENCODING 10336
SWIDTH 500 0
DWIDTH 12 0
BBX 10 10 1 -4
BITMAP
0180
03C0
03C0
0180
0000
0000
6000
F000
F000
6000
ENDCHAR
STARTCHAR BRAILLE
ENCODING 10337
SWIDTH 500 0
DWIDTH 12 0
BBX 10 22 1 -4
BITMAP
6000
F000
F000
6000
0000
0000
0000
0000
0000
0000
0000
0000
0180
03C0
03C0
0180
0000
0000
6000
F000
F000
6000
ENDCHAR
STARTCHAR BRAILLE
ENCODING 10338
SWIDTH 500 0
DWIDTH 12 0
BBX 10 16 1 -4
BITMAP
6000
F000
F000
6000
0000
0000
0180
03C0
03C0
0180
0000
0000
6000
F000
F000
6000
ENDCHAR
STARTCHAR BRAILLE
ENCODING 10339
SWIDTH 500 0
DWIDTH 12 0
BBX 10 22 1 -4
BITMAP
6000
F000
F000
6000
0000
0000
6000
F000
F000
6000
0000
0000
0180
03C0
03C0
0180
0000
0000
6000
F000
F000
6000
ENDCHAR
STARTCHAR BRAILLE
ENCODING 10340
SWIDTH 500 0
DWIDTH 12 0
BBX 10 10 1 -4
BITMAP
6180
F3C0
F3C0
6180
0000
0000
6000
F000
F000
6000
ENDCHAR
STARTCHAR BRAILLE
ENCODING 10341
SWIDTH 500 0
DWIDTH 12 0
BBX 10 22 1 -4
BITMAP
6000
F000
F000
6000
0000
0000
0000
0000
0000
0000
0000
0000
6180
F3C0
F3C0
6180
0000
0000
6000
F000
F000
6000
ENDCHAR
STARTCHAR BRAILLE
ENCODING 10342
SWIDTH 500 0
DWIDTH 12 0
BBX 10 16 1 -4
BITMAP
6000
F000
F000
6000
0000
0000
6180
F3C0
F3C0
6180
0000
0000
6000
F000
F000
6000
ENDCHAR
STARTCHAR BRAILLE
ENCODING 10343
SWIDTH 500 0
DWIDTH 12 0
BBX 10 22 1 -4
BITMAP
6000
F000
F000
6000
0000
0000
6000
F000
F000
6000
0000
0000
6180
F3C0
F3C0
6180
0000
0000
6000
F000
F000
6000
ENDCHAR
STARTCHAR BRAILLE
ENCODING 10344
SWIDTH 500 0
DWIDTH 12 0
BBX 10 22 1 -4
BITMAP
0180
03C0
03C0
0180
0000
0000
0000
0000
0000
0000
0000
0000
0180
03C0
03C0
0180
0000
0000
6000
F000
F000
6000
ENDCHAR
STARTCHAR BRAILLE
ENCODING 10345
SWIDTH 500 0
DWIDTH 12 0
BBX 10 22 1 -4
BITMAP
6180
F3C0
F3C0
6180
0000
0000
0000
0000
0000
0000
0000
0000
0180
03C0
03C0
0180
0000
0000
6000
F000
F000
6000
ENDCHAR
STARTCHAR BRAILLE
ENCODING 10346
SWIDTH 500 0
DWIDTH 12 0
BBX 10 22 1 -4
BITMAP
0180
03C0
03C0
0180
0000
0000
6000
F000
F000
6000
0000
0000
0180
03C0
03C0
0180
0000
0000
6000
F000
F000
6000
ENDCHAR
STARTCHAR BRAILLE
ENCODING 10347
SWIDTH 500 0
DWIDTH 12 0
BBX 10 22 1 -4
BITMAP
6180
F3C0
F3C0
6180
0000
0000
6000
F000
F000
6000
0000
0000
0180
03C0
03C0
0180
0000
0000
6000
F000
F000
6000
ENDCHAR
STARTCHAR BRAILLE
ENCODING 10348
SWIDTH 500 0
DWIDTH 12 0
BBX 10 22 1 -4
BITMAP
0180
03C0
03C0
0180
0000
0000
0000
0000
0000
0000
0000
0000
6180
F3C0
F3C0
6180
0000
0000
6000
F000
F000
6000
ENDCHAR
STARTCHAR BRAILLE
ENCODING 10349
SWIDTH 500 0
DWIDTH 12 0
BBX 10 22 1 -4
BITMAP
6180
F3C0
F3C0
6180
0000
0000
0000
0000
0000
0000
0000
0000
6180
F3C0
F3C0
6180
0000
0000
6000
F000
F000
6000
ENDCHAR
STARTCHAR BRAILLE
ENCODING 10350
SWIDTH 500 0
DWIDTH 12 0
BBX 10 22 1 -4
BITMAP
0180
03C0
03C0
0180
0000
0000
6000
F000
F000
6000
0000
0000
6180
F3C0
F3C0
6180
0000
0000
6000
F000
F000
6000
ENDCHAR
STARTCHAR BRAILLE
ENCODING 10351
SWIDTH 500 0
DWIDTH 12 0
BBX 10 22 1 -4
BITMAP
6180
F3C0
F3C0
6180
0000
0000
6000
F000
F000
6000
0000
0000
6180
F3C0
F3C0
6180
0000
0000
6000
F000
F000
6000
ENDCHAR
STARTCHAR BRAILLE
ENCODING 10352
SWIDTH 500 0
DWIDTH 12 0
BBX 10 16 1 -4
BITMAP
0180
03C0
03C0
0180
0000
0000
0180
03C0
03C0
0180
0000
0000
6000
F000
F000
6000
ENDCHAR
STARTCHAR BRAILLE
ENCODING 10353
SWIDTH 500 0
DWIDTH 12 0
BBX 10 22 1 -4
BITMAP
6000
F000
F000
6000
0000
0000
0180
03C0
03C0
0180
0000
0000
0180
03C0
03C0
0180
0000
0000
6000
F000
F000
6000
ENDCHAR
STARTCHAR BRAILLE
ENCODING 10354
SWIDTH 500 0
DWIDTH 12 0
BBX 10 16 1 -4
BITMAP
6180
F3C0
F3C0
6180
0000
0000
0180
03C0
03C0
0180
0000
0000
6000
F000
F000
6000
ENDCHAR
STARTCHAR BRAILLE
ENCODING 10355
SWIDTH 500 0
DWIDTH 12 0
BBX 10 22 1 -4
BITMAP
6000
F000
F000
6000
0000
0000
6180
F3C0
F3C0
6180
0000
0000
0180
03C0
03C0
0180
0000
0000
6000
F000
F000
6000
ENDCHAR
STARTCHAR BRAILLE
ENCODING 10356
SWIDTH 500 0
DWIDTH 12 0
BBX 10 16 1 -4
BITMAP
0180
03C0
03C0
0180
0000
0000
6180
F3C0
F3C0
6180
0000
0000
6000
F000
F000
6000
ENDCHAR
STARTCHAR BRAILLE
ENCODING 10357
SWIDTH 500 0
DWIDTH 12 0
BBX 10 22 1 -4
BITMAP
6000
F000
F000
6000
0000
0000
0180
03C0
03C0
0180
0000
0000
6180
F3C0
F3C0
6180
0000
0000
6000
F000
F000
6000
ENDCHAR
STARTCHAR BRAILLE
ENCODING 10358
SWIDTH 500 0
DWIDTH 12 0
BBX 10 16 1 -4
BITMAP
6180
F3C0
F3C0
6180
0000
0000
6180
F3C0
F3C0
6180
0000
0000
6000
F000
F000
6000
ENDCHAR
STARTCHAR BRAILLE
ENCODING 10359
SWIDTH 500 0
DWIDTH 12 0
BBX 10 22 1 -4
BITMAP
6000
F000
F000
6000
0000
0000
6180
F3C0
F3C0
6180
0000
0000
6180
F3C0
F3C0
6180
0000
0000
6000
F000
F000
6000
ENDCHAR
STARTCHAR BRAILLE
ENCODING 10360
SWIDTH 500 0
DWIDTH 12 0
BBX 10 22 1 -4
BITMAP
0180
03C0
03C0
0180
0000
0000
0180
03C0
03C0
0180
0000
0000
0180
03C0
03C0
0180
0000
0000
6000
F000
F000
6000
ENDCHAR
STARTCHAR BRAILLE
ENCODING 10361
SWIDTH 500 0
DWIDTH 12 0
BBX 10 22 1 -4
BITMAP
6180
F3C0
F3C0
6180
0000
0000
0180
03C0
03C0
0180
0000
0000
0180
03C0
03C0
0180
0000
0000
6000
F000
F000
6000
ENDCHAR
STARTCHAR BRAILLE
ENCODING 10362
SWIDTH 500 0
DWIDTH 12 0
BBX 10 22 1 -4
BITMAP
0180
03C0
03C0
0180
0000
0000
6180
F3C0
F3C0
6180
0000
0000
0180
03C0
03C0
0180
0000
0000
6000
F000
F000
6000
ENDCHAR
STARTCHAR BRAILLE
ENCODING 10363
SWIDTH 500 0
DWIDTH 12 0
BBX 10 22 1 -4
BITMAP
6180
F3C0
F3C0
6180
0000
0000
6180
F3C0
F3C0
6180
0000
0000
0180
03C0
03C0
0180
0000
0000
6000
F000
F000
6000
ENDCHAR
STARTCHAR BRAILLE
ENCODING 10364
SWIDTH 500 0
DWIDTH 12 0
BBX 10 22 1 -4
BITMAP
0180
03C0
03C0
0180
0000
0000
0180
03C0
03C0
0180
0000
0000
6180
F3C0
F3C0
6180
0000
0000
6000
F000
F000
6000
ENDCHAR
STARTCHAR BRAILLE
ENCODING 10365
SWIDTH 500 0
DWIDTH 12 0
BBX 10 22 1 -4
BITMAP
6180
F3C0
F3C0
6180
0000
0000
0180
03C0
03C0
0180
0000
0000
6180
F3C0
F3C0
6180
0000
0000
6000
F000
F000
6000
ENDCHAR
STARTCHAR BRAILLE
ENCODING 10366
SWIDTH 500 0
DWIDTH 12 0
BBX 10 22 1 -4
BITMAP
0180
03C0
03C0
0180
0000
0000
6180
F3C0
F3C0
6180
0000
0000
6180
F3C0
F3C0
6180
0000
0000
6000
F000
F000
6000
ENDCHAR
STARTCHAR BRAILLE
ENCODING 10367
SWIDTH 500 0
DWIDTH 12 0
BBX 10 22 1 -4
BITMAP
6180
F3C0
F3C0
6180
0000
0000
6180
F3C0
F3C0
6180
0000
0000
6180
F3C0
F3C0
6180
0000
0000
6000
F000
F000
6000
ENDCHAR
STARTCHAR BRAILLE
ENCODING 10368
SWIDTH 500 0
DWIDTH 12 0
BBX 4 4 7 -4
BITMAP
60
F0
F0
60
ENDCHAR
STARTCHAR BRAILLE
ENCODING 10369
SWIDTH 500 0
DWIDTH 12 0
BBX 10 22 1 -4
BITMAP
6000
F000
F000
6000
0000
0000
0000
0000
0000
0000
0000
0000
0000
0000
0000
0000
0000
0000
0180
03C0
03C0
0180
ENDCHAR
STARTCHAR BRAILLE
ENCODING 10370
SWIDTH 500 0
DWIDTH 12 0
BBX 10 16 1 -4
BITMAP
6000
F000
F000
6000
0000
0000
0000
0000
0000
0000
0000
0000
0180
03C0
03C0
0180
ENDCHAR
STARTCHAR BRAILLE
ENCODING 10371
SWIDTH 500 0
DWIDTH 12 0
BBX 10 22 1 -4
BITMAP
6000
F000
F000
6000
0000
0000
6000
F000
F000
6000
0000
0000
0000
0000
0000
0000
0000
0000
0180
03C0
03C0
0180
ENDCHAR
STARTCHAR BRAILLE
ENCODING 10372
SWIDTH 500 0
DWIDTH 12 0
BBX 10 10 1 -4
BITMAP
6000
F000
F000
6000
0000
0000
0180
03C0
03C0
0180
ENDCHAR
STARTCHAR BRAILLE
ENCODING 10373
SWIDTH 500 0
DWIDTH 12 0
BBX 10 22 1 -4
BITMAP
6000
F000
F000
6000
0000
0000
0000
0000
0000
0000
0000
0000
6000
F000
F000
6000
0000
0000
0180
03C0
03C0
0180
ENDCHAR
STARTCHAR BRAILLE
ENCODING 10374
SWIDTH 500 0
DWIDTH 12 0
BBX 10 16 1 -4
BITMAP
6000
F000
F000
6000
0000
0000
6000
F000
F000
6000
0000
0000
0180
03C0
03C0
0180
ENDCHAR
STARTCHAR BRAILLE
ENCODING 10375
SWIDTH 500 0
DWIDTH 12 0
BBX 10 22 1 -4
BITMAP
6000
F000
F000
6000
0000
0000
6000
F000
F000
6000
0000
0000
6000
F000
F000
6000
0000
0000
0180
03C0
03C0
0180
ENDCHAR
STARTCHAR BRAILLE
ENCODING 10376
SWIDTH 500 0
DWIDTH 12 0
BBX 4 22 7 -4
BITMAP
60
F0
F0
60
00
00
00
00
00
00
00
00
00
00
00
00
00
00
60
F0
F0
60
ENDCHAR
STARTCHAR BRAILLE
ENCODING 10377
SWIDTH 500 0
DWIDTH 12 0
BBX 10 22 1 -4
BITMAP
6180
F3C0
F3C0
6180
0000
0000
0000
0000
0000
0000
0000
0000
0000
0000
0000
0000
0000
0000
0180
03C0
03C0
0180
ENDCHAR
STARTCHAR BRAILLE
ENCODING 10378
SWIDTH 500 0
DWIDTH 12 0
BBX 10 22 1 -4
BITMAP
0180
03C0
03C0
0180
0000
0000
6000
F000
F000
6000
0000
0000
0000
0000
0000
0000
0000
0000
0180
03C0
03C0
0180
ENDCHAR
STARTCHAR BRAILLE
ENCODING 10379
SWIDTH 500 0
DWIDTH 12 0
BBX 10 22 1 -4
BITMAP
6180
F3C0
F3C0
6180
0000
0000
6000
F000
F000
6000
0000
0000
0000
0000
0000
0000
0000
0000
0180
03C0
03C0
0180
ENDCHAR
STARTCHAR BRAILLE
ENCODING 10380
SWIDTH 500 0
DWIDTH 12 0
BBX 10 22 1 -4
BITMAP
0180
03C0
03C0
0180
0000
0000
0000
0000
0000
0000
0000
0000
6000
F000
F000
6000
0000
0000
0180
03C0
03C0
0180
ENDCHAR
STARTCHAR BRAILLE
ENCODING 10381
SWIDTH 500 0
DWIDTH 12 0
BBX 10 22 1 -4
BITMAP
6180
F3C0
F3C0
6180
0000
0000
0000
0000
0000
0000
0000
0000
6000
F000
F000
6000
0000
0000
0180
03C0
03C0
0180
ENDCHAR
STARTCHAR BRAILLE
ENCODING 10382
SWIDTH 500 0
DWIDTH 12 0
BBX 10 22 1 -4
BITMAP
0180
03C0
03C0
0180
0000
0000
6000
F000
F000
6000
0000
0000
6000
F000
F000
6000
0000
0000
0180
03C0
03C0
0180
ENDCHAR
STARTCHAR BRAILLE
ENCODING 10383
SWIDTH 500 0
DWIDTH 12 0
BBX 10 22 1 -4
BITMAP
6180
F3C0
F3C0
6180
0000
0000
6000
F000
F000
6000
0000
0000
6000
F000
F000
6000
0000
0000
0180
03C0
03C0
0180
ENDCHAR
STARTCHAR BRAILLE
ENCODING 10384
SWIDTH 500 0
DWIDTH 12 0
BBX 4 16 7 -4
BITMAP
60
F0
F0
60
00
00
00
00
00
00
00
00
60
F0
F0
60
ENDCHAR
STARTCHAR BRAILLE
ENCODING 10385
SWIDTH 500 0
DWIDTH 12 0
BBX 10 22 1 -4
BITMAP
6000
F000
F000
6000
0000
0000
0180
03C0
03C0
0180
0000
0000
0000
0000
0000
0000
0000
0000
0180
03C0
03C0
0180
ENDCHAR
STARTCHAR BRAILLE
ENCODING 10386
SWIDTH 500 0
DWIDTH 12 0
BBX 10 16 1 -4
BITMAP
6180
F3C0
F3C0
6180
0000
0000
0000
0000
0000
0000
0000
0000
0180
03C0
03C0
0180
ENDCHAR
STARTCHAR BRAILLE
ENCODING 10387
SWIDTH 500 0
DWIDTH 12 0
BBX 10 22 1 -4
BITMAP
6000
F000
F000
6000
0000
0000
6180
F3C0
F3C0
6180
0000
0000
0000
0000
0000
0000
0000
0000
0180
03C0
03C0
0180
ENDCHAR
STARTCHAR BRAILLE
ENCODING 10388
SWIDTH 500 0
DWIDTH 12 0
BBX 10 16 1 -4
BITMAP
0180
03C0
03C0
0180
0000
0000
6000
F000
F000
6000
0000
0000
0180
03C0
03C0
0180
ENDCHAR
STARTCHAR BRAILLE
ENCODING 10389
SWIDTH 500 0
DWIDTH 12 0
BBX 10 22 1 -4
BITMAP
6000
F000
F000
6000
0000
0000
0180
03C0
03C0
0180
0000
0000
6000
F000
F000
6000
0000
0000
0180
03C0
03C0
0180
ENDCHAR
STARTCHAR BRAILLE
ENCODING 10390
SWIDTH 500 0
DWIDTH 12 0
BBX 10 16 1 -4
BITMAP
6180
F3C0
F3C0
6180
0000
0000
6000
F000
F000
6000
0000
0000
0180
03C0
03C0
0180
ENDCHAR
STARTCHAR BRAILLE
ENCODING 10391
SWIDTH 500 0
DWIDTH 12 0
BBX 10 22 1 -4
BITMAP
6000
F000
F000
6000
0000
0000
6180
F3C0
F3C0
6180
0000
0000
6000
F000
F000
6000
0000
0000
0180
03C0
03C0
0180
ENDCHAR
STARTCHAR BRAILLE
ENCODING 10392
SWIDTH 500 0
DWIDTH 12 0
BBX 4 22 7 -4
BITMAP
60
F0
F0
60
00
00
60
F0
F0
60
00
00
00
00
00
00
00
00
60
F0
F0
60
ENDCHAR
STARTCHAR BRAILLE
ENCODING 10393
SWIDTH 500 0
DWIDTH 12 0
BBX 10 22 1 -4
BITMAP
6180
F3C0
F3C0
6180
0000
0000
0180
03C0
03C0
0180
0000
0000
0000
0000
0000
0000
0000
0000
0180
03C0
03C0
0180
ENDCHAR
STARTCHAR BRAILLE
ENCODING 10394
SWIDTH 500 0
DWIDTH 12 0
BBX 10 22 1 -4
BITMAP
0180
03C0
03C0
0180
0000
0000
6180
F3C0
F3C0
6180
0000
0000
0000
0000
0000
0000
0000
0000
0180
03C0
03C0
0180
ENDCHAR
STARTCHAR BRAILLE
ENCODING 10395
SWIDTH 500 0
DWIDTH 12 0
BBX 10 22 1 -4
BITMAP
6180
F3C0
F3C0
6180
0000
0000
6180
F3C0
F3C0
6180
0000
0000
0000
0000
0000
0000
0000
0000
0180
03C0
03C0
0180
ENDCHAR
STARTCHAR BRAILLE
ENCODING 10396
SWIDTH 500 0
DWIDTH 12 0
BBX 10 22 1 -4
BITMAP
0180
03C0
03C0
0180
0000
0000
0180
03C0
03C0
0180
0000
0000
6000
F000
F000
6000
0000
0000
0180
03C0
03C0
0180
ENDCHAR
STARTCHAR BRAILLE
ENCODING 10397
SWIDTH 500 0
DWIDTH 12 0
BBX 10 22 1 -4
BITMAP
6180
F3C0
F3C0
6180
0000
0000
0180
03C0
03C0
0180
0000
0000
6000
F000
F000
6000
0000
0000
0180
03C0
03C0
0180
ENDCHAR
STARTCHAR BRAILLE
ENCODING 10398
SWIDTH 500 0
DWIDTH 12 0
BBX 10 22 1 -4
BITMAP
0180
03C0
03C0
0180
0000
0000
6180
F3C0
F3C0
6180
0000
0000
6000
F000
F000
6000
0000
0000
0180
03C0
03C0
0180
ENDCHAR
STARTCHAR BRAILLE
ENCODING 10399
SWIDTH 500 0
DWIDTH 12 0
BBX 10 22 1 -4
BITMAP
6180
F3C0
F3C0
6180
0000
0000
6180
F3C0
F3C0
6180
0000
0000
6000
F000
F000
6000
0000
0000
0180
03C0
03C0
0180
ENDCHAR
STARTCHAR BRAILLE
ENCODING 10400
SWIDTH 500 0
DWIDTH 12 0
BBX 4 10 7 -4
BITMAP
60
F0
F0
60
00
00
60
F0
F0
60
ENDCHAR
STARTCHAR BRAILLE
ENCODING 10401
SWIDTH 500 0
DWIDTH 12 0
BBX 10 22 1 -4
BITMAP
6000
F000
F000
6000
0000
0000
0000
0000
0000
0000
0000
0000
0180
03C0
03C0
0180
0000
0000
0180
03C0
03C0
0180
ENDCHAR
STARTCHAR BRAILLE
ENCODING 10402
SWIDTH 500 0
DWIDTH 12 0
BBX 10 16 1 -4
BITMAP
6000
F000
F000
6000
0000
0000
0180
03C0
03C0
0180
0000
0000
0180
03C0
03C0
0180
ENDCHAR
STARTCHAR BRAILLE
ENCODING 10403
SWIDTH 500 0
DWIDTH 12 0
BBX 10 22 1 -4
BITMAP
6000
F000
F000
6000
0000
0000
6000
F000
F000
6000
0000
0000
0180
03C0
03C0
0180
0000
0000
0180
03C0
03C0
0180
ENDCHAR
STARTCHAR BRAILLE
ENCODING 10404
SWIDTH 500 0
DWIDTH 12 0
BBX 10 10 1 -4
BITMAP
6180
F3C0
F3C0
6180
0000
0000
0180
03C0
03C0
0180
ENDCHAR
STARTCHAR BRAILLE
ENCODING 10405
SWIDTH 500 0
DWIDTH 12 0
BBX 10 22 1 -4
BITMAP
6000
F000
F000
6000
0000
0000
0000
0000
0000
0000
0000
0000
6180
F3C0
F3C0
6180
0000
0000
0180
03C0
03C0
0180
ENDCHAR
STARTCHAR BRAILLE
ENCODING 10406
SWIDTH 500 0
DWIDTH 12 0
BBX 10 16 1 -4
BITMAP
6000
F000
F000
6000
0000
0000
6180
F3C0
F3C0
6180
0000
0000
0180
03C0
03C0
0180
ENDCHAR
STARTCHAR BRAILLE
ENCODING 10407
SWIDTH 500 0
DWIDTH 12 0
BBX 10 22 1 -4
BITMAP
6000
F000
F000
6000
0000
0000
6000
F000
F000
6000
0000
0000
6180
F3C0
F3C0
6180
0000
0000
0180
03C0
03C0
0180
ENDCHAR
STARTCHAR BRAILLE
ENCODING 10408
SWIDTH 500 0
DWIDTH 12 0
BBX 4 22 7 -4
BITMAP
60
F0
F0
60
00
00
00
00
00
00
00
00
60
F0
F0
60
00
00
60
F0
F0
60
ENDCHAR
STARTCHAR BRAILLE
ENCODING 10409
SWIDTH 500 0
DWIDTH 12 0
BBX 10 22 1 -4
BITMAP
6180
F3C0
F3C0
6180
0000
0000
0000
0000
0000
0000
0000
0000
0180
03C0
03C0
0180
0000
0000
0180
03C0
03C0
0180
ENDCHAR
STARTCHAR BRAILLE
ENCODING 10410
SWIDTH 500 0
DWIDTH 12 0
BBX 10 22 1 -4
BITMAP
0180
03C0
03C0
0180
0000
0000
6000
F000
F000
6000
0000
0000
0180
03C0
03C0
0180
0000
0000
0180
03C0
03C0
0180
ENDCHAR
STARTCHAR BRAILLE
ENCODING 10411
SWIDTH 500 0
DWIDTH 12 0
BBX 10 22 1 -4
BITMAP
6180
F3C0
F3C0
6180
0000
0000
6000
F000
F000
6000
0000
0000
0180
03C0
03C0
0180
0000
0000
0180
03C0
03C0
0180
ENDCHAR
STARTCHAR BRAILLE
ENCODING 10412
SWIDTH 500 0
DWIDTH 12 0
BBX 10 22 1 -4
BITMAP
0180
03C0
03C0
0180
0000
0000
0000
0000
0000
0000
0000
0000
6180
F3C0
F3C0
6180
0000
0000
0180
03C0
03C0
0180
ENDCHAR
STARTCHAR BRAILLE
ENCODING 10413
SWIDTH 500 0
DWIDTH 12 0
BBX 10 22 1 -4
BITMAP
6180
F3C0
F3C0
6180
0000
0000
0000
0000
0000
0000
0000
0000
6180
F3C0
F3C0
6180
0000
0000
0180
03C0
03C0
0180
ENDCHAR
STARTCHAR BRAILLE
ENCODING 10414
SWIDTH 500 0
DWIDTH 12 0
BBX 10 22 1 -4
BITMAP
0180
03C0
03C0
0180
0000
0000
6000
F000
F000
6000
0000
0000
6180
F3C0
F3C0
6180
0000
0000
0180
03C0
03C0
0180
ENDCHAR
STARTCHAR BRAILLE
ENCODING 10415
SWIDTH 500 0
DWIDTH 12 0
BBX 10 22 1 -4
BITMAP
6180
F3C0
F3C0
6180
0000
0000
6000
F000
F000
6000
0000
0000
6180
F3C0
F3C0
6180
0000
0000
0180
03C0
03C0
0180
ENDCHAR
STARTCHAR BRAILLE
ENCODING 10416
SWIDTH 500 0
DWIDTH 12 0
BBX 4 16 7 -4
BITMAP
60
F0
F0
60
00
00
60
F0
F0
60
00
00
60
F0
F0
60
ENDCHAR
STARTCHAR BRAILLE
ENCODING 10417
SWIDTH 500 0
DWIDTH 12 0
BBX 10 22 1 -4
BITMAP
6000
F000
F000
6000
0000
0000
0180
03C0
03C0
0180
0000
0000
0180
03C0
03C0
0180
0000
0000
0180
03C0
03C0
0180
ENDCHAR
STARTCHAR BRAILLE
ENCODING 10418
SWIDTH 500 0
DWIDTH 12 0
BBX 10 16 1 -4
BITMAP
6180
F3C0
F3C0
6180
0000
0000
0180
03C0
03C0
0180
0000
0000
0180
03C0
03C0
0180
ENDCHAR
STARTCHAR BRAILLE
ENCODING 10419
SWIDTH 500 0
DWIDTH 12 0
BBX 10 22 1 -4
BITMAP
6000
F000
F000
6000
0000
0000
6180
F3C0
F3C0
6180
0000
0000
0180
03C0
03C0
0180
0000
0000
0180
03C0
03C0
0180
ENDCHAR
STARTCHAR BRAILLE
ENCODING 10420
SWIDTH 500 0
DWIDTH 12 0
BBX 10 16 1 -4
BITMAP
0180
03C0
03C0
0180
0000
0000
6180
F3C0
F3C0
6180
0000
0000
0180
03C0
03C0
0180
ENDCHAR
STARTCHAR BRAILLE
ENCODING 10421
SWIDTH 500 0
DWIDTH 12 0
BBX 10 22 1 -4
BITMAP
6000
F000
F000
6000
0000
0000
0180
03C0
03C0
0180
0000
0000
6180
F3C0
F3C0
6180
0000
0000
0180
03C0
03C0
0180
ENDCHAR
STARTCHAR BRAILLE
ENCODING 10422
SWIDTH 500 0
DWIDTH 12 0
BBX 10 16 1 -4
BITMAP
6180
F3C0
F3C0
6180
0000
0000
6180
F3C0
F3C0
6180
0000
0000
0180
03C0
03C0
0180
ENDCHAR
STARTCHAR BRAILLE
ENCODING 10423
SWIDTH 500 0
DWIDTH 12 0
BBX 10 22 1 -4
BITMAP
6000
F000
F000
6000
0000
0000
6180
F3C0
F3C0
6180
0000
0000
6180
F3C0
F3C0
6180
0000
0000
0180
03C0
03C0
0180
ENDCHAR
STARTCHAR BRAILLE
ENCODING 10424
SWIDTH 500 0
DWIDTH 12 0
BBX 4 22 7 -4
BITMAP
60
F0
F0
60
00
00
60
F0
F0
60
00
00
60
F0
F0
60
00
00
60
F0
F0
60
ENDCHAR
STARTCHAR BRAILLE
ENCODING 10425
SWIDTH 500 0
DWIDTH 12 0
BBX 10 22 1 -4
BITMAP
6180
F3C0
F3C0
6180
0000
0000
0180
03C0
03C0
0180
0000
0000
0180
03C0
03C0
0180
0000
0000
0180
03C0
03C0
0180
ENDCHAR
STARTCHAR BRAILLE
ENCODING 10426
SWIDTH 500 0
DWIDTH 12 0
BBX 10 22 1 -4
BITMAP
0180
03C0
03C0
0180
0000
0000
6180
F3C0
F3C0
6180
0000
0000
0180
03C0
03C0
0180
0000
0000
0180
03C0
03C0
0180
ENDCHAR
STARTCHAR BRAILLE
ENCODING 10427
SWIDTH 500 0
DWIDTH 12 0
BBX 10 22 1 -4
BITMAP
6180
F3C0
F3C0
6180
0000
0000
6180
F3C0
F3C0
6180
0000
0000
0180
03C0
03C0
0180
0000
0000
0180
03C0
03C0
0180
ENDCHAR
STARTCHAR BRAILLE
ENCODING 10428
SWIDTH 500 0
DWIDTH 12 0
BBX 10 22 1 -4
BITMAP
0180
03C0
03C0
0180
0000
0000
0180
03C0
03C0
0180
0000
0000
6180
F3C0
F3C0
6180
0000
0000
0180
03C0
03C0
0180
ENDCHAR
STARTCHAR BRAILLE
ENCODING 10429
SWIDTH 500 0
DWIDTH 12 0
BBX 10 22 1 -4
BITMAP
6180
F3C0
F3C0
6180
0000
0000
0180
03C0
03C0
0180
0000
0000
6180
F3C0
F3C0
6180
0000
0000
0180
03C0
03C0
0180
ENDCHAR
STARTCHAR BRAILLE
ENCODING 10430
SWIDTH 500 0
DWIDTH 12 0
BBX 10 22 1 -4
BITMAP
0180
03C0
03C0
0180
0000
0000
6180
F3C0
F3C0
6180
0000
0000
6180
F3C0
F3C0
6180
0000
0000
0180
03C0
03C0
0180
ENDCHAR
STARTCHAR BRAILLE
ENCODING 10431
SWIDTH 500 0
DWIDTH 12 0
BBX 10 22 1 -4
BITMAP
6180
F3C0
F3C0
6180
0000
0000
6180
F3C0
F3C0
6180
0000
0000
6180
F3C0
F3C0
6180
0000
0000
0180
03C0
03C0
0180
ENDCHAR
STARTCHAR BRAILLE
ENCODING 10432
SWIDTH 500 0
DWIDTH 12 0
BBX 10 4 1 -4
BITMAP
6180
F3C0
F3C0
6180
ENDCHAR
STARTCHAR BRAILLE
ENCODING 10433
SWIDTH 500 0
DWIDTH 12 0
BBX 10 22 1 -4
BITMAP
6000
F000
F000
6000
0000
0000
0000
0000
0000
0000
0000
0000
0000
0000
0000
0000
0000
0000
6180
F3C0
F3C0
6180
ENDCHAR
STARTCHAR BRAILLE
ENCODING 10434
SWIDTH 500 0
DWIDTH 12 0
BBX 10 16 1 -4
BITMAP
6000
F000
F000
6000
0000
0000
0000
0000
0000
0000
0000
0000
6180
F3C0
F3C0
6180
ENDCHAR
STARTCHAR BRAILLE
ENCODING 10435
SWIDTH 500 0
DWIDTH 12 0
BBX 10 22 1 -4
BITMAP
6000
F000
F000
6000
0000
0000
6000
F000
F000
6000
0000
0000
0000
0000
0000
0000
0000
0000
6180
F3C0
F3C0
6180
ENDCHAR
STARTCHAR BRAILLE
ENCODING 10436
SWIDTH 500 0
DWIDTH 12 0
BBX 10 10 1 -4
BITMAP
6000
F000
F000
6000
0000
0000
6180
F3C0
F3C0
6180
ENDCHAR
STARTCHAR BRAILLE
ENCODING 10437
SWIDTH 500 0
DWIDTH 12 0
BBX 10 22 1 -4
BITMAP
6000
F000
F000
6000
0000
0000
0000
0000
0000
0000
0000
0000
6000
F000
F000
6000
0000
0000
6180
F3C0
F3C0
6180
ENDCHAR
STARTCHAR BRAILLE
ENCODING 10438
SWIDTH 500 0
DWIDTH 12 0
BBX 10 16 1 -4
BITMAP
6000
F000
F000
6000
0000
0000
6000
F000
F000
6000
0000
0000
6180
F3C0
F3C0
6180
ENDCHAR
STARTCHAR BRAILLE
ENCODING 10439
SWIDTH 500 0
DWIDTH 12 0
BBX 10 22 1 -4
BITMAP
6000
F000
F000
6000
0000
0000
6000
F000
F000
6000
0000
0000
6000
F000
F000
6000
0000
0000
6180
F3C0
F3C0
6180
ENDCHAR
STARTCHAR BRAILLE
ENCODING 10440
SWIDTH 500 0
DWIDTH 12 0
BBX 10 22 1 -4
BITMAP
0180
03C0
03C0
0180
0000
0000
0000
0000
0000
0000
0000
0000
0000
0000
0000
0000
0000
0000
6180
F3C0
F3C0
6180
ENDCHAR
STARTCHAR BRAILLE
ENCODING 10441
SWIDTH 500 0
DWIDTH 12 0
BBX 10 22 1 -4
BITMAP
6180
F3C0
F3C0
6180
0000
0000
0000
0000
0000
0000
0000
0000
0000
0000
0000
0000
0000
0000
6180
F3C0
F3C0
6180
ENDCHAR
STARTCHAR BRAILLE
ENCODING 10442
SWIDTH 500 0
DWIDTH 12 0
BBX 10 22 1 -4
BITMAP
0180
03C0
03C0
0180
0000
0000
6000
F000
F000
6000
0000
0000
0000
0000
0000
0000
0000
0000
6180
F3C0
F3C0
6180
ENDCHAR
STARTCHAR BRAILLE
ENCODING 10443
SWIDTH 500 0
DWIDTH 12 0
BBX 10 22 1 -4
BITMAP
6180
F3C0
F3C0
6180
0000
0000
6000
F000
F000
6000
0000
0000
0000
0000
0000
0000
0000
0000
6180
F3C0
F3C0
6180
ENDCHAR
STARTCHAR BRAILLE
ENCODING 10444
SWIDTH 500 0
DWIDTH 12 0
BBX 10 22 1 -4
BITMAP
0180
03C0
03C0
0180
0000
0000
0000
0000
0000
0000
0000
0000
6000
F000
F000
6000
0000
0000
6180
F3C0
F3C0
6180
ENDCHAR
STARTCHAR BRAILLE
ENCODING 10445
SWIDTH 500 0
DWIDTH 12 0
BBX 10 22 1 -4
BITMAP
6180
F3C0
F3C0
6180
0000
0000
0000
0000
0000
0000
0000
0000
6000
F000
F000
6000
0000
0000
6180
F3C0
F3C0
6180
ENDCHAR
STARTCHAR BRAILLE
ENCODING 10446
SWIDTH 500 0
DWIDTH 12 0
BBX 10 22 1 -4
BITMAP
0180
03C0
03C0
0180
0000
0000
6000
F000
F000
6000
0000
0000
6000
F000
F000
6000
0000
0000
6180
F3C0
F3C0
6180
ENDCHAR
STARTCHAR BRAILLE
ENCODING 10447
SWIDTH 500 0
DWIDTH 12 0
BBX 10 22 1 -4
BITMAP
6180
F3C0
F3C0
6180
0000
0000
6000
F000
F000
6000
0000
0000
6000
F000
F000
6000
0000
0000
6180
F3C0
F3C0
6180
ENDCHAR
STARTCHAR BRAILLE
ENCODING 10448
SWIDTH 500 0
DWIDTH 12 0
BBX 10 16 1 -4
BITMAP
0180
03C0
03C0
0180
0000
0000
0000
0000
0000
0000
0000
0000
6180
F3C0
F3C0
6180
ENDCHAR
STARTCHAR BRAILLE
ENCODING 10449
SWIDTH 500 0
DWIDTH 12 0
BBX 10 22 1 -4
BITMAP
6000
F000
F000
6000
0000
0000
0180
03C0
03C0
0180
0000
0000
0000
0000
0000
0000
0000
0000
6180
F3C0
F3C0
6180
ENDCHAR
STARTCHAR BRAILLE
ENCODING 10450
SWIDTH 500 0
DWIDTH 12 0
BBX 10 16 1 -4
BITMAP
6180
F3C0
F3C0
6180
0000
0000
0000
0000
0000
0000
0000
0000
6180
F3C0
F3C0
6180
ENDCHAR
STARTCHAR BRAILLE
ENCODING 10451
SWIDTH 500 0
DWIDTH 12 0
BBX 10 22 1 -4
BITMAP
6000
F000
F000
6000
0000
0000
6180
F3C0
F3C0
6180
0000
0000
0000
0000
0000
0000
0000
0000
6180
F3C0
F3C0
6180
ENDCHAR
STARTCHAR BRAILLE
ENCODING 10452
SWIDTH 500 0
DWIDTH 12 0
BBX 10 16 1 -4
BITMAP
0180
03C0
03C0
0180
0000
0000
6000
F000
F000
6000
0000
0000
6180
F3C0
F3C0
6180
ENDCHAR
STARTCHAR BRAILLE
ENCODING 10453
SWIDTH 500 0
DWIDTH 12 0
BBX 10 22 1 -4
BITMAP
6000
F000
F000
6000
0000
0000
0180
03C0
03C0
0180
0000
0000
6000
F000
F000
6000
0000
0000
6180
F3C0
F3C0
6180
ENDCHAR
STARTCHAR BRAILLE
ENCODING 10454
SWIDTH 500 0
DWIDTH 12 0
BBX 10 16 1 -4
BITMAP
6180
F3C0
F3C0
6180
0000
0000
6000
F000
F000
6000
0000
0000
6180
F3C0
F3C0
6180
ENDCHAR
STARTCHAR BRAILLE
ENCODING 10455
SWIDTH 500 0
DWIDTH 12 0
BBX 10 22 1 -4
BITMAP
6000
F000
F000
6000
0000
0000
6180
F3C0
F3C0
6180
0000
0000
6000
F000
F000
6000
0000
0000
6180
F3C0
F3C0
6180
ENDCHAR
STARTCHAR BRAILLE
ENCODING 10456
SWIDTH 500 0
DWIDTH 12 0
BBX 10 22 1 -4
BITMAP
0180
03C0
03C0
0180
0000
0000
0180
03C0
03C0
0180
0000
0000
0000
0000
0000
0000
0000
0000
6180
F3C0
F3C0
6180
ENDCHAR
STARTCHAR BRAILLE
ENCODING 10457
SWIDTH 500 0
DWIDTH 12 0
BBX 10 22 1 -4
BITMAP
6180
F3C0
F3C0
6180
0000
0000
0180
03C0
03C0
0180
0000
0000
0000
0000
0000
0000
0000
0000
6180
F3C0
F3C0
6180
ENDCHAR
STARTCHAR BRAILLE
ENCODING 10458
SWIDTH 500 0
DWIDTH 12 0
BBX 10 22 1 -4
BITMAP
0180
03C0
03C0
0180
0000
0000
6180
F3C0
F3C0
6180
0000
0000
0000
0000
0000
0000
0000
0000
6180
F3C0
F3C0
6180
ENDCHAR
STARTCHAR BRAILLE
ENCODING 10459
SWIDTH 500 0
DWIDTH 12 0
BBX 10 22 1 -4
BITMAP
6180
F3C0
F3C0
6180
0000
0000
6180
F3C0
F3C0
6180
0000
0000
0000
0000
0000
0000
0000
0000
6180
F3C0
F3C0
6180
ENDCHAR
STARTCHAR BRAILLE
ENCODING 10460
SWIDTH 500 0
DWIDTH 12 0
BBX 10 22 1 -4
BITMAP
0180
03C0
03C0
0180
0000
0000
0180
03C0
03C0
0180
0000
0000
6000
F000
F000
6000
0000
0000
6180
F3C0
F3C0
6180
ENDCHAR
STARTCHAR BRAILLE
ENCODING 10461
SWIDTH 500 0
DWIDTH 12 0
BBX 10 22 1 -4
BITMAP
6180
F3C0
F3C0
6180
0000
0000
0180
03C0
03C0
0180
0000
0000
6000
F000
F000
6000
0000
0000
6180
F3C0
F3C0
6180
ENDCHAR
STARTCHAR BRAILLE
ENCODING 10462
SWIDTH 500 0
DWIDTH 12 0
BBX 10 22 1 -4
BITMAP
0180
03C0
03C0
0180
0000
0000
6180
F3C0
F3C0
6180
0000
0000
6000
F000
F000
6000
0000
0000
6180
F3C0
F3C0
6180
ENDCHAR
STARTCHAR BRAILLE
ENCODING 10463
SWIDTH 500 0
DWIDTH 12 0
BBX 10 22 1 -4
BITMAP
6180
F3C0
F3C0
6180
0000
0000
6180
F3C0
F3C0
6180
0000
0000
6000
F000
F000
6000
0000
0000
6180
F3C0
F3C0
6180
ENDCHAR
STARTCHAR BRAILLE
ENCODING 10464
SWIDTH 500 0
DWIDTH 12 0
BBX 10 10 1 -4
BITMAP
0180
03C0
03C0
0180
0000
0000
6180
F3C0
F3C0
6180
ENDCHAR
STARTCHAR BRAILLE
ENCODING 10465
SWIDTH 500 0
DWIDTH 12 0
BBX 10 22 1 -4
BITMAP
6000
F000
F000
6000
0000
0000
0000
0000
0000
0000
0000
0000
0180
03C0
03C0
0180
0000
0000
6180
F3C0
F3C0
6180
ENDCHAR
STARTCHAR BRAILLE
ENCODING 10466
SWIDTH 500 0
DWIDTH 12 0
BBX 10 16 1 -4
BITMAP
6000
F000
F000
6000
0000
0000
0180
03C0
03C0
0180
0000
0000
6180
F3C0
F3C0
6180
ENDCHAR
STARTCHAR BRAILLE
ENCODING 10467
SWIDTH 500 0
DWIDTH 12 0
BBX 10 22 1 -4
BITMAP
6000
F000
F000
6000
0000
0000
6000
F000
F000
6000
0000
0000
0180
03C0
03C0
0180
0000
0000
6180
F3C0
F3C0
6180
ENDCHAR
STARTCHAR BRAILLE
ENCODING 10468
SWIDTH 500 0
DWIDTH 12 0
BBX 10 10 1 -4
BITMAP
6180
F3C0
F3C0
6180
0000
0000
6180
F3C0
F3C0
6180
ENDCHAR
STARTCHAR BRAILLE
ENCODING 10469
SWIDTH 500 0
DWIDTH 12 0
BBX 10 22 1 -4
BITMAP
6000
F000
F000
6000
0000
0000
0000
0000
0000
0000
0000
0000
6180
F3C0
F3C0
6180
0000
0000
6180
F3C0
F3C0
6180
ENDCHAR
STARTCHAR BRAILLE
ENCODING 10470
SWIDTH 500 0
DWIDTH 12 0
BBX 10 16 1 -4
BITMAP
6000
F000
F000
6000
0000
0000
6180
F3C0
F3C0
6180
0000
0000
6180
F3C0
F3C0
6180
ENDCHAR
STARTCHAR BRAILLE
ENCODING 10471
SWIDTH 500 0
DWIDTH 12 0
BBX 10 22 1 -4
BITMAP
6000
F000
F000
6000
0000
0000
6000
F000
F000
6000
0000
0000
6180
F3C0
F3C0
6180
0000
0000
6180
F3C0
F3C0
6180
ENDCHAR
STARTCHAR BRAILLE
ENCODING 10472
SWIDTH 500 0
DWIDTH 12 0
BBX 10 22 1 -4
BITMAP
0180
03C0
03C0
0180
0000
0000
0000
0000
0000
0000
0000
0000
0180
03C0
03C0
0180
0000
0000
6180
F3C0
F3C0
6180
ENDCHAR
STARTCHAR BRAILLE
ENCODING 10473
SWIDTH 500 0
DWIDTH 12 0
BBX 10 22 1 -4
BITMAP
6180
F3C0
F3C0
6180
0000
0000
0000
0000
0000
0000
0000
0000
0180
03C0
03C0
0180
0000
0000
6180
F3C0
F3C0
6180
ENDCHAR
STARTCHAR BRAILLE
ENCODING 10474
SWIDTH 500 0
DWIDTH 12 0
BBX 10 22 1 -4
BITMAP
0180
03C0
03C0
0180
0000
0000
6000
F000
F000
6000
0000
0000
0180
03C0
03C0
0180
0000
0000
6180
F3C0
F3C0
6180
ENDCHAR
STARTCHAR BRAILLE
ENCODING 10475
SWIDTH 500 0
DWIDTH 12 0
BBX 10 22 1 -4
BITMAP
6180
F3C0
F3C0
6180
0000
0000
6000
F000
F000
6000
0000
0000
0180
03C0
03C0
0180
0000
0000
6180
F3C0
F3C0
6180
ENDCHAR
STARTCHAR BRAILLE
ENCODING 10476
SWIDTH 500 0
DWIDTH 12 0
BBX 10 22 1 -4
BITMAP
0180
03C0
03C0
0180
0000
0000
0000
0000
0000
0000
0000
0000
6180
F3C0
F3C0
6180
0000
0000
6180
F3C0
F3C0
6180
ENDCHAR
STARTCHAR BRAILLE
ENCODING 10477
SWIDTH 500 0
DWIDTH 12 0
BBX 10 22 1 -4
BITMAP
6180
F3C0
F3C0
6180
0000
0000
0000
0000
0000
0000
0000
0000
6180
F3C0
F3C0
6180
0000
0000
6180
F3C0
F3C0
6180
ENDCHAR
STARTCHAR BRAILLE
ENCODING 10478
SWIDTH 500 0
DWIDTH 12 0
BBX 10 22 1 -4
BITMAP
0180
03C0
03C0
0180
0000
0000
6000
F000
F000
6000
0000
0000
6180
F3C0
F3C0
6180
0000
0000
6180
F3C0
F3C0
6180
ENDCHAR
STARTCHAR BRAILLE
ENCODING 10479
SWIDTH 500 0
DWIDTH 12 0
BBX 10 22 1 -4
BITMAP
6180
F3C0
F3C0
6180
0000
0000
6000
F000
F000
6000
0000
0000
6180
F3C0
F3C0
6180
0000
0000
6180
F3C0
F3C0
6180
ENDCHAR
STARTCHAR BRAILLE
ENCODING 10480
SWIDTH 500 0
DWIDTH 12 0
BBX 10 16 1 -4
BITMAP
0180
03C0
03C0
0180
0000
0000
0180
03C0
03C0
0180
0000
0000
6180
F3C0
F3C0
6180
ENDCHAR
STARTCHAR BRAILLE
ENCODING 10481
SWIDTH 500 0
DWIDTH 12 0
BBX 10 22 1 -4
BITMAP
6000
F000
F000
6000
0000
0000
0180
03C0
03C0
0180
0000
0000
0180
03C0
03C0
0180
0000
0000
6180
F3C0
F3C0
6180
ENDCHAR
STARTCHAR BRAILLE
ENCODING 10482
SWIDTH 500 0
DWIDTH 12 0
BBX 10 16 1 -4
BITMAP
6180
F3C0
F3C0
6180
0000
0000
0180
03C0
03C0
0180
0000
0000
6180
F3C0
F3C0
6180
ENDCHAR
STARTCHAR BRAILLE
ENCODING 10483
SWIDTH 500 0
DWIDTH 12 0
BBX 10 22 1 -4
BITMAP
6000
F000
F000
6000
0000
0000
6180
F3C0
F3C0
6180
0000
0000
0180
03C0
03C0
0180
0000
0000
6180
F3C0
F3C0
6180
ENDCHAR
STARTCHAR BRAILLE
ENCODING 10484
SWIDTH 500 0
DWIDTH 12 0
BBX 10 16 1 -4
BITMAP
0180
03C0
03C0
0180
0000
0000
6180
F3C0
F3C0
6180
0000
0000
6180
F3C0
F3C0
6180
ENDCHAR
STARTCHAR BRAILLE
ENCODING 10485
SWIDTH 500 0
DWIDTH 12 0
BBX 10 22 1 -4
BITMAP
6000
F000
F000
6000
0000
0000
0180
03C0
03C0
0180
0000
0000
6180
F3C0
F3C0
6180
0000
0000
6180
F3C0
F3C0
6180
ENDCHAR
STARTCHAR BRAILLE
ENCODING 10486
SWIDTH 500 0
DWIDTH 12 0
BBX 10 16 1 -4
BITMAP
6180
F3C0
F3C0
6180
0000
0000
6180
F3C0
F3C0
6180
0000
0000
6180
F3C0
F3C0
6180
ENDCHAR
STARTCHAR BRAILLE
ENCODING 10487
SWIDTH 500 0
DWIDTH 12 0
BBX 10 22 1 -4
BITMAP
6000
F000
F000
6000
0000
0000
6180
F3C0
F3C0
6180
0000
0000
6180
F3C0
F3C0
6180
0000
0000
6180
F3C0
F3C0
6180
ENDCHAR
STARTCHAR BRAILLE
ENCODING 10488
SWIDTH 500 0
DWIDTH 12 0
BBX 10 22 1 -4
BITMAP
0180
03C0
03C0
0180
0000
0000
0180
03C0
03C0
0180
0000
0000
0180
03C0
03C0
0180
0000
0000
6180
F3C0
F3C0
6180
ENDCHAR
STARTCHAR BRAILLE
ENCODING 10489
SWIDTH 500 0
DWIDTH 12 0
BBX 10 22 1 -4
BITMAP
6180
F3C0
F3C0
6180
0000
0000
0180
03C0
03C0
0180
0000
0000
0180
03C0
03C0
0180
0000
0000
6180
F3C0
F3C0
6180
ENDCHAR
STARTCHAR BRAILLE
ENCODING 10490
SWIDTH 500 0
DWIDTH 12 0
BBX 10 22 1 -4
BITMAP
0180
03C0
03C0
0180
0000
0000
6180
F3C0
F3C0
6180
0000
0000
0180
03C0
03C0
0180
0000
0000
6180
F3C0
F3C0
6180
ENDCHAR
STARTCHAR BRAILLE
ENCODING 10491
SWIDTH 500 0
DWIDTH 12 0
BBX 10 22 1 -4
BITMAP
6180
F3C0
F3C0
6180
0000
0000
6180
F3C0
F3C0
6180
0000
0000
0180
03C0
03C0
0180
0000
0000
6180
F3C0
F3C0
6180
ENDCHAR
STARTCHAR BRAILLE
ENCODING 10492
SWIDTH 500 0
DWIDTH 12 0
BBX 10 22 1 -4
BITMAP
0180
03C0
03C0
0180
0000
0000
0180
03C0
03C0
0180
0000
0000
6180
F3C0
F3C0
6180
0000
0000
6180
F3C0
F3C0
6180
ENDCHAR
STARTCHAR BRAILLE
ENCODING 10493
SWIDTH 500 0
DWIDTH 12 0
BBX 10 22 1 -4
BITMAP
6180
F3C0
F3C0
6180
0000
0000
0180
03C0
03C0
0180
0000
0000
6180
F3C0
F3C0
6180
0000
0000
6180
F3C0
F3C0
6180
ENDCHAR
STARTCHAR BRAILLE
ENCODING 10494
SWIDTH 500 0
DWIDTH 12 0
BBX 10 22 1 -4
BITMAP
0180
03C0
03C0
0180
0000
0000
6180
F3C0
F3C0
6180
0000
0000
6180
F3C0
F3C0
6180
0000
0000
6180
F3C0
F3C0
6180
ENDCHAR
STARTCHAR BRAILLE
ENCODING 10495
SWIDTH 500 0
DWIDTH 12 0
BBX 10 22 1 -4
BITMAP
6180
F3C0
F3C0
6180
0000
0000
6180
F3C0
F3C0
6180
0000
0000
6180
F3C0
F3C0
6180
0000
0000
6180
F3C0
F3C0
6180
ENDCHAR
STARTCHAR char57504
ENCODING 57504
SWIDTH 500 0
DWIDTH 12 0
BBX 10 18 1 -2
BITMAP
C000
C000
C300
C780
CFC0
C300
C300
C300
C600
8C00
1800
3000
6000
C000
C000
C000
C000
C000
ENDCHAR
STARTCHAR char57505
ENCODING 57505
SWIDTH 500 0
DWIDTH 12 0
BBX 10 16 1 -1
BITMAP
C000
C000
C000
C000
C000
C000
C000
7C00
0000
0CC0
0CC0
0EC0
0EC0
0DC0
0DC0
0CC0
ENDCHAR
STARTCHAR char57506
ENCODING 57506
SWIDTH 500 0
DWIDTH 12 0
BBX 10 16 1 -1
BITMAP
1E00
3F00
3300
3300
3300
3300
FFC0
FFC0
FFC0
F3C0
E1C0
E1C0
F3C0
FFC0
FFC0
FFC0
ENDCHAR
STARTCHAR char57520
ENCODING 57520
SWIDTH 500 0
DWIDTH 12 0
BBX 12 24 0 -5
BITMAP
8000
C000
E000
F000
F800
FC00
FE00
FF00
FF80
FFC0
FFE0
FFF0
FFF0
FFE0
FFC0
FF80
FF00
FE00
FC00
F800
F000
E000
C000
8000
ENDCHAR
STARTCHAR char57521
ENCODING 57521
SWIDTH 500 0
DWIDTH 12 0
BBX 12 24 0 -5
BITMAP
8000
C000
6000
3000
1800
0C00
0600
0300
0180
00C0
0060
0030
0030
0060
00C0
0180
0300
0600
0C00
1800
3000
6000
C000
8000
ENDCHAR
STARTCHAR char57522
ENCODING 57522
SWIDTH 500 0
DWIDTH 12 0
BBX 12 24 0 -5
BITMAP
0010
0030
0070
00F0
01F0
03F0
07F0
0FF0
1FF0
3FF0
7FF0
FFF0
FFF0
7FF0
3FF0
1FF0
0FF0
07F0
03F0
01F0
00F0
0070
0030
0010
ENDCHAR
STARTCHAR char57523
ENCODING 57523
SWIDTH 500 0
DWIDTH 12 0
BBX 12 24 0 -5
BITMAP
0010
0030
0060
00C0
0180
0300
0600
0C00
1800
3000
6000
C000
C000
6000
3000
1800
0C00
0600
0300
0180
00C0
0060
0030
0010
ENDCHAR
ENDFONT
